<svg width="93" height="15" viewBox="0 0 93 15" fill="none" xmlns="http://www.w3.org/2000/svg">
<g clip-path="url(#clip0_308_3453)">
<path d="M6.3143 0.5L0 14.4567H3.01079L4.34892 11.4226H11.3741L12.7122 14.4567H15.7648L9.32509 0.5H6.3143ZM5.39433 9.0387L7.86151 3.36068L10.3287 9.0387H5.39433Z" fill="white"/>
<path d="M34.6241 2.5803C33.9246 1.87551 33.0815 1.3423 32.1569 1.01993C30.923 0.638987 29.6386 0.463429 28.3516 0.499804H20.6573V14.4998H28.3516C29.6132 14.5181 30.8695 14.3279 32.0733 13.9363C32.9838 13.5891 33.8111 13.0421 34.4986 12.3326C35.1188 11.7006 35.5909 10.9295 35.8786 10.0787C36.4207 8.36317 36.4354 6.51538 35.9204 4.79082C35.6528 3.96297 35.2099 3.20767 34.6241 2.5803ZM33.2441 9.12519C33.0739 9.67448 32.7883 10.1778 32.4078 10.5989C31.9585 11.0626 31.4159 11.4178 30.8188 11.6391C30.0113 11.9222 29.1618 12.0543 28.3098 12.0292H23.4172V2.97039H28.3098C29.1592 2.93315 30.0084 3.0505 30.8188 3.31714C31.4205 3.50661 31.9668 3.84935 32.4078 4.31404C32.779 4.72575 33.0638 5.21279 33.2441 5.74439C33.415 6.29019 33.4997 6.861 33.495 7.43479C33.4969 8.00836 33.4122 8.57871 33.2441 9.12519Z" fill="white"/>
<path d="M46.3327 0.5L39.9766 14.4567H42.9874L44.3255 11.4226H51.3925L52.7306 14.4567H55.7414L49.3435 0.5H46.3327ZM45.3709 9.0387L47.8381 3.36068L50.3471 9.0387H45.3709Z" fill="white"/>
<path d="M72.8027 1.62707C72.2946 1.21926 71.7111 0.924182 71.0882 0.760198C70.3903 0.583407 69.6741 0.496067 68.9556 0.500136H60.5923V14.4568H63.3522V9.9924H68.9556C69.6741 9.99647 70.3903 9.90913 71.0882 9.73233C71.7056 9.57487 72.2877 9.29523 72.8027 8.9088C73.3082 8.54774 73.7122 8.05418 73.9736 7.47846C74.2729 6.81469 74.4162 6.08687 74.3917 5.35463C74.4199 4.59412 74.2768 3.83726 73.9736 3.1441C73.7029 2.55061 73.3019 2.03107 72.8027 1.62707ZM70.9628 7.00168C70.7336 7.22353 70.4637 7.39539 70.1692 7.50707C69.8747 7.61875 69.5615 7.66798 69.2483 7.65184H63.3522V2.92738H69.2483C69.8728 2.90126 70.4842 3.11765 70.9628 3.53419C71.1952 3.75983 71.376 4.03656 71.4918 4.34408C71.6076 4.6516 71.6554 4.98208 71.6319 5.31128C71.655 5.62758 71.6066 5.94512 71.4904 6.23859C71.3743 6.53207 71.1936 6.79337 70.9628 7.00168Z" fill="white"/>
<path d="M93 0.5H78.7406V2.8839H84.5113V14.5H87.2712V2.8839H93V0.5Z" fill="white"/>
</g>
<defs>
<clipPath id="clip0_308_3453">
<rect width="93" height="14" fill="white" transform="translate(0 0.5)"/>
</clipPath>
</defs>
</svg>
