<svg width="900" height="900" viewBox="0 0 900 900" fill="none" xmlns="http://www.w3.org/2000/svg">
<rect width="900" height="900" fill="#4BFADD"/>
<path d="M174.083 504.432H267.96V752.95H309.678V504.432H403.453V468.06H174.083V504.432Z" fill="#00005F"/>
<path d="M215.635 147.725H173.842V432.66H403.648V395.832H215.635V147.725Z" fill="#00005F"/>
<path d="M575.319 723.649L468.157 468.122H422.628L544.419 752.923H606.191L728.445 468.122H682.879L575.319 723.649Z" fill="#00005F"/>
<path d="M477.809 388.583L557.205 388.449L592.656 433.812H629.137L727.408 147.716L429.962 241.977L429.554 280.046L477.262 309.321L477.809 388.583ZM604.746 393.779L576.368 354.996L533.981 355.068L664.227 230.193L604.746 393.779ZM640.744 209.417L511.351 333.516L511.064 292.447L469.697 267.065L640.744 209.417Z" fill="#00005F"/>
</svg>
