<?xml version="1.0" encoding="utf-8"?>
<!-- Generator: Adobe Illustrator 25.4.1, SVG Export Plug-In . SVG Version: 6.00 Build 0)  -->
<svg version="1.1" id="Layer_1" xmlns="http://www.w3.org/2000/svg" xmlns:xlink="http://www.w3.org/1999/xlink" x="0px" y="0px"
	 viewBox="0 0 575 168.6" style="enable-background:new 0 0 575 168.6;" xml:space="preserve">
<style type="text/css">
	.st0{fill:#090304;}
	.st1{fill:#136EF6;}
</style>
<g>
	<path class="st0" d="M401.6,46.3h-50.9c-1.5,0-2.5,0.9-2.5,2.5v4c0,1.5,0.9,2.5,2.5,2.5h20.7v68.7c0,1.4,0.9,2.3,2.5,2.3h4.5
		c1.4,0,2.3-0.9,2.3-2.3V55.2h20.8c1.4,0,2.3-0.9,2.3-2.5v-4C403.9,47.2,403,46.3,401.6,46.3z"/>
	<path class="st0" d="M85,90.2c-2.7-3.1-6.9-5.4-12.3-7L57,78.7c-1.7-0.5-3.4-1.1-4.9-1.7c-1.4-0.6-2.6-1.3-3.6-2.2
		c-0.9-0.8-1.7-1.9-2.2-3.1c-0.5-1.2-0.8-2.8-0.8-4.6V66c0-3.5,1.1-6.2,3.2-8.2c2.2-2,5.3-3,9.3-3h24.1c1.5,0,2.5-0.9,2.5-2.3v-3.9
		c0-1.4-0.9-2.3-2.5-2.3H56.7c-3,0-5.8,0.5-8.2,1.4c-2.5,0.9-4.7,2.2-6.5,3.9c-1.8,1.7-3.3,3.7-4.3,6.1c-1,2.3-1.5,4.9-1.5,7.8v2.7
		c0,4.8,1.4,8.8,4.1,12c2.7,3.1,6.5,5.4,11.3,6.8l15.4,4.4c2.1,0.6,4,1.3,5.6,1.9c1.6,0.7,2.9,1.5,4,2.5c1.1,1,1.9,2.1,2.4,3.5
		c0.6,1.4,0.9,3.1,0.9,5.1v2.4c0,3.4-1,6-3.1,8c-2.1,2-5.2,2.9-9.2,2.9H42c-1.5,0-2.5,0.9-2.5,2.3v3.9c0,1.4,0.9,2.3,2.5,2.3h27
		c6.1,0,11-1.8,14.7-5.3c3.6-3.5,5.5-8.2,5.5-13.8v-3.7C89.2,97.7,87.8,93.3,85,90.2z"/>
	<path class="st0" d="M229.2,46.3h-4.5c-1.5,0-2.5,0.9-2.5,2.5v75.1c0,1.4,0.9,2.3,2.5,2.3h4.5c1.4,0,2.3-0.9,2.3-2.3V48.8
		C231.6,47.2,230.7,46.3,229.2,46.3z"/>
	<path class="st0" d="M174.3,46.3h-4.5c-1.5,0-2.5,0.9-2.5,2.5v34.1c-0.1,0-0.3-0.1-0.4-0.1h-28.7c-0.1,0-0.2,0-0.3,0v-34
		c0-1.5-0.9-2.5-2.3-2.5H131c-1.5,0-2.5,0.9-2.5,2.5v75.1c0,1.4,0.9,2.3,2.5,2.3h4.5c1.4,0,2.3-0.9,2.3-2.3V91.2h29
		c0.2,0,0.3-0.1,0.4-0.1v32.8c0,1.4,0.9,2.3,2.5,2.3h4.5c1.4,0,2.3-0.9,2.3-2.3V48.8C176.7,47.2,175.8,46.3,174.3,46.3z"/>
	<path class="st0" d="M311.7,46.3h-32.4c-1.5,0-2.1,1.3-2.1,2.8l-0.1,74.8c0,1.4,0.9,2.3,2.5,2.3h4.5c1.4,0,2.3-0.9,2.3-2.3V91.2
		h22.2c1.3,0,2.1-0.9,2.1-2.3v-3.8c0-1.4-0.8-2.3-2.1-2.3h-22.2V55.2h25.2c1.4,0,2.3-0.9,2.3-2.5v-4C314,47.2,313.1,46.3,311.7,46.3
		z"/>
</g>
<path class="st0" d="M490.2,56.5l-28.8,37c-0.1,0.2-0.2,0.3-0.2,0.5v4.2c0,0.5,0.4,0.9,0.9,0.9h25.8c0.5,0,0.9,0.4,0.9,0.9V115
	c0,0.5,0.4,0.9,0.9,0.9h5.5c0.5,0,0.9-0.4,0.9-0.9V57c0-0.5-0.4-0.9-0.9-0.9h-4.2C490.7,56.2,490.4,56.3,490.2,56.5z M471,91.1
	l16.2-20.7c0.5-0.7,1.6-0.3,1.6,0.5v20.7c0,0.5-0.4,0.9-0.9,0.9h-16.2C470.9,92.6,470.5,91.7,471,91.1z"/>
<path class="st1" d="M484.1,34.2c-28.7,0-52.1,23.4-52.1,52.1c0,28.7,23.4,52.1,52.1,52.1c28.7,0,52.1-23.4,52.1-52.1
	C536.2,57.5,512.8,34.2,484.1,34.2z M528.8,86.3c0,24.6-20,44.7-44.7,44.7s-44.7-20.1-44.7-44.7s20-44.7,44.7-44.7
	S528.8,61.6,528.8,86.3z"/>
<path class="st0" d="M538.9,48c0,0.1,0,0.2,0,0.2c0,0.1,0,0.1,0,0.2c0,0,0,0.1-0.1,0.1c0,0,0,0-0.1,0h-1.5v4.8c0,0,0,0.1,0,0.1
	c0,0-0.1,0-0.1,0.1s-0.1,0-0.2,0s-0.2,0-0.3,0c-0.1,0-0.2,0-0.3,0s-0.1,0-0.2,0s-0.1,0-0.1-0.1c0,0,0-0.1,0-0.1v-4.8h-1.5
	c0,0-0.1,0-0.1,0c0,0,0,0-0.1-0.1c0,0,0-0.1,0-0.2c0-0.1,0-0.1,0-0.2c0-0.1,0-0.2,0-0.2s0-0.1,0-0.2c0,0,0-0.1,0.1-0.1
	c0,0,0,0,0.1,0h4.2c0,0,0.1,0,0.1,0c0,0,0,0,0.1,0.1c0,0,0,0.1,0,0.2S538.9,47.9,538.9,48z"/>
<path class="st0" d="M546.6,53.2C546.6,53.3,546.5,53.3,546.6,53.2c0,0.1-0.1,0.1-0.1,0.1c0,0-0.1,0-0.2,0s-0.2,0-0.3,0
	c-0.1,0-0.2,0-0.3,0c-0.1,0-0.1,0-0.2,0s-0.1,0-0.1-0.1c0,0,0-0.1,0-0.1v-4.8h0l-1.7,4.8c0,0,0,0.1-0.1,0.1c0,0-0.1,0-0.1,0.1
	c0,0-0.1,0-0.2,0c-0.1,0-0.2,0-0.3,0c-0.1,0-0.2,0-0.3,0c-0.1,0-0.1,0-0.2,0c0,0-0.1,0-0.1-0.1c0,0,0-0.1-0.1-0.1l-1.7-4.8h0v4.8
	c0,0,0,0.1,0,0.1c0,0,0,0-0.1,0.1s-0.1,0-0.2,0c-0.1,0-0.2,0-0.3,0c-0.1,0-0.2,0-0.3,0c-0.1,0-0.1,0-0.2,0c0,0-0.1,0-0.1-0.1
	c0,0,0-0.1,0-0.1V48c0-0.2,0-0.3,0.1-0.4c0.1-0.1,0.2-0.1,0.3-0.1h0.8c0.1,0,0.3,0,0.4,0c0.1,0,0.2,0.1,0.3,0.1
	c0.1,0.1,0.1,0.1,0.2,0.2s0.1,0.2,0.1,0.3l1.3,3.5h0l1.3-3.5c0-0.1,0.1-0.2,0.1-0.3c0-0.1,0.1-0.2,0.2-0.2s0.1-0.1,0.2-0.1
	s0.2,0,0.3,0h0.8c0.1,0,0.2,0,0.2,0s0.1,0.1,0.1,0.1s0.1,0.1,0.1,0.2c0,0.1,0,0.1,0,0.2V53.2z"/>
</svg>
