<svg width="232" height="40" viewBox="0 0 232 40" fill="none" xmlns="http://www.w3.org/2000/svg">
<g clip-path="url(#clip0_549_5007)">
<path d="M58.4076 23.1826C58.4076 24.3776 58.2092 25.4667 57.8123 26.45C57.4533 27.4117 56.8781 28.2773 56.1313 28.9797C55.4073 29.6823 54.5084 30.2215 53.4347 30.5971C52.3841 30.9727 51.17 31.1605 49.7925 31.1605C48.4388 31.1605 47.2249 30.9727 46.1506 30.5971C45.1 30.2215 44.2011 29.6828 43.454 28.981C42.7225 28.2657 42.1504 27.4031 41.7752 26.45C41.4008 25.4676 41.2136 24.3785 41.2136 23.1826V9.34048C41.4553 9.27826 41.7005 9.23137 41.948 9.20006C42.2819 9.12912 42.6224 9.09381 42.9637 9.09474C43.6405 9.09474 44.1425 9.22361 44.4697 9.48133C44.7969 9.73906 44.9602 10.1957 44.9596 10.8513V22.972C44.9596 24.6351 45.4149 25.8998 46.3256 26.7663C47.2593 27.6331 48.4149 28.0665 49.7925 28.0665C50.4932 28.0665 51.1353 27.9612 51.7188 27.7506C52.2902 27.5241 52.8132 27.1901 53.2598 26.7668C53.703 26.3449 54.0414 25.8179 54.275 25.1858C54.5319 24.5533 54.6603 23.8155 54.6603 22.9724V9.34048C54.902 9.2783 55.1473 9.2314 55.3948 9.20006C55.7287 9.12914 56.0691 9.09384 56.4104 9.09474C57.0875 9.09474 57.5895 9.22361 57.9164 9.48133C58.2433 9.73906 58.407 10.1957 58.4076 10.8513V23.1826Z" fill="white"/>
<path d="M67.384 30.5969C67.2207 30.6671 66.9872 30.7249 66.6837 30.7703C66.3739 30.8439 66.0563 30.8792 65.738 30.8756C65.0609 30.8756 64.5589 30.7469 64.232 30.4895C63.9051 30.232 63.7417 29.7986 63.7417 29.1893V7.86633C63.9053 7.81953 64.1389 7.76087 64.4424 7.69037C64.7641 7.61817 65.093 7.58284 65.4227 7.58506C66.1 7.58506 66.5897 7.71392 66.8915 7.97165C67.2184 8.22908 67.3818 8.66247 67.3818 9.27183V21.0397L74.5964 13.9078C75.3438 13.9312 75.9274 14.1069 76.3473 14.4348C76.7908 14.7625 77.0126 15.184 77.0126 15.6995C77.0162 16.113 76.8676 16.5133 76.5953 16.8237C76.3148 17.1516 75.9061 17.5498 75.3692 18.0181L70.7118 22.1289L77.9263 28.7338C77.8563 29.4128 77.6462 29.9513 77.296 30.3495C76.9688 30.7251 76.5018 30.9129 75.895 30.9129C75.45 30.9189 75.0126 30.7971 74.6344 30.5618C74.2842 30.3275 73.899 29.9762 73.4788 29.5078L67.3874 23.0433L67.384 30.5969Z" fill="white"/>
<path d="M85.0295 30.5975C84.8659 30.6677 84.6323 30.7255 84.3288 30.7708C84.0191 30.8444 83.7017 30.8798 83.3835 30.8761C82.7061 30.8761 82.2041 30.7474 81.8775 30.49C81.5509 30.2326 81.3875 29.7992 81.3872 29.1898V17.6676C81.3872 17.0817 81.504 16.6132 81.7376 16.2621C81.9709 15.8865 82.3444 15.5352 82.8582 15.2081C83.5353 14.7863 84.3993 14.435 85.4503 14.1541C86.5012 13.8733 87.657 13.7327 88.9176 13.7324C90.9719 13.7324 91.9991 14.3181 91.9991 15.4894C91.9996 15.7643 91.9519 16.0372 91.8583 16.2955C91.7722 16.5152 91.6668 16.7268 91.5433 16.9278C91.3095 16.881 91.0176 16.8342 90.6676 16.7874C90.296 16.7392 89.9217 16.7158 89.547 16.7172C88.613 16.7172 87.7608 16.8225 86.9904 17.0331C86.2202 17.2207 85.5666 17.4662 85.0295 17.7699V30.5975Z" fill="white"/>
<path d="M106.037 15.1721C104.749 14.2108 103.022 13.7319 100.856 13.7354C99.9615 13.7334 99.0686 13.8131 98.1884 13.9733C97.3542 14.1181 96.602 14.3556 95.9532 14.6758C95.5311 14.8722 95.2118 15.0893 95.0058 15.3476C94.8204 15.6076 94.7275 15.9366 94.7275 16.3292C94.7279 16.6508 94.8094 16.967 94.9643 17.2485C95.1271 17.4991 95.3283 17.7225 95.5605 17.9103C96.3105 17.5598 97.0857 17.2662 97.8795 17.0318C98.7524 16.7741 99.658 16.6453 100.568 16.6495C101.762 16.6495 102.689 16.887 103.338 17.352C104.018 17.8171 104.358 18.5716 104.358 19.5944V20.3689L99.4861 20.8647C97.622 21.0511 96.18 21.5581 95.1807 22.3733C94.2022 23.1898 93.708 24.3782 93.708 25.9176C93.708 27.6538 94.3361 28.9661 95.6032 29.8546C96.8802 30.7435 98.6623 31.1877 100.917 31.1877C102.184 31.1877 103.296 31.0637 104.243 30.8054C105.202 30.5454 105.984 30.2472 106.592 29.8953C107.014 29.6353 107.344 29.3683 107.57 29.0788C107.83 28.7793 107.962 28.3555 107.962 27.8181V19.6356C107.963 17.5999 107.314 16.1121 106.037 15.1721ZM104.358 27.5407C104.101 27.7265 103.668 27.9021 103.06 28.0677C102.453 28.2328 101.742 28.3156 100.918 28.3156C99.6818 28.3156 98.7755 28.0989 98.1884 27.675C97.6116 27.2304 97.3127 26.621 97.3127 25.8548C97.3127 25.1007 97.5805 24.5546 98.1162 24.2018C98.6623 23.8295 99.4658 23.5816 100.535 23.4577L104.357 23.0754L104.358 27.5407Z" fill="white"/>
<path d="M116.462 30.5977C116.299 30.6679 116.066 30.7277 115.762 30.7711C115.441 30.8459 115.111 30.8813 114.782 30.8764C114.105 30.8764 113.603 30.7477 113.276 30.4902C112.949 30.2328 112.785 29.7994 112.786 29.1901V14.3299L113.486 14.1544C113.819 14.0809 114.16 14.0456 114.502 14.0491C115.178 14.0491 115.668 14.1779 115.97 14.4356C116.297 14.6931 116.46 15.138 116.46 15.7705L116.462 30.5977Z" fill="white"/>
<path d="M112.4 9.16494C112.4 8.55616 112.61 8.05256 113.03 7.65413C113.451 7.23171 113.988 7.02051 114.641 7.02051C115.295 7.02051 115.82 7.23128 116.217 7.65283C116.614 8.05097 116.812 8.55457 116.813 9.16364C116.813 9.7727 116.615 10.288 116.217 10.7095C115.821 11.1077 115.295 11.3068 114.641 11.3068C113.987 11.3068 113.45 11.1077 113.03 10.7095C112.61 10.2886 112.4 9.77371 112.4 9.16494Z" fill="white"/>
<path d="M132.535 20.0225C132.535 18.8748 132.208 18.0316 131.554 17.4928C130.924 16.9542 130.06 16.6849 128.962 16.6849C128.146 16.6849 127.41 16.7902 126.756 17.0009C126.187 17.1854 125.636 17.4206 125.11 17.7038V30.5972C124.947 30.6675 124.713 30.7273 124.41 30.7706C124.1 30.8442 123.782 30.8796 123.464 30.8759C122.787 30.8759 122.286 30.7472 121.958 30.4898C121.631 30.2323 121.468 29.7989 121.468 29.1896V17.5955C121.468 17.0569 121.573 16.6235 121.783 16.2953C121.993 15.9671 122.343 15.6391 122.834 15.3115C123.488 14.9136 124.34 14.5506 125.39 14.2224C126.441 13.8941 127.631 13.7302 128.962 13.7305C131.227 13.7305 133.002 14.2458 134.285 15.2764C135.57 16.2847 136.213 17.8195 136.213 19.8807V30.5972C136.05 30.6675 135.816 30.7252 135.512 30.7706C135.19 30.8429 134.861 30.8782 134.531 30.8759C133.855 30.8759 133.353 30.7472 133.026 30.4898C132.698 30.2323 132.535 29.7989 132.535 29.1896L132.535 20.0225Z" fill="white"/>
<path d="M152.305 15.1721C151.028 14.2108 149.301 13.7319 147.124 13.7354C146.233 13.733 145.343 13.8126 144.467 13.9733C143.622 14.1181 142.87 14.3556 142.22 14.6759C141.798 14.8722 141.489 15.0893 141.272 15.3476C141.087 15.6077 140.994 15.9366 140.994 16.3293C140.993 16.6525 141.079 16.9701 141.242 17.2489C141.402 17.502 141.603 17.7257 141.839 17.9103C142.584 17.558 143.356 17.2643 144.147 17.0318C145.024 16.7734 145.933 16.6446 146.846 16.6495C148.031 16.6495 148.957 16.887 149.606 17.3521C150.286 17.8171 150.626 18.5716 150.626 19.5944V20.3689L145.754 20.8647C143.89 21.0511 142.458 21.5581 141.449 22.3734C140.47 23.1899 139.976 24.3782 139.976 25.9176C139.976 27.6538 140.614 28.9661 141.871 29.8546C143.158 30.7433 144.933 31.1877 147.196 31.1877C148.453 31.1877 149.565 31.0638 150.522 30.8054C151.48 30.5471 152.263 30.2472 152.871 29.8953C153.283 29.6353 153.613 29.3683 153.849 29.0788C154.109 28.7793 154.231 28.3555 154.231 27.8181V19.6356C154.231 17.6001 153.589 16.1123 152.305 15.1721ZM150.626 27.5407C150.369 27.7265 149.937 27.9022 149.33 28.0677C148.724 28.2333 148.013 28.3159 147.198 28.3156C145.962 28.3156 145.045 28.0989 144.468 27.6751C143.881 27.2304 143.593 26.621 143.593 25.8548C143.593 25.1007 143.86 24.5546 144.396 24.2018C144.932 23.8297 145.735 23.5817 146.806 23.4577L150.628 23.0755L150.626 27.5407Z" fill="white"/>
<path d="M157.131 28.8044C157.131 28.1254 157.33 27.5633 157.727 27.1181C158.147 26.6731 158.719 26.4505 159.443 26.4502C160.19 26.4502 160.762 26.6728 161.159 27.1181C161.555 27.5633 161.754 28.1254 161.754 28.8044C161.754 29.4834 161.555 30.0455 161.159 30.4907C160.762 30.936 160.19 31.1584 159.443 31.1581C158.719 31.1581 158.147 30.9357 157.727 30.4907C157.33 30.0458 157.132 29.4837 157.131 28.8044Z" fill="white"/>
<path d="M167.041 30.8766C166.363 30.8766 165.861 30.7479 165.535 30.4904C165.209 30.233 165.046 29.7996 165.045 29.1902V7.86731C165.208 7.82051 165.441 7.76185 165.745 7.69135C166.067 7.6191 166.396 7.58377 166.726 7.58604C167.403 7.58604 167.905 7.7149 168.232 7.97263C168.559 8.23035 168.722 8.66374 168.722 9.27281V30.597C168.484 30.6789 168.238 30.737 167.988 30.7704C167.678 30.8444 167.36 30.88 167.041 30.8766Z" fill="white"/>
<path d="M177.437 25.8526C177.437 26.696 177.682 27.2934 178.172 27.6447C178.661 27.9961 179.35 28.1712 180.239 28.17C180.665 28.1658 181.088 28.1067 181.499 27.994C181.898 27.8938 182.285 27.7525 182.655 27.5723C182.822 27.7643 182.963 27.977 183.075 28.2051C183.215 28.4391 183.285 28.7201 183.285 29.048C183.285 29.6571 182.97 30.1607 182.34 30.5589C181.733 30.9567 180.799 31.1558 179.538 31.1561C177.787 31.1561 176.387 30.7696 175.336 29.9967C174.309 29.2002 173.795 27.9 173.795 26.0962V9.69185C173.959 9.64505 174.192 9.58654 174.495 9.5185C174.817 9.44632 175.146 9.41099 175.476 9.41318C176.153 9.41318 176.643 9.5419 176.947 9.79933C177.273 10.0573 177.437 10.4907 177.437 11.0995V14.5775H182.865C182.959 14.7179 183.041 14.917 183.11 15.1747C183.204 15.4336 183.251 15.7071 183.25 15.9826C183.25 16.9898 182.818 17.4934 181.954 17.4934H177.437V25.8526Z" fill="white"/>
<path d="M15.4193 18.8548C14.2451 17.728 12.5762 16.84 10.465 16.2111L8.43455 15.6117C7.22017 15.2485 6.65295 14.9083 6.39633 14.6916C6.13713 14.4645 6.0153 14.1646 6.0153 13.7516C6.0153 13.2142 6.211 12.8319 6.65381 12.5117C7.16877 12.1394 7.96193 11.943 9.01258 11.943C10.0425 11.943 10.9694 12.0875 11.7934 12.3764C12.6579 12.6547 13.3387 12.9754 13.8243 13.3481L14.4114 13.7923L15.0192 13.3789C15.4094 13.1188 15.7448 12.7844 16.0064 12.3946C16.3256 11.93 16.4902 11.3718 16.4902 10.7621C16.4902 10.0803 16.2125 9.43977 15.6871 8.90237C15.2646 8.41653 14.6672 8.01348 13.9362 7.7036C13.318 7.40413 12.5145 7.16619 11.6081 7.01017C10.6754 6.82575 9.72651 6.73573 8.77584 6.74147C6.211 6.74147 4.13044 7.36122 2.57521 8.58079C0.957765 9.83416 0.144291 11.5803 0.144291 13.7503C0.144291 14.6903 0.278214 15.548 0.555996 16.2921C0.885619 17.0671 1.31849 17.718 1.88486 18.2762C2.45767 18.8207 3.10271 19.2831 3.80168 19.6505C4.58336 20.0274 5.39203 20.3451 6.22094 20.6009L8.85619 21.4174C10.1129 21.7893 10.7104 22.2028 10.9985 22.4715C11.3282 22.7917 11.4828 23.2048 11.4828 23.763C11.4828 24.4243 11.2668 24.9305 10.7916 25.3336C10.2866 25.7778 9.42169 25.9949 8.20602 25.9949C7.01151 25.9949 5.99154 25.7986 5.14696 25.3956C4.29201 24.9821 3.61246 24.5379 3.12818 24.0954L2.63526 23.639L2.01705 23.9077C1.49779 24.1391 1.03722 24.485 0.669615 24.9197C0.226373 25.4367 0 26.0673 0 26.7907C0 27.4932 0.267846 28.1441 0.782801 28.7336C1.22561 29.2398 1.83345 29.674 2.58514 30.0337C3.31654 30.3748 4.17148 30.6539 5.12925 30.8502C6.07708 31.0565 7.13809 31.1601 8.28292 31.1601C9.66319 31.1601 10.9182 30.9868 12.0116 30.6539C13.1651 30.3128 14.1436 29.8166 14.9264 29.1656C15.7195 28.5043 16.3377 27.709 16.7494 26.7894C17.1814 25.8697 17.3975 24.8465 17.3975 23.7617C17.397 21.7169 16.7378 20.0657 15.4193 18.8548ZM15.8115 26.3668C15.4612 27.1417 14.9475 27.8031 14.2662 28.3717C13.5971 28.9294 12.7421 29.3633 11.7122 29.6632C10.7131 29.9729 9.56973 30.1279 8.28205 30.1282C7.2111 30.1282 6.2326 30.035 5.33618 29.8387C4.45056 29.6528 3.6885 29.4153 3.02925 29.105C2.40068 28.8055 1.90603 28.4549 1.5561 28.051C1.20574 27.6583 1.03077 27.2349 1.03077 26.7907C1.03077 26.3139 1.17507 25.9239 1.45328 25.5919C1.71891 25.2751 2.05375 25.0241 2.43178 24.8582C2.99728 25.3748 3.74941 25.8606 4.7089 26.3256C5.6874 26.8024 6.86161 27.0282 8.21077 27.0282C9.68392 27.0282 10.7652 26.7287 11.4655 26.118C12.1658 25.5074 12.5162 24.7229 12.5162 23.7621C12.5162 22.9252 12.2483 22.2452 11.7131 21.7252C11.1778 21.2051 10.3224 20.7747 9.1586 20.425L6.53198 19.6189C5.76308 19.3808 5.01231 19.0874 4.28553 18.7408C3.63752 18.3893 3.08066 17.9967 2.60675 17.5421C2.14596 17.0801 1.77913 16.5327 1.52672 15.9303C1.28955 15.2997 1.17636 14.5763 1.17636 13.7499C1.17636 11.9001 1.85634 10.4535 3.20681 9.39947C4.58693 8.31483 6.44457 7.7741 8.77973 7.77728C9.6715 7.77109 10.5617 7.85413 11.437 8.02518C12.2505 8.16993 12.9512 8.37666 13.5383 8.65576C14.1457 8.9158 14.6093 9.23434 14.9389 9.6062C15.2892 9.95768 15.4642 10.3399 15.4642 10.7634C15.4642 11.1664 15.3614 11.5179 15.145 11.8174C14.963 12.0981 14.7245 12.3374 14.4447 12.5199C13.8679 12.0757 13.0955 11.7038 12.1373 11.3931C11.1998 11.0728 10.1699 10.9072 9.01647 10.9072C7.73945 10.9072 6.74021 11.1673 6.03992 11.6821C5.33964 12.197 4.98928 12.8809 4.98928 13.749C4.98928 14.4515 5.23639 15.0301 5.73061 15.4743C6.21489 15.8982 7.02663 16.27 8.14079 16.6012L10.1803 17.1901C12.1373 17.779 13.6548 18.588 14.7328 19.6171C15.8249 20.63 16.3706 22.0043 16.3706 23.7608C16.368 24.7027 16.1816 25.5714 15.8115 26.3668Z" fill="white"/>
<path d="M36.1224 12.5522C35.5971 12.1492 34.8963 11.9424 33.9796 11.9424C33.5812 11.9441 33.1842 11.9892 32.7955 12.0768C32.5424 12.1116 32.2913 12.1601 32.0434 12.222L31.2709 12.4183V25.7061C31.096 25.7681 30.9003 25.8405 30.6735 25.9025C30.2099 26.0368 29.6124 26.1092 28.9022 26.1092C27.8827 26.1092 27.0878 25.8925 26.5538 25.479C26.1317 25.1275 25.9058 24.4146 25.9058 23.3814V14.7014C25.9058 13.7406 25.6073 13.0172 25.0202 12.5522C24.545 12.1492 23.846 11.9424 22.9085 11.9424C22.5138 11.9407 22.12 11.9823 21.7343 12.0664C21.471 12.108 21.21 12.1633 20.9524 12.2319L20.2007 12.4486V23.4538C20.2007 26.0884 21.0038 28.0725 22.5798 29.3436C24.1246 30.5523 26.2363 31.1638 28.8629 31.1638C30.2842 31.1638 31.5513 31.0087 32.6119 30.6988C33.704 30.3889 34.5793 30.0487 35.2696 29.6552C35.9492 29.2218 36.4023 28.7767 36.6499 28.2683C36.8866 27.7916 37.0102 27.2143 37.0102 26.5426V14.7014C37.008 13.7388 36.7095 13.0172 36.1224 12.5522ZM35.9781 26.543C35.9781 27.06 35.8956 27.4835 35.731 27.8038C35.566 28.1344 35.2363 28.4538 34.7525 28.7546C34.1447 29.1057 33.3307 29.4259 32.3332 29.705C31.3547 29.9841 30.2008 30.1289 28.862 30.1289C26.4622 30.1289 24.5774 29.6019 23.2278 28.5479C21.8995 27.4627 21.2335 25.7646 21.2297 23.4538V13.2257C21.4601 13.1673 21.6934 13.1216 21.9287 13.0888C22.2494 13.013 22.5778 12.9748 22.9072 12.9752C23.5872 12.9752 24.0814 13.1096 24.3799 13.3679C24.7097 13.6262 24.8746 14.0704 24.8746 14.7005V23.3814C24.8746 24.735 25.2248 25.7063 25.9252 26.2951C26.6463 26.8533 27.6351 27.1424 28.9018 27.1424C29.7157 27.1424 30.4056 27.06 30.962 26.8945C31.5284 26.7294 31.9712 26.5534 32.3013 26.3675V13.224C32.4866 13.1806 32.7134 13.1308 33.0016 13.0896C33.3221 13.0132 33.6506 12.9751 33.9801 12.9761C34.66 12.9761 35.1547 13.1104 35.4839 13.3687C35.8131 13.627 35.9785 14.0713 35.9785 14.7014L35.9781 26.543Z" fill="white"/>
<path d="M231.581 9.01972C231.345 7.57739 230.312 5.10185 226.157 3.85627C220.995 2.29866 215.53 4.62295 215.53 4.62295C214.195 4.99523 212.914 5.55778 211.708 6.2421C210.504 6.93243 209.361 7.72358 208.289 8.60713C207.89 8.93694 207.49 9.27672 207.109 9.61953C206.681 10.0061 206.084 10.0859 206.236 9.72138C207.368 6.85709 209.575 4.19215 212.641 2.33593C219.137 -1.59928 227.023 -0.444285 230.247 4.91072C230.999 6.15998 231.455 7.56571 231.581 9.01972Z" fill="url(#paint0_linear_549_5007)"/>
<path d="M229.258 17.1441C229.729 16.3679 231.264 13.4477 228.64 11.0657C225.496 8.21617 218.888 10.6154 218.888 10.6154C217.555 10.9777 216.273 11.5503 215.067 12.2346C213.863 12.9249 212.719 13.7161 211.648 14.5996C210.569 15.4798 209.547 16.4286 208.588 17.4401C208.2 17.8522 207.009 18.6302 206.401 17.8362C205.804 17.0336 206.911 15.088 207.365 14.5831C208.286 13.556 209.266 12.5849 210.303 11.6751C211.343 10.7687 212.457 9.94987 213.632 9.22684C214.802 8.50698 216.058 7.90066 217.378 7.49544C216.043 7.86815 214.772 8.432 213.566 9.11633C212.362 9.80665 211.218 10.5978 210.147 11.4814C209.261 12.1986 208.417 12.9655 207.617 13.7783C207.547 13.8498 207.012 14.4245 206.596 14.6607C205.983 15.0018 205.421 14.9741 205.213 14.5805C204.622 13.1503 205.787 11.3734 206.562 10.5899C207.163 9.97358 207.801 9.37289 208.456 8.80428C209.491 7.89488 210.602 7.07542 211.775 6.35475C212.955 5.63445 214.211 5.0277 215.529 4.62334C215.529 4.62334 220.994 2.29905 226.157 3.85667C230.311 5.10224 231.344 7.57778 231.58 9.02011C231.58 9.03008 231.588 9.04135 231.586 9.05132C231.83 11.7618 230.99 14.6265 229.258 17.1441Z" fill="url(#paint1_linear_549_5007)"/>
<path d="M229.258 17.144C229.17 17.274 229.121 17.3377 229.121 17.3377C227.918 19.028 226.301 20.5565 224.339 21.744C223.632 22.1735 222.913 22.613 222.122 22.8665C220.832 23.2795 218.25 23.901 217.197 22.2338C216.534 21.1785 219.001 20.3645 220.975 19.3205C222.839 18.3319 225.204 15.7701 223.794 13.9724C222.685 12.5613 220.035 13.9581 219.375 14.2112C216.996 15.1179 214.463 16.8454 212.38 18.3207C211.811 18.637 210.997 19.1931 210.482 19.3348C210.228 19.4111 209.155 19.6477 208.772 19.2698C208.549 19.0566 208.418 18.5417 208.769 17.9007C209.039 17.411 209.746 16.7487 209.898 16.5975C210.511 15.9725 211.149 15.3716 211.815 14.7946C212.85 13.8852 213.961 13.0657 215.134 12.345C216.315 11.6269 217.561 11.0189 218.89 10.6154C218.89 10.6154 225.497 8.21611 228.642 11.0657C231.264 13.4476 229.729 16.3678 229.258 17.144Z" fill="url(#paint2_linear_549_5007)"/>
<path d="M213.997 24.9681C213.112 26.024 212.163 27.0237 211.154 27.9615C210.15 28.9076 209.067 29.7661 207.917 30.5277C206.765 31.2861 205.547 31.9314 204.236 32.3913H204.226C203.627 32.5984 197.534 34.6796 193.504 32.4194C189.818 30.3435 190.37 27.0081 190.707 25.8254C190.729 25.7759 191.915 21.5889 196.791 18.3862C197.482 17.9328 198.173 17.4661 198.963 17.1753C200.151 16.7375 202.808 16.0207 203.914 17.6425C204.606 18.6752 202.175 19.5841 200.238 20.6836C198.413 21.7372 196.125 24.3809 197.599 26.1279C198.758 27.5004 201.351 26.0152 202.013 25.7378C204.356 24.7549 206.833 22.9329 208.867 21.3952C209.421 21.0554 210.216 20.4734 210.725 20.3117C210.978 20.2316 212.041 19.9516 212.438 20.3191C212.66 20.5293 212.811 21.0277 212.484 21.6882C212.234 22.1909 211.546 22.8674 211.399 23.0317C210.803 23.6714 210.187 24.3002 209.553 24.8983C208.546 25.8414 207.463 26.6997 206.316 27.4644C205.164 28.2129 203.926 28.8574 202.625 29.3189C203.945 28.8985 205.2 28.2948 206.382 27.5676C207.561 26.8363 208.676 26.0061 209.715 25.086C210.762 24.1682 211.75 23.1867 212.676 22.1471C213.054 21.7198 214.219 20.8903 214.849 21.6704C215.48 22.4505 214.439 24.4329 213.997 24.9681Z" fill="url(#paint3_linear_549_5007)"/>
<path d="M215.291 29.7848C214.254 32.679 212.143 35.4189 209.131 37.3817C202.775 41.5328 194.864 40.6569 191.453 35.4055C189.639 32.5997 189.466 29.0948 190.708 25.8275C190.37 27.0102 189.819 30.3456 193.504 32.4215C197.534 34.6817 203.627 32.6005 204.226 32.3934H204.236C205.556 31.973 206.802 31.3589 207.983 30.6316C209.163 29.9144 210.279 29.0636 211.327 28.1505C212.178 27.3998 213.001 26.608 213.775 25.7742C213.838 25.6966 214.352 25.1137 214.763 24.8584C215.358 24.5 215.93 24.5026 216.146 24.8931C216.782 26.3055 215.689 28.1115 214.945 28.9167C214.359 29.5668 213.744 30.1735 213.109 30.7738C212.102 31.7171 211.018 32.5754 209.87 33.3399C208.718 34.0983 207.48 34.7428 206.18 35.194C207.499 34.784 208.755 34.1703 209.936 33.4431C211.117 32.7094 212.235 31.8794 213.28 30.9614C213.664 30.6251 214.049 30.268 214.424 29.9113C214.841 29.5057 215.425 29.4181 215.291 29.7848Z" fill="url(#paint4_linear_549_5007)"/>
<path d="M110.222 18.5742C110.213 18.5938 110.209 18.6153 110.211 18.6366" stroke="white" stroke-width="0.1" stroke-miterlimit="10"/>
</g>
<defs>
<linearGradient id="paint0_linear_549_5007" x1="206.212" y1="4.9779" x2="231.581" y2="4.9779" gradientUnits="userSpaceOnUse">
<stop stop-color="#EAD11C"/>
<stop offset="0.6" stop-color="#EACF1C"/>
<stop offset="1" stop-color="#E0AF1C"/>
</linearGradient>
<linearGradient id="paint1_linear_549_5007" x1="205.051" y1="10.7494" x2="231.628" y2="10.7494" gradientUnits="userSpaceOnUse">
<stop stop-color="#339833"/>
<stop offset="0.5" stop-color="#327935"/>
<stop offset="1" stop-color="#2B6545"/>
</linearGradient>
<linearGradient id="paint2_linear_549_5007" x1="208.557" y1="18.7996" x2="230.325" y2="14.9735" gradientUnits="userSpaceOnUse">
<stop offset="0.17" stop-color="#C54432"/>
<stop offset="0.67" stop-color="#B73432"/>
<stop offset="1" stop-color="#A33432"/>
</linearGradient>
<linearGradient id="paint3_linear_549_5007" x1="191.489" y1="30.7851" x2="212.982" y2="18.3509" gradientUnits="userSpaceOnUse">
<stop stop-color="#2A54E2"/>
<stop offset="1" stop-color="#2176F7"/>
</linearGradient>
<linearGradient id="paint4_linear_549_5007" x1="189.909" y1="32.2976" x2="216.336" y2="32.2976" gradientUnits="userSpaceOnUse">
<stop stop-color="#E0AF1C"/>
<stop offset="0.66" stop-color="#EAD11C"/>
</linearGradient>
<clipPath id="clip0_549_5007">
<rect width="231.628" height="40" fill="white"/>
</clipPath>
</defs>
</svg>
