<svg width="32" height="32" viewBox="0 0 32 32" fill="none" xmlns="http://www.w3.org/2000/svg">
<path d="M31.9638 7.21576C31.7829 6.06189 30.9903 4.08147 27.8039 3.08501C23.8444 1.83892 19.6523 3.69835 19.6523 3.69835C18.6283 3.99618 17.6462 4.44621 16.721 4.99367C15.7975 5.54593 14.9202 6.17885 14.0986 6.88569C13.7924 7.14954 13.4852 7.42136 13.193 7.69561C12.8652 8.00488 12.4073 8.06867 12.5233 7.77709C13.3921 5.48566 15.0847 3.35371 17.4364 1.86874C22.4188 -1.27942 28.4679 -0.355428 30.9406 3.92857C31.5175 4.92797 31.8676 6.05256 31.9638 7.21576Z" fill="url(#paint0_linear_2194_30318)"/>
<path d="M30.1822 13.715C30.5434 13.0941 31.7204 10.7579 29.7084 8.85237C27.2964 6.57273 22.2281 8.49214 22.2281 8.49214C21.2052 8.78199 20.2224 9.24 19.2972 9.78746C18.3737 10.3397 17.4964 10.9726 16.6748 11.6795C15.8468 12.3836 15.0628 13.1426 14.3277 13.9518C14.0295 14.2816 13.1166 14.9039 12.65 14.2687C12.1921 13.6266 13.0414 12.0702 13.3893 11.6663C14.0954 10.8446 14.8479 10.0677 15.6426 9.33985C16.4409 8.61476 17.295 7.95968 18.1961 7.38127C19.0941 6.80538 20.0574 6.32032 21.0693 5.99615C20.0454 6.29432 19.0709 6.74539 18.1457 7.29285C17.2222 7.84511 16.3449 8.47804 15.5233 9.18487C14.8439 9.75871 14.1961 10.3722 13.5828 11.0225C13.5288 11.0797 13.1189 11.5394 12.7995 11.7284C12.3293 12.0012 11.8981 11.979 11.7391 11.6642C11.2858 10.5201 12.1788 9.09854 12.7736 8.47168C13.2342 7.97865 13.724 7.49811 14.226 7.04322C15.0201 6.3157 15.8719 5.66013 16.7722 5.0836C17.6768 4.50736 18.6404 4.02196 19.6518 3.69847C19.6518 3.69847 23.8435 1.83905 27.8034 3.08514C30.9898 4.08159 31.7824 6.06202 31.9633 7.21588C31.9633 7.22386 31.969 7.23287 31.968 7.24085C32.1545 9.40919 31.5104 11.701 30.1822 13.715Z" fill="url(#paint1_linear_2194_30318)"/>
<path d="M30.1832 13.715C30.1152 13.8191 30.0775 13.87 30.0775 13.87C29.1546 15.2222 27.915 16.4451 26.4096 17.3951C25.8678 17.7386 25.3161 18.0902 24.7093 18.293C23.7199 18.6235 21.7393 19.1207 20.9318 17.7868C20.4231 16.9426 22.3155 16.2915 23.8292 15.4562C25.2594 14.6654 27.0733 12.616 25.9917 11.1778C25.1411 10.0489 23.1088 11.1663 22.6018 11.3688C20.7773 12.0942 18.8349 13.4762 17.2367 14.6564C16.8003 14.9095 16.1763 15.3543 15.7807 15.4677C15.5865 15.5287 14.763 15.718 14.4695 15.4157C14.2981 15.2451 14.1977 14.8332 14.4668 14.3204C14.6739 13.9286 15.2167 13.3988 15.3333 13.2778C15.803 12.7779 16.293 12.2971 16.8033 11.8355C17.5974 11.108 18.4492 10.4524 19.3495 9.87588C20.2548 9.30138 21.2108 8.81494 22.23 8.49215C22.23 8.49215 27.2983 6.57274 29.7103 8.85238C31.7214 10.7579 30.5443 13.0941 30.1832 13.715Z" fill="url(#paint2_linear_2194_30318)"/>
<path d="M18.4769 19.9748C17.7981 20.8195 17.0698 21.6193 16.2962 22.3696C15.5258 23.1264 14.6951 23.8132 13.8133 24.4225C12.9295 25.0292 11.9954 25.5455 10.99 25.9133H10.9824C10.5228 26.079 5.84889 27.744 2.75824 25.9359C-0.06897 24.2751 0.354192 21.6068 0.612989 20.6606C0.629889 20.6211 1.53915 17.2715 5.27928 14.7093C5.80946 14.3466 6.33965 13.9732 6.94505 13.7406C7.85631 13.3904 9.89421 12.8169 10.7432 14.1143C11.2734 14.9405 9.40876 15.6676 7.92324 16.5472C6.52322 17.3901 4.76832 19.505 5.89894 20.9026C6.78766 22.0007 8.77684 20.8125 9.28482 20.5906C11.0821 19.8042 12.9815 18.3466 14.5419 17.1165C14.9671 16.8447 15.5765 16.379 15.9668 16.2497C16.1613 16.1856 16.9768 15.9616 17.281 16.2556C17.4513 16.4238 17.567 16.8225 17.3165 17.3509C17.1246 17.7531 16.5971 18.2943 16.4844 18.4257C16.0271 18.9374 15.5546 19.4405 15.0678 19.919C14.2955 20.6735 13.465 21.3601 12.5849 21.9719C11.7015 22.5707 10.7521 23.0862 9.75436 23.4555C10.7664 23.1192 11.7296 22.6362 12.6356 22.0544C13.54 21.4694 14.3955 20.8052 15.1927 20.0691C15.9951 19.3349 16.7536 18.5497 17.4639 17.7181C17.7535 17.3762 18.6469 16.7126 19.1307 17.3367C19.6145 17.9607 18.8159 19.5466 18.4769 19.9748Z" fill="url(#paint3_linear_2194_30318)"/>
<path d="M19.469 23.8276C18.6738 26.1429 17.055 28.3348 14.7441 29.9051C9.86935 33.2259 3.80105 32.5252 1.18492 28.3241C-0.206818 26.0795 -0.339357 23.2756 0.612989 20.6617C0.354192 21.6079 -0.0689707 24.2762 2.75824 25.937C5.84889 27.7451 10.5228 26.0802 10.9824 25.9144H10.99C12.002 25.5781 12.958 25.0868 13.864 24.505C14.7693 23.9312 15.6252 23.2506 16.4287 22.5201C17.0815 21.9196 17.7128 21.2862 18.3066 20.6191C18.355 20.557 18.7493 20.0907 19.0644 19.8865C19.5207 19.5997 19.9591 19.6018 20.1248 19.9142C20.6126 21.0442 19.7742 22.4889 19.2043 23.1331C18.7543 23.6532 18.2824 24.1386 17.7956 24.6188C17.0229 25.3734 16.192 26.06 15.3114 26.6717C14.4276 27.2784 13.4783 27.794 12.4809 28.1549C13.4925 27.8269 14.4561 27.336 15.3621 26.7542C16.2677 26.1672 17.1255 25.5032 17.9269 24.7689C18.2214 24.4998 18.5167 24.2142 18.804 23.9288C19.1241 23.6043 19.5724 23.5343 19.469 23.8276Z" fill="url(#paint4_linear_2194_30318)"/>
<defs>
<linearGradient id="paint0_linear_2194_30318" x1="12.505" y1="3.98231" x2="31.9638" y2="3.98231" gradientUnits="userSpaceOnUse">
<stop stop-color="#EAD11C"/>
<stop offset="0.6" stop-color="#EACF1C"/>
<stop offset="1" stop-color="#E0AF1C"/>
</linearGradient>
<linearGradient id="paint1_linear_2194_30318" x1="11.6145" y1="8.59927" x2="31.9998" y2="8.59927" gradientUnits="userSpaceOnUse">
<stop stop-color="#339833"/>
<stop offset="0.5" stop-color="#327935"/>
<stop offset="1" stop-color="#2B6545"/>
</linearGradient>
<linearGradient id="paint2_linear_2194_30318" x1="14.3048" y1="15.0395" x2="31.042" y2="12.2189" gradientUnits="userSpaceOnUse">
<stop offset="0.17" stop-color="#C54432"/>
<stop offset="0.67" stop-color="#B73432"/>
<stop offset="1" stop-color="#A33432"/>
</linearGradient>
<linearGradient id="paint3_linear_2194_30318" x1="1.19586" y1="24.6027" x2="18.0223" y2="15.318" gradientUnits="userSpaceOnUse">
<stop stop-color="#2A45A1"/>
<stop offset="1" stop-color="#2A60D0"/>
</linearGradient>
<linearGradient id="paint4_linear_2194_30318" x1="0.000290213" y1="25.8378" x2="20.2706" y2="25.8378" gradientUnits="userSpaceOnUse">
<stop stop-color="#E0AF1C"/>
<stop offset="0.66" stop-color="#EAD11C"/>
</linearGradient>
</defs>
</svg>
