<svg width="235" height="40" viewBox="0 0 235 40" fill="none" xmlns="http://www.w3.org/2000/svg">
<path fill-rule="evenodd" clip-rule="evenodd" d="M8.8599 22.5229L6.2244 21.6932C5.36539 21.4161 4.57047 21.098 3.84221 20.7371L3.82269 20.7274L3.80358 20.7169C3.08007 20.319 2.44141 19.8579 1.89804 19.328L1.88846 19.3187L1.87912 19.3091C1.31811 18.7332 0.881002 18.0674 0.572151 17.318L0.563005 17.2958L0.554852 17.2732C0.270706 16.4856 0.140195 15.6137 0.140195 14.6749C0.140195 12.4821 0.943418 10.6748 2.57097 9.37803C4.18315 8.08808 6.28793 7.5 8.77659 7.5C9.78739 7.5 10.7392 7.58807 11.6285 7.76955C12.5005 7.92405 13.2855 8.16015 13.9672 8.49291C14.6524 8.79336 15.2481 9.18776 15.6983 9.70609C16.191 10.2221 16.5017 10.8667 16.5017 11.6166C16.5017 12.2194 16.3434 12.7901 16.0083 13.2905C15.7467 13.6913 15.4175 14.0284 15.0263 14.2961L14.4153 14.7142L13.8307 14.2581C13.3683 13.8973 12.7138 13.5608 11.8297 13.273L11.8151 13.2682L11.8007 13.2631C10.9912 12.9722 10.0687 12.8187 9.02193 12.8187C7.85607 12.8187 7.11011 13.0609 6.6524 13.4054C6.21451 13.7351 6.02218 14.1267 6.02218 14.6749C6.02218 15.1098 6.15481 15.4034 6.40884 15.6437C6.73491 15.9257 7.36954 16.2546 8.43435 16.5734L8.43567 16.5738L10.4726 17.1867C12.5316 17.8158 14.2109 18.7081 15.4392 19.9109C16.7831 21.1778 17.413 22.8951 17.413 24.9293C17.413 26.0319 17.1976 27.0724 16.757 28.0361C16.3394 28.9767 15.7279 29.7856 14.9365 30.458C14.1315 31.1419 13.1478 31.6443 12.0159 31.9879C10.8964 32.335 9.64906 32.5 8.28591 32.5C7.15239 32.5 6.09859 32.3989 5.12946 32.1895C4.18374 31.9851 3.33505 31.7111 2.59452 31.3582L2.58138 31.3519C1.86438 30.9975 1.24932 30.5609 0.783608 30.0191C0.30074 29.4573 0 28.7852 0 28.0236C0 27.3143 0.214187 26.656 0.668752 26.1116C1.04437 25.6617 1.49565 25.3105 2.01961 25.0752L2.63456 24.799L3.12935 25.2646C3.59351 25.7014 4.25901 26.1517 5.15833 26.6025C5.97069 26.9987 6.97918 27.2172 8.21582 27.2172C9.57758 27.2172 10.3696 26.9234 10.8002 26.5403C11.2669 26.1251 11.496 25.6174 11.496 24.9293C11.496 24.313 11.3147 23.9082 11.0081 23.6072C10.6406 23.2463 9.96653 22.8638 8.86592 22.5248L8.8599 22.5229ZM4.71095 27.5559C3.75295 27.0761 2.99357 26.5724 2.43279 26.0447C2.05894 26.2126 1.73182 26.4645 1.45143 26.8003C1.17104 27.1361 1.03084 27.5439 1.03084 28.0236C1.03084 28.4794 1.20609 28.9111 1.55657 29.3189C1.90706 29.7267 2.39774 30.0865 3.02862 30.3983C3.68286 30.7102 4.45393 30.962 5.34183 31.1539C6.22973 31.3458 7.21109 31.4418 8.28591 31.4418C9.57103 31.4418 10.716 31.2858 11.7207 30.974C12.7488 30.6622 13.6016 30.2184 14.2792 29.6427C14.9568 29.067 15.4709 28.3834 15.8214 27.5919C16.1952 26.7763 16.3822 25.8888 16.3822 24.9293C16.3822 23.1303 15.8331 21.7151 14.7349 20.6836C13.66 19.6282 12.1413 18.8007 10.1785 18.201L8.14572 17.5893C7.02416 17.2535 6.21804 16.8697 5.72736 16.4379C5.23668 15.9822 4.99134 15.3945 4.99134 14.6749C4.99134 13.7874 5.34183 13.0798 6.0428 12.5521C6.74377 12.0244 7.73682 11.7605 9.02193 11.7605C10.1669 11.7605 11.2066 11.9284 12.1413 12.2642C13.0993 12.5761 13.8703 12.9598 14.4545 13.4156C14.7349 13.2237 14.9685 12.9838 15.1554 12.696C15.3657 12.3842 15.4709 12.0244 15.4709 11.6166C15.4709 11.1848 15.2956 10.789 14.9452 10.4292C14.618 10.0454 14.1507 9.72161 13.5432 9.45776C12.9591 9.16991 12.2581 8.95403 11.4403 8.81011C10.6225 8.6422 9.73459 8.55825 8.77659 8.55825C6.44002 8.55825 4.58244 9.10994 3.20386 10.2133C1.84864 11.2928 1.17104 12.7799 1.17104 14.6749C1.17104 15.5144 1.28787 16.258 1.52152 16.9057C1.77855 17.5293 2.14072 18.081 2.60803 18.5608C3.07535 19.0165 3.63613 19.4243 4.29037 19.7841C4.96797 20.1199 5.71568 20.4198 6.53348 20.6836L9.16213 21.5112C10.3304 21.871 11.1833 22.3147 11.7207 22.8424C12.2581 23.3702 12.5268 24.0658 12.5268 24.9293C12.5268 25.9128 12.1763 26.7163 11.4753 27.34C10.7744 27.9637 9.68786 28.2755 8.21582 28.2755C6.8606 28.2755 5.69231 28.0356 4.71095 27.5559ZM19.1828 13.337L19.9305 13.1177C20.1475 13.054 20.4181 12.9999 20.7217 12.9511C21.0984 12.8653 21.491 12.8251 21.896 12.8251C22.6543 12.8251 23.4388 12.9633 24.0195 13.4589C24.6907 14.01 24.8896 14.8514 24.8896 15.6464V24.5335C24.8896 25.7515 25.1925 26.3751 25.5567 26.6953C26.0433 27.075 26.7828 27.3252 27.8893 27.3252C28.6453 27.3252 29.2306 27.2468 29.6686 27.1156C29.8947 27.0479 30.0904 26.9809 30.2582 26.9157V13.3089L31.039 13.1086C31.2543 13.0533 31.5068 13.0017 31.7906 12.9526C32.1693 12.8657 32.564 12.8251 32.9714 12.8251C33.7457 12.8251 34.5236 12.9697 35.1154 13.447C35.7983 13.9979 36 14.8457 36 15.6464V27.7718C36 28.4012 35.904 29.0103 35.6458 29.5403C35.3608 30.1256 34.8526 30.5777 34.285 30.9383L34.2714 30.947L34.2576 30.9552C33.5491 31.3747 32.6546 31.7273 31.6041 32.0284C30.5083 32.3494 29.2532 32.5 27.8543 32.5C25.3091 32.5 23.1759 31.9302 21.5795 30.6587L21.5717 30.6525L21.5641 30.6462C19.9115 29.2771 19.1828 27.1803 19.1828 24.6055V13.337ZM31.3241 31.01C32.3288 30.7222 33.1349 30.3983 33.7425 30.0385C34.2331 29.7267 34.5603 29.4029 34.7238 29.0671C34.8874 28.7312 34.9692 28.2995 34.9692 27.7718V15.6464C34.9692 14.9987 34.8056 14.543 34.4785 14.2791C34.1514 14.0153 33.649 13.8833 32.9714 13.8833C32.6209 13.8833 32.2938 13.9193 31.99 13.9913C31.7096 14.0393 31.476 14.0872 31.2891 14.1352V27.5919C30.9619 27.7837 30.518 27.9637 29.9572 28.1316C29.3964 28.2995 28.7071 28.3834 27.8893 28.3834C26.6276 28.3834 25.6345 28.0956 24.9102 27.5199C24.2092 26.9202 23.8587 25.9248 23.8587 24.5335V15.6464C23.8587 14.9987 23.6952 14.543 23.3681 14.2791C23.0643 14.0153 22.5736 13.8833 21.896 13.8833C21.5455 13.8833 21.2184 13.9193 20.9147 13.9913C20.6109 14.0393 20.3772 14.0872 20.2137 14.1352V24.6055C20.2137 26.9802 20.8796 28.7192 22.2115 29.8226C23.5667 30.902 25.4476 31.4418 27.8543 31.4418C29.1861 31.4418 30.3427 31.2978 31.3241 31.01Z" fill="#262626"/>
<path d="M56.9599 24.5961C56.9599 25.7521 56.7672 26.8061 56.3819 27.7581C56.0192 28.7101 55.4752 29.5261 54.7499 30.2061C54.0472 30.8861 53.1745 31.4074 52.1319 31.7701C51.1119 32.1327 49.9332 32.3141 48.5959 32.3141C47.2812 32.3141 46.1025 32.1327 45.0599 31.7701C44.0399 31.4074 43.1672 30.8861 42.4419 30.2061C41.7392 29.5261 41.1952 28.7101 40.8099 27.7581C40.4472 26.8061 40.2659 25.7521 40.2659 24.5961V11.2001C40.4245 11.1547 40.6625 11.1094 40.9799 11.0641C41.2972 10.9961 41.6259 10.9621 41.9659 10.9621C42.6232 10.9621 43.1105 11.0867 43.4279 11.3361C43.7452 11.5854 43.9039 12.0274 43.9039 12.6621V24.3921C43.9039 26.0014 44.3459 27.2254 45.2299 28.0641C46.1365 28.9027 47.2585 29.3221 48.5959 29.3221C49.2759 29.3221 49.8992 29.2201 50.4659 29.0161C51.0325 28.7894 51.5312 28.4721 51.9619 28.0641C52.3925 27.6561 52.7212 27.1461 52.9479 26.5341C53.1972 25.9221 53.3219 25.2081 53.3219 24.3921V11.2001C53.4805 11.1547 53.7185 11.1094 54.0359 11.0641C54.3532 10.9961 54.6819 10.9621 55.0219 10.9621C55.6792 10.9621 56.1665 11.0867 56.4839 11.3361C56.8012 11.5854 56.9599 12.0274 56.9599 12.6621V24.5961Z" fill="#0F47AF"/>
<path d="M65.6748 31.7701C65.5161 31.8381 65.2894 31.8947 64.9948 31.9401C64.7228 32.0081 64.4168 32.0421 64.0768 32.0421C63.4194 32.0421 62.9321 31.9174 62.6148 31.6681C62.2974 31.4187 62.1388 30.9994 62.1388 30.4101V9.77205C62.2974 9.72672 62.5241 9.67006 62.8188 9.60205C63.1134 9.53406 63.4308 9.50006 63.7708 9.50006C64.4281 9.50006 64.9041 9.62472 65.1988 9.87406C65.5161 10.1234 65.6748 10.5427 65.6748 11.1321V22.5221L72.6788 15.6201C73.4041 15.6427 73.9708 15.8127 74.3788 16.1301C74.8094 16.4474 75.0248 16.8554 75.0248 17.3541C75.0248 17.7621 74.8888 18.1247 74.6168 18.4421C74.3448 18.7594 73.9481 19.1447 73.4268 19.5981L68.9048 23.5761L75.9088 29.9681C75.8408 30.6254 75.6368 31.1467 75.2968 31.5321C74.9794 31.8947 74.5261 32.0761 73.9368 32.0761C73.4834 32.0761 73.0754 31.9627 72.7128 31.7361C72.3728 31.5094 71.9988 31.1694 71.5908 30.7161L65.6748 24.4601V31.7701Z" fill="#0F47AF"/>
<path d="M82.806 31.7701C82.6473 31.8381 82.4207 31.8947 82.126 31.9401C81.854 32.0081 81.548 32.0421 81.208 32.0421C80.5506 32.0421 80.0633 31.9174 79.746 31.6681C79.4286 31.4187 79.27 30.9994 79.27 30.4101V19.2581C79.27 18.6914 79.3833 18.2381 79.61 17.8981C79.8366 17.5354 80.1993 17.1954 80.698 16.8781C81.3553 16.4701 82.194 16.1301 83.214 15.8581C84.234 15.5861 85.356 15.4501 86.58 15.4501C88.5746 15.4501 89.572 16.0167 89.572 17.1501C89.572 17.4221 89.5266 17.6827 89.436 17.9321C89.3453 18.1587 89.2433 18.3627 89.13 18.5441C88.9033 18.4987 88.62 18.4534 88.28 18.4081C87.94 18.3627 87.5773 18.3401 87.192 18.3401C86.2853 18.3401 85.458 18.4421 84.71 18.6461C83.962 18.8274 83.3273 19.0654 82.806 19.3601V31.7701Z" fill="#0F47AF"/>
<path d="M98.2364 29.5601C99.0297 29.5601 99.7211 29.4807 100.31 29.3221C100.9 29.1634 101.319 28.9934 101.568 28.8121V24.4941L97.8624 24.8681C96.8197 24.9814 96.0377 25.2194 95.5164 25.5821C94.9951 25.9221 94.7344 26.4547 94.7344 27.1801C94.7344 27.9281 95.0177 28.5174 95.5844 28.9481C96.1511 29.3561 97.0351 29.5601 98.2364 29.5601ZM98.1684 15.4501C100.276 15.4501 101.954 15.9147 103.2 16.8441C104.447 17.7507 105.07 19.1901 105.07 21.1621V29.0841C105.07 29.6054 104.946 30.0134 104.696 30.3081C104.47 30.5801 104.152 30.8407 103.744 31.0901C103.155 31.4301 102.396 31.7247 101.466 31.9741C100.537 32.2234 99.4604 32.3481 98.2364 32.3481C96.0377 32.3481 94.3151 31.9174 93.0684 31.0561C91.8444 30.1947 91.2324 28.9254 91.2324 27.2481C91.2324 25.7521 91.7084 24.6074 92.6604 23.8141C93.6351 23.0207 95.0291 22.5334 96.8424 22.3521L101.568 21.8761V21.1281C101.568 20.1307 101.24 19.4054 100.582 18.9521C99.9477 18.4987 99.0524 18.2721 97.8964 18.2721C96.9897 18.2721 96.1171 18.3967 95.2784 18.6461C94.4397 18.8954 93.6917 19.1787 93.0344 19.4961C92.8077 19.3147 92.6151 19.0994 92.4564 18.8501C92.2977 18.5781 92.2184 18.2834 92.2184 17.9661C92.2184 17.5807 92.3091 17.2634 92.4904 17.0141C92.6944 16.7647 93.0004 16.5494 93.4084 16.3681C94.0431 16.0507 94.7684 15.8241 95.5844 15.6881C96.4004 15.5294 97.2617 15.4501 98.1684 15.4501Z" fill="#0F47AF"/>
<path d="M113.324 31.7701C113.165 31.8381 112.938 31.8947 112.644 31.9401C112.372 32.0081 112.054 32.0421 111.692 32.0421C111.034 32.0421 110.547 31.9174 110.23 31.6681C109.912 31.4187 109.754 30.9994 109.754 30.4101V16.0281C109.935 15.9827 110.162 15.9261 110.434 15.8581C110.728 15.7901 111.057 15.7561 111.42 15.7561C112.077 15.7561 112.553 15.8807 112.848 16.1301C113.165 16.3794 113.324 16.8101 113.324 17.4221V31.7701ZM109.38 11.0301C109.38 10.4407 109.584 9.95339 109.992 9.56806C110.4 9.16006 110.921 8.95605 111.556 8.95605C112.19 8.95605 112.7 9.16006 113.086 9.56806C113.471 9.95339 113.664 10.4407 113.664 11.0301C113.664 11.6194 113.471 12.1181 113.086 12.5261C112.7 12.9114 112.19 13.1041 111.556 13.1041C110.921 13.1041 110.4 12.9114 109.992 12.5261C109.584 12.1181 109.38 11.6194 109.38 11.0301Z" fill="#0F47AF"/>
<path d="M128.928 21.5361C128.928 20.4254 128.611 19.6094 127.976 19.0881C127.364 18.5667 126.525 18.3061 125.46 18.3061C124.667 18.3061 123.953 18.4081 123.318 18.6121C122.706 18.8161 122.173 19.0427 121.72 19.2921V31.7701C121.561 31.8381 121.335 31.8947 121.04 31.9401C120.768 32.0081 120.462 32.0421 120.122 32.0421C119.465 32.0421 118.977 31.9174 118.66 31.6681C118.343 31.4187 118.184 30.9994 118.184 30.4101V19.1901C118.184 18.6687 118.286 18.2494 118.49 17.9321C118.694 17.6147 119.034 17.2974 119.51 16.9801C120.145 16.5947 120.972 16.2434 121.992 15.9261C123.012 15.6087 124.168 15.4501 125.46 15.4501C127.659 15.4501 129.381 15.9487 130.628 16.9461C131.875 17.9207 132.498 19.4054 132.498 21.4001V31.7701C132.339 31.8381 132.113 31.8947 131.818 31.9401C131.523 32.0081 131.206 32.0421 130.866 32.0421C130.209 32.0421 129.721 31.9174 129.404 31.6681C129.087 31.4187 128.928 30.9994 128.928 30.4101V21.5361Z" fill="#0F47AF"/>
<path d="M143.16 29.5601C143.954 29.5601 144.645 29.4807 145.234 29.3221C145.824 29.1634 146.243 28.9934 146.492 28.8121V24.4941L142.786 24.8681C141.744 24.9814 140.962 25.2194 140.44 25.5821C139.919 25.9221 139.658 26.4547 139.658 27.1801C139.658 27.9281 139.942 28.5174 140.508 28.9481C141.075 29.3561 141.959 29.5601 143.16 29.5601ZM143.092 15.4501C145.2 15.4501 146.878 15.9147 148.124 16.8441C149.371 17.7507 149.994 19.1901 149.994 21.1621V29.0841C149.994 29.6054 149.87 30.0134 149.62 30.3081C149.394 30.5801 149.076 30.8407 148.668 31.0901C148.079 31.4301 147.32 31.7247 146.39 31.9741C145.461 32.2234 144.384 32.3481 143.16 32.3481C140.962 32.3481 139.239 31.9174 137.992 31.0561C136.768 30.1947 136.156 28.9254 136.156 27.2481C136.156 25.7521 136.632 24.6074 137.584 23.8141C138.559 23.0207 139.953 22.5334 141.766 22.3521L146.492 21.8761V21.1281C146.492 20.1307 146.164 19.4054 145.506 18.9521C144.872 18.4987 143.976 18.2721 142.82 18.2721C141.914 18.2721 141.041 18.3967 140.202 18.6461C139.364 18.8954 138.616 19.1787 137.958 19.4961C137.732 19.3147 137.539 19.0994 137.38 18.8501C137.222 18.5781 137.142 18.2834 137.142 17.9661C137.142 17.5807 137.233 17.2634 137.414 17.0141C137.618 16.7647 137.924 16.5494 138.332 16.3681C138.967 16.0507 139.692 15.8241 140.508 15.6881C141.324 15.5294 142.186 15.4501 143.092 15.4501Z" fill="#0F47AF"/>
<path d="M152.807 30.0361C152.807 29.3787 153 28.8347 153.385 28.4041C153.793 27.9734 154.349 27.7581 155.051 27.7581C155.777 27.7581 156.332 27.9734 156.717 28.4041C157.103 28.8347 157.295 29.3787 157.295 30.0361C157.295 30.6934 157.103 31.2374 156.717 31.6681C156.332 32.0987 155.777 32.3141 155.051 32.3141C154.349 32.3141 153.793 32.0987 153.385 31.6681C153 31.2374 152.807 30.6934 152.807 30.0361Z" fill="#0F47AF"/>
<path d="M162.428 32.0421C161.771 32.0421 161.284 31.9174 160.966 31.6681C160.649 31.4187 160.49 30.9994 160.49 30.4101V9.77205C160.649 9.72672 160.876 9.67006 161.17 9.60205C161.465 9.53406 161.782 9.50006 162.122 9.50006C162.78 9.50006 163.267 9.62472 163.584 9.87406C163.902 10.1234 164.06 10.5427 164.06 11.1321V31.7701C163.879 31.8381 163.641 31.8947 163.346 31.9401C163.074 32.0081 162.768 32.0421 162.428 32.0421Z" fill="#0F47AF"/>
<path d="M172.522 27.1801C172.522 27.9961 172.76 28.5741 173.236 28.9141C173.712 29.2541 174.38 29.4241 175.242 29.4241C175.627 29.4241 176.035 29.3674 176.466 29.2541C176.896 29.1407 177.27 29.0047 177.588 28.8461C177.746 29.0274 177.882 29.2314 177.996 29.4581C178.132 29.6847 178.2 29.9567 178.2 30.2741C178.2 30.8634 177.894 31.3507 177.282 31.7361C176.692 32.1214 175.786 32.3141 174.562 32.3141C172.862 32.3141 171.502 31.9401 170.482 31.1921C169.484 30.4214 168.986 29.1634 168.986 27.4181V11.5401C169.144 11.4947 169.371 11.4381 169.666 11.3701C169.96 11.3021 170.278 11.2681 170.618 11.2681C171.275 11.2681 171.751 11.3927 172.046 11.6421C172.363 11.8914 172.522 12.3107 172.522 12.9001V16.2661H177.792C177.882 16.4021 177.962 16.5947 178.03 16.8441C178.12 17.0934 178.166 17.3541 178.166 17.6261C178.166 18.6007 177.746 19.0881 176.908 19.0881H172.522V27.1801Z" fill="#0F47AF"/>
<g clip-path="url(#clip0_1_223)">
<mask id="mask0_1_223" style="mask-type:alpha" maskUnits="userSpaceOnUse" x="203" y="2" width="29" height="25">
<path d="M230.464 8.88162C233.17 14.8397 229.494 22.3343 222.253 25.6215C221.461 25.9813 220.644 26.2816 219.808 26.5201C219.223 26.6869 215.646 27.1114 214.758 25.2558C214.197 24.083 216.922 23.6715 219.04 22.6949C220.274 22.1263 223.629 19.6641 222.631 17.4872C221.468 16.0171 218.726 17.0187 218 17.1999C215.418 17.8456 212.567 19.3306 210.215 20.5959C209.586 20.861 208.67 21.3354 208.122 21.4224C207.848 21.4658 206.696 21.582 206.343 21.1421C206.142 20.892 206.069 20.3489 206.513 19.7211C206.848 19.2459 207.674 18.6501 207.85 18.5079C208.564 17.9337 209.299 17.3884 210.057 16.8722C211.252 16.0637 212.504 15.3364 213.818 14.7361C215.132 14.1359 216.51 13.6662 217.935 13.4006C216.502 13.6224 215.104 14.0526 213.765 14.6145C212.426 15.1764 211.141 15.8719 209.912 16.6502C208.684 17.433 207.506 18.2914 206.385 19.2206C205.925 19.6005 204.588 20.2651 204.06 19.3617C203.532 18.4583 204.918 16.5796 205.459 16.1041C206.541 15.15 207.682 14.2643 208.874 13.4521C210.068 12.6435 211.32 11.916 212.635 11.316C213.949 10.7159 215.326 10.2459 216.752 9.98023C215.318 10.2033 213.92 10.6337 212.581 11.1952C211.242 11.7567 209.957 12.4525 208.728 13.2308C207.724 13.87 206.754 14.5609 205.821 15.3007C205.736 15.368 205.11 15.8962 204.645 16.0887C203.97 16.3682 203.387 16.2758 203.221 15.8354C202.782 14.2782 204.203 12.5875 205.104 11.8677C205.812 11.2972 206.543 10.7556 207.296 10.2431C208.49 9.4345 209.742 8.70698 211.056 8.10696C212.371 7.50694 213.748 7.03704 215.173 6.77151C213.74 6.99323 212.342 7.42352 211.003 7.98558C209.664 8.54764 208.379 9.24266 207.15 10.0211C206.692 10.3117 206.242 10.6138 205.8 10.9275C205.305 11.2773 204.678 11.2814 204.873 10.9221C206.405 8.09428 209.031 5.59982 212.455 4.04572C219.694 0.758514 227.758 2.92372 230.464 8.88162Z" fill="#1FBE11"/>
</mask>
<g mask="url(#mask0_1_223)">
<path d="M230.464 8.88153C233.17 14.8396 229.494 22.3342 222.253 25.6215C221.461 25.9812 220.644 26.2816 219.808 26.52C219.223 26.6868 215.646 27.1113 214.758 25.2557C214.197 24.0829 216.922 23.6714 219.041 22.6948C220.275 22.1262 223.629 19.664 222.631 17.4871C221.468 16.017 218.726 17.0186 218.001 17.1998C215.419 17.8455 212.568 19.3305 210.216 20.5958C209.586 20.8609 208.67 21.3353 208.122 21.4223C207.848 21.4657 206.696 21.5819 206.343 21.1421C206.142 20.8919 206.069 20.3488 206.513 19.721C206.848 19.2458 207.674 18.65 207.851 18.5078C208.564 17.9336 209.3 17.3883 210.057 16.8721C211.252 16.0636 212.504 15.3363 213.818 14.7361C215.133 14.1358 216.51 13.6661 217.935 13.4005C216.502 13.6223 215.104 14.0525 213.765 14.6144C212.426 15.1763 211.141 15.8718 209.912 16.6501C208.684 17.4329 207.507 18.2913 206.386 19.2205C205.926 19.6004 204.588 20.265 204.06 19.3616C203.532 18.4582 204.918 16.5795 205.46 16.104C206.542 15.1499 207.682 14.2642 208.874 13.452C210.068 12.6434 211.321 11.9159 212.635 11.3159C213.949 10.7158 215.327 10.2458 216.752 9.98014C215.319 10.2033 213.921 10.6336 212.582 11.1951C211.243 11.7566 209.957 12.4524 208.729 13.2308C207.724 13.8699 206.754 14.5608 205.821 15.3006C205.737 15.3679 205.11 15.8961 204.645 16.0886C203.97 16.3681 203.387 16.2757 203.221 15.8353C202.783 14.2781 204.204 12.5874 205.104 11.8676C205.812 11.2971 206.543 10.7556 207.296 10.243C208.49 9.43441 209.742 8.70689 211.056 8.10687C212.371 7.50685 213.748 7.03695 215.173 6.77142C213.741 6.99314 212.342 7.42343 211.003 7.98549C209.664 8.54755 208.379 9.24257 207.151 10.021C206.692 10.3116 206.242 10.6137 205.8 10.9274C205.305 11.2772 204.679 11.2813 204.873 10.922C206.405 8.09419 209.032 5.59973 212.455 4.04563C219.695 0.758422 227.758 2.92363 230.464 8.88153Z" fill="#D6353C"/>
<path d="M224.159 13.3922C216.39 11.7639 209.274 16.5262 204.41 21.3893L197.131 13.6962L220.087 -11.6469L245.408 15.2798L226.466 23.0214C228.44 20.4619 230.251 14.6691 224.159 13.3922Z" fill="#006A44"/>
<path d="M222.25 6.33189C213.256 5.15193 205.861 10.6627 201.491 14.1876L194.603 7.85148L215.791 -18.5326L242.709 7.30036L231.362 13.9864C230.953 11.0964 228.689 7.17662 222.25 6.33189Z" fill="#FDB913"/>
</g>
<mask id="mask1_1_223" style="mask-type:alpha" maskUnits="userSpaceOnUse" x="188" y="14" width="28" height="25">
<path d="M190.105 33.9589C186.314 28.6261 188.495 20.5682 194.977 15.9608C195.685 15.4567 196.43 15.0061 197.205 14.6126C197.748 14.3373 201.178 13.2394 202.403 14.8912C203.178 15.9354 200.582 16.8589 198.688 18.2213C197.585 19.0145 194.761 22.0714 196.155 24.018C197.577 25.2394 200.078 23.7334 200.756 23.4172C203.167 22.2911 205.683 20.29 207.751 18.5994C208.318 18.2189 209.127 17.5786 209.649 17.3889C209.91 17.294 211.019 16.9603 211.45 17.3247C211.695 17.5322 211.869 18.0512 211.553 18.7521C211.315 19.2825 210.618 20.0248 210.471 20.198C209.881 20.8979 209.263 21.5733 208.617 22.2244C207.598 23.2459 206.508 24.1991 205.332 25.0382C204.156 25.8773 202.893 26.6017 201.544 27.1341C202.908 26.6431 204.199 25.954 205.407 25.1472C206.614 24.3404 207.743 23.413 208.801 22.4144C209.857 21.4121 210.85 20.3449 211.773 19.2192C212.153 18.7585 213.339 17.851 214.029 18.6378C214.72 19.4245 213.717 21.5322 213.276 22.1024C212.396 23.2449 211.445 24.3315 210.429 25.3558C209.411 26.3771 208.321 27.3305 207.145 28.1694C205.969 29.0082 204.706 29.7329 203.357 30.2655C204.721 29.7743 206.012 29.0854 207.22 28.2786C208.427 27.4718 209.557 26.5429 210.615 25.545C211.479 24.7261 212.3 23.8628 213.074 22.9587C213.145 22.8767 213.659 22.2386 214.079 21.961C214.688 21.5579 215.278 21.5375 215.525 21.9383C216.252 23.3829 215.179 25.3138 214.433 26.1921C213.846 26.887 213.232 27.5578 212.59 28.2047C211.572 29.226 210.482 30.1794 209.306 31.0182C208.13 31.8571 206.867 32.5818 205.518 33.1154C206.882 32.6245 208.173 31.9353 209.38 31.1285C210.588 30.3217 211.717 29.3941 212.775 28.3958C213.169 28.0232 213.554 27.6408 213.929 27.2483C214.348 26.8107 214.962 26.6873 214.84 27.077C213.874 30.1451 211.771 33.0937 208.707 35.2726C202.226 39.8796 193.897 39.2915 190.105 33.9589Z" fill="#0F47AF"/>
</mask>
<g mask="url(#mask1_1_223)">
<path d="M190.105 33.959C186.314 28.6262 188.495 20.5684 194.977 15.9609C195.685 15.4568 196.43 15.0062 197.205 14.6127C197.748 14.3375 201.178 13.2396 202.403 14.8913C203.178 15.9355 200.582 16.8591 198.688 18.2214C197.585 19.0147 194.761 22.0715 196.155 24.0182C197.577 25.2396 200.078 23.7335 200.756 23.4173C203.167 22.2912 205.683 20.2901 207.751 18.5995C208.318 18.219 209.127 17.5788 209.649 17.389C209.91 17.2941 211.019 16.9605 211.45 17.3248C211.695 17.5323 211.869 18.0513 211.553 18.7522C211.315 19.2826 210.618 20.0249 210.471 20.1981C209.881 20.898 209.263 21.5735 208.617 22.2245C207.598 23.2461 206.508 24.1992 205.332 25.0383C204.156 25.8774 202.893 26.6018 201.544 27.1342C202.908 26.6433 204.199 25.9541 205.407 25.1473C206.614 24.3405 207.743 23.4131 208.801 22.4146C209.857 21.4122 210.85 20.3451 211.773 19.2193C212.154 18.7586 213.339 17.8511 214.029 18.6379C214.72 19.4246 213.717 21.5324 213.276 22.1025C212.396 23.245 211.445 24.3316 210.43 25.3559C209.411 26.3772 208.321 27.3306 207.145 28.1695C205.969 29.0084 204.706 29.733 203.357 30.2656C204.721 29.7744 206.012 29.0855 207.22 28.2787C208.427 27.4719 209.557 26.543 210.615 25.5451C211.479 24.7262 212.3 23.8629 213.074 22.9588C213.145 22.8768 213.659 22.2387 214.079 21.9611C214.688 21.558 215.278 21.5376 215.525 21.9384C216.252 23.383 215.179 25.3139 214.433 26.1922C213.846 26.8871 213.232 27.5579 212.59 28.2048C211.572 29.2261 210.482 30.1795 209.306 31.0184C208.13 31.8572 206.867 32.5819 205.518 33.1155C206.882 32.6246 208.173 31.9354 209.38 31.1286C210.588 30.3218 211.717 29.3942 212.775 28.3959C213.169 28.0234 213.554 27.6409 213.929 27.2484C214.348 26.8108 214.962 26.6875 214.84 27.0772C213.874 30.1452 211.771 33.0938 208.707 35.2727C202.226 39.8798 193.897 39.2916 190.105 33.959Z" fill="#0F47AF"/>
<path d="M200.695 31.0102C206.621 30.116 210.826 25.1406 214.486 20.8832L224.196 25.3507L208.131 55.1327L176.983 34.5962L188.937 23.9265C188.937 31.8844 196.895 31.5837 200.695 31.0102Z" fill="#FFD500"/>
</g>
</g>
<defs>
<clipPath id="clip0_1_223">
<rect width="48.3721" height="40" fill="white" transform="translate(186.2)"/>
</clipPath>
</defs>
</svg>
