<svg width="232" height="40" viewBox="0 0 232 40" fill="none" xmlns="http://www.w3.org/2000/svg">
<g clip-path="url(#clip0_549_1710)">
<path d="M58.4076 23.1831C58.4076 24.3781 58.2092 25.4672 57.8123 26.4504C57.4533 27.4121 56.8781 28.2778 56.1313 28.9802C55.4073 29.6828 54.5084 30.222 53.4347 30.5976C52.3841 30.9732 51.17 31.161 49.7925 31.161C48.4388 31.161 47.2249 30.9732 46.1506 30.5976C45.1 30.222 44.2011 29.6833 43.454 28.9815C42.7225 28.2662 42.1504 27.4036 41.7752 26.4504C41.4008 25.4681 41.2136 24.379 41.2136 23.1831V9.34097C41.4553 9.27875 41.7005 9.23185 41.948 9.20055C42.2819 9.1296 42.6224 9.0943 42.9637 9.09523C43.6405 9.09523 44.1425 9.22409 44.4697 9.48182C44.7969 9.73954 44.9602 10.1962 44.9596 10.8518V22.9725C44.9596 24.6355 45.4149 25.9003 46.3256 26.7668C47.2593 27.6336 48.4149 28.067 49.7925 28.067C50.4932 28.067 51.1353 27.9617 51.7188 27.7511C52.2902 27.5246 52.8132 27.1906 53.2598 26.7673C53.703 26.3454 54.0414 25.8184 54.275 25.1862C54.5319 24.5538 54.6603 23.816 54.6603 22.9729V9.34097C54.902 9.27879 55.1473 9.23189 55.3948 9.20055C55.7287 9.12963 56.0691 9.09433 56.4104 9.09523C57.0875 9.09523 57.5895 9.22409 57.9164 9.48182C58.2433 9.73954 58.407 10.1962 58.4076 10.8518V23.1831Z" fill="#0F47AF"/>
<path d="M67.384 30.5974C67.2207 30.6676 66.9872 30.7254 66.6837 30.7708C66.3739 30.8444 66.0563 30.8797 65.738 30.8761C65.0609 30.8761 64.5589 30.7474 64.232 30.4899C63.9051 30.2325 63.7417 29.7991 63.7417 29.1898V7.86682C63.9053 7.82001 64.1389 7.76136 64.4424 7.69086C64.7641 7.61866 65.093 7.58332 65.4227 7.58555C66.1 7.58555 66.5897 7.71441 66.8915 7.97213C67.2184 8.22957 67.3818 8.66296 67.3818 9.27231V21.0402L74.5964 13.9083C75.3438 13.9317 75.9274 14.1074 76.3473 14.4353C76.7908 14.763 77.0126 15.1845 77.0126 15.7C77.0162 16.1135 76.8676 16.5138 76.5953 16.8242C76.3148 17.1521 75.9061 17.5503 75.3692 18.0186L70.7118 22.1294L77.9263 28.7343C77.8563 29.4132 77.6462 29.9518 77.296 30.35C76.9688 30.7256 76.5018 30.9134 75.895 30.9134C75.45 30.9194 75.0126 30.7976 74.6344 30.5623C74.2842 30.328 73.899 29.9767 73.4788 29.5083L67.3874 23.0438L67.384 30.5974Z" fill="#0F47AF"/>
<path d="M85.0295 30.5975C84.8659 30.6677 84.6323 30.7255 84.3288 30.7708C84.0191 30.8444 83.7017 30.8798 83.3835 30.8761C82.7061 30.8761 82.2041 30.7474 81.8775 30.49C81.5509 30.2326 81.3875 29.7992 81.3872 29.1898V17.6676C81.3872 17.0817 81.504 16.6132 81.7376 16.2621C81.9709 15.8865 82.3444 15.5352 82.8582 15.2081C83.5353 14.7863 84.3993 14.435 85.4503 14.1541C86.5012 13.8733 87.657 13.7327 88.9176 13.7324C90.9719 13.7324 91.9991 14.3181 91.9991 15.4894C91.9996 15.7643 91.9519 16.0372 91.8583 16.2955C91.7722 16.5152 91.6668 16.7268 91.5433 16.9278C91.3095 16.881 91.0176 16.8342 90.6676 16.7874C90.296 16.7392 89.9217 16.7158 89.547 16.7172C88.613 16.7172 87.7608 16.8225 86.9904 17.0331C86.2202 17.2207 85.5666 17.4662 85.0295 17.7699V30.5975Z" fill="#0F47AF"/>
<path d="M106.037 15.1726C104.749 14.2113 103.022 13.7324 100.856 13.7359C99.9615 13.7339 99.0686 13.8136 98.1884 13.9738C97.3542 14.1186 96.602 14.3561 95.9532 14.6763C95.5311 14.8727 95.2118 15.0898 95.0058 15.3481C94.8204 15.6081 94.7275 15.9371 94.7275 16.3297C94.7279 16.6513 94.8094 16.9675 94.9643 17.249C95.1271 17.4996 95.3283 17.723 95.5605 17.9107C96.3105 17.5603 97.0857 17.2666 97.8795 17.0323C98.7524 16.7746 99.658 16.6458 100.568 16.65C101.762 16.65 102.689 16.8875 103.338 17.3525C104.018 17.8176 104.358 18.5721 104.358 19.5949V20.3694L99.4861 20.8652C97.622 21.0515 96.18 21.5586 95.1807 22.3738C94.2022 23.1903 93.708 24.3787 93.708 25.9181C93.708 27.6543 94.3361 28.9666 95.6032 29.8551C96.8802 30.7439 98.6623 31.1882 100.917 31.1882C102.184 31.1882 103.296 31.0642 104.243 30.8059C105.202 30.5459 105.984 30.2477 106.592 29.8958C107.014 29.6358 107.344 29.3688 107.57 29.0793C107.83 28.7798 107.962 28.3559 107.962 27.8185V19.6361C107.963 17.6004 107.314 16.1126 106.037 15.1726ZM104.358 27.5412C104.101 27.7269 103.668 27.9026 103.06 28.0682C102.453 28.2333 101.742 28.3161 100.918 28.3161C99.6818 28.3161 98.7755 28.0994 98.1884 27.6755C97.6116 27.2309 97.3127 26.6215 97.3127 25.8553C97.3127 25.1012 97.5805 24.5551 98.1162 24.2023C98.6623 23.83 99.4658 23.5821 100.535 23.4582L104.357 23.0759L104.358 27.5412Z" fill="#0F47AF"/>
<path d="M116.462 30.5972C116.299 30.6675 116.066 30.7273 115.762 30.7706C115.441 30.8454 115.111 30.8808 114.782 30.8759C114.105 30.8759 113.603 30.7472 113.276 30.4898C112.949 30.2323 112.785 29.7989 112.786 29.1896V14.3294L113.486 14.1539C113.819 14.0805 114.16 14.0451 114.502 14.0486C115.178 14.0486 115.668 14.1774 115.97 14.4352C116.297 14.6926 116.46 15.1375 116.46 15.77L116.462 30.5972Z" fill="#0F47AF"/>
<path d="M112.4 9.16542C112.4 8.55665 112.61 8.05305 113.03 7.65462C113.451 7.2322 113.988 7.021 114.641 7.021C115.295 7.021 115.82 7.23177 116.217 7.65332C116.614 8.05146 116.812 8.55506 116.813 9.16412C116.813 9.77319 116.615 10.2885 116.217 10.71C115.821 11.1082 115.295 11.3073 114.641 11.3073C113.987 11.3073 113.45 11.1082 113.03 10.71C112.61 10.2891 112.4 9.7742 112.4 9.16542Z" fill="#0F47AF"/>
<path d="M132.535 20.0225C132.535 18.8748 132.208 18.0316 131.554 17.4928C130.924 16.9542 130.06 16.6849 128.962 16.6849C128.146 16.6849 127.41 16.7902 126.756 17.0009C126.187 17.1854 125.636 17.4206 125.11 17.7038V30.5972C124.947 30.6675 124.713 30.7273 124.41 30.7706C124.1 30.8442 123.782 30.8796 123.464 30.8759C122.787 30.8759 122.286 30.7472 121.958 30.4898C121.631 30.2323 121.468 29.7989 121.468 29.1896V17.5955C121.468 17.0569 121.573 16.6235 121.783 16.2953C121.993 15.9671 122.343 15.6391 122.834 15.3115C123.488 14.9136 124.34 14.5506 125.39 14.2224C126.441 13.8941 127.631 13.7302 128.962 13.7305C131.227 13.7305 133.002 14.2458 134.285 15.2764C135.57 16.2847 136.213 17.8195 136.213 19.8807V30.5972C136.05 30.6675 135.816 30.7252 135.512 30.7706C135.19 30.8429 134.861 30.8782 134.531 30.8759C133.855 30.8759 133.353 30.7472 133.026 30.4898C132.698 30.2323 132.535 29.7989 132.535 29.1896L132.535 20.0225Z" fill="#0F47AF"/>
<path d="M152.305 15.1726C151.028 14.2113 149.301 13.7324 147.124 13.7359C146.233 13.7334 145.343 13.8131 144.467 13.9738C143.622 14.1186 142.87 14.3561 142.22 14.6764C141.798 14.8727 141.489 15.0898 141.272 15.3481C141.087 15.6082 140.994 15.9371 140.994 16.3298C140.993 16.653 141.079 16.9706 141.242 17.2494C141.402 17.5025 141.603 17.7261 141.839 17.9108C142.584 17.5585 143.356 17.2648 144.147 17.0323C145.024 16.7739 145.933 16.6451 146.846 16.65C148.031 16.65 148.957 16.8875 149.606 17.3526C150.286 17.8176 150.626 18.5721 150.626 19.5949V20.3694L145.754 20.8652C143.89 21.0516 142.458 21.5586 141.449 22.3738C140.47 23.1904 139.976 24.3787 139.976 25.9181C139.976 27.6543 140.614 28.9666 141.871 29.8551C143.158 30.7438 144.933 31.1882 147.196 31.1882C148.453 31.1882 149.565 31.0642 150.522 30.8059C151.48 30.5476 152.263 30.2477 152.871 29.8958C153.283 29.6358 153.613 29.3688 153.849 29.0793C154.109 28.7798 154.231 28.356 154.231 27.8186V19.6361C154.231 17.6006 153.589 16.1128 152.305 15.1726ZM150.626 27.5412C150.369 27.727 149.937 27.9026 149.33 28.0682C148.724 28.2338 148.013 28.3164 147.198 28.3161C145.962 28.3161 145.045 28.0994 144.468 27.6755C143.881 27.2309 143.593 26.6215 143.593 25.8553C143.593 25.1012 143.86 24.5551 144.396 24.2023C144.932 23.8302 145.735 23.5821 146.806 23.4582L150.628 23.0759L150.626 27.5412Z" fill="#0F47AF"/>
<path d="M157.131 28.8044C157.131 28.1254 157.33 27.5633 157.727 27.1181C158.147 26.6731 158.719 26.4505 159.443 26.4502C160.19 26.4502 160.762 26.6728 161.159 27.1181C161.555 27.5633 161.754 28.1254 161.754 28.8044C161.754 29.4834 161.555 30.0455 161.159 30.4907C160.762 30.936 160.19 31.1584 159.443 31.1581C158.719 31.1581 158.147 30.9357 157.727 30.4907C157.33 30.0458 157.132 29.4837 157.131 28.8044Z" fill="#0F47AF"/>
<path d="M167.041 30.8771C166.363 30.8771 165.861 30.7483 165.535 30.4909C165.209 30.2335 165.046 29.8001 165.045 29.1907V7.8678C165.208 7.82099 165.441 7.76234 165.745 7.69184C166.067 7.61959 166.396 7.58426 166.726 7.58653C167.403 7.58653 167.905 7.71539 168.232 7.97312C168.559 8.23084 168.722 8.66423 168.722 9.27329V30.5975C168.484 30.6794 168.238 30.7375 167.988 30.7709C167.678 30.8449 167.36 30.8805 167.041 30.8771Z" fill="#0F47AF"/>
<path d="M177.437 25.8531C177.437 26.6965 177.682 27.2939 178.172 27.6452C178.661 27.9965 179.35 28.1716 180.239 28.1705C180.665 28.1663 181.088 28.1072 181.499 27.9945C181.898 27.8943 182.285 27.753 182.655 27.5728C182.822 27.7648 182.963 27.9774 183.075 28.2056C183.215 28.4396 183.285 28.7206 183.285 29.0485C183.285 29.6576 182.97 30.1612 182.34 30.5593C181.733 30.9572 180.799 31.1563 179.538 31.1566C177.787 31.1566 176.387 30.7701 175.336 29.9972C174.309 29.2007 173.795 27.9005 173.795 26.0967V9.69234C173.959 9.64553 174.192 9.58703 174.495 9.51898C174.817 9.44681 175.146 9.41148 175.476 9.41367C176.153 9.41367 176.643 9.54239 176.947 9.79982C177.273 10.0578 177.437 10.4912 177.437 11.1V14.578H182.865C182.959 14.7184 183.041 14.9175 183.11 15.1752C183.204 15.4341 183.251 15.7076 183.25 15.983C183.25 16.9902 182.818 17.4938 181.954 17.4938H177.437V25.8531Z" fill="#0F47AF"/>
<path d="M15.4193 18.8553C14.2451 17.7285 12.5762 16.8404 10.465 16.2116L8.43455 15.6122C7.22017 15.249 6.65295 14.9088 6.39633 14.6921C6.13713 14.465 6.0153 14.1651 6.0153 13.7521C6.0153 13.2147 6.211 12.8324 6.65381 12.5121C7.16877 12.1399 7.96193 11.9435 9.01258 11.9435C10.0425 11.9435 10.9694 12.088 11.7934 12.3769C12.6579 12.6552 13.3387 12.9759 13.8243 13.3486L14.4114 13.7928L15.0192 13.3794C15.4094 13.1193 15.7448 12.7849 16.0064 12.3951C16.3256 11.9305 16.4902 11.3723 16.4902 10.7625C16.4902 10.0808 16.2125 9.44026 15.6871 8.90285C15.2646 8.41702 14.6672 8.01396 13.9362 7.70409C13.318 7.40461 12.5145 7.16668 11.6081 7.01066C10.6754 6.82624 9.72651 6.73622 8.77584 6.74196C6.211 6.74196 4.13044 7.36171 2.57521 8.58128C0.957765 9.83465 0.144291 11.5808 0.144291 13.7508C0.144291 14.6908 0.278214 15.5485 0.555996 16.2926C0.885619 17.0675 1.31849 17.7185 1.88486 18.2767C2.45767 18.8212 3.10271 19.2836 3.80168 19.651C4.58336 20.0279 5.39203 20.3455 6.22094 20.6014L8.85619 21.4179C10.1129 21.7898 10.7104 22.2032 10.9985 22.472C11.3282 22.7922 11.4828 23.2052 11.4828 23.7635C11.4828 24.4248 11.2668 24.931 10.7916 25.3341C10.2866 25.7783 9.42169 25.9954 8.20602 25.9954C7.01151 25.9954 5.99154 25.7991 5.14696 25.396C4.29201 24.9826 3.61246 24.5384 3.12818 24.0959L2.63526 23.6395L2.01705 23.9082C1.49779 24.1396 1.03722 24.4855 0.669615 24.9202C0.226373 25.4372 0 26.0678 0 26.7911C0 27.4937 0.267846 28.1446 0.782801 28.734C1.22561 29.2402 1.83345 29.6745 2.58514 30.0342C3.31654 30.3753 4.17148 30.6544 5.12925 30.8507C6.07708 31.057 7.13809 31.1606 8.28292 31.1606C9.66319 31.1606 10.9182 30.9873 12.0116 30.6544C13.1651 30.3133 14.1436 29.8171 14.9264 29.1661C15.7195 28.5048 16.3377 27.7095 16.7494 26.7898C17.1814 25.8702 17.3975 24.8469 17.3975 23.7622C17.397 21.7174 16.7378 20.0662 15.4193 18.8553ZM15.8115 26.3673C15.4612 27.1422 14.9475 27.8035 14.2662 28.3722C13.5971 28.9299 12.7421 29.3638 11.7122 29.6637C10.7131 29.9734 9.56973 30.1284 8.28205 30.1287C7.2111 30.1287 6.2326 30.0355 5.33618 29.8392C4.45056 29.6533 3.6885 29.4158 3.02925 29.1055C2.40068 28.806 1.90603 28.4554 1.5561 28.0514C1.20574 27.6588 1.03077 27.2354 1.03077 26.7911C1.03077 26.3144 1.17507 25.9244 1.45328 25.5924C1.71891 25.2756 2.05375 25.0245 2.43178 24.8586C2.99728 25.3752 3.74941 25.8611 4.7089 26.3261C5.6874 26.8028 6.86161 27.0286 8.21077 27.0286C9.68392 27.0286 10.7652 26.7292 11.4655 26.1185C12.1658 25.5079 12.5162 24.7234 12.5162 23.7626C12.5162 22.9257 12.2483 22.2457 11.7131 21.7256C11.1778 21.2056 10.3224 20.7752 9.1586 20.4255L6.53198 19.6194C5.76308 19.3813 5.01231 19.0878 4.28553 18.7413C3.63752 18.3898 3.08066 17.9972 2.60675 17.5425C2.14596 17.0806 1.77913 16.5332 1.52672 15.9308C1.28955 15.3002 1.17636 14.5768 1.17636 13.7504C1.17636 11.9006 1.85634 10.454 3.20681 9.39996C4.58693 8.31532 6.44457 7.77459 8.77973 7.77777C9.6715 7.77157 10.5617 7.85462 11.437 8.02567C12.2505 8.17042 12.9512 8.37715 13.5383 8.65625C14.1457 8.91629 14.6093 9.23483 14.9389 9.60668C15.2892 9.95817 15.4642 10.3404 15.4642 10.7638C15.4642 11.1669 15.3614 11.5184 15.145 11.8179C14.963 12.0985 14.7245 12.3379 14.4447 12.5204C13.8679 12.0762 13.0955 11.7043 12.1373 11.3936C11.1998 11.0733 10.1699 10.9077 9.01647 10.9077C7.73945 10.9077 6.74021 11.1678 6.03992 11.6826C5.33964 12.1975 4.98928 12.8814 4.98928 13.7495C4.98928 14.452 5.23639 15.0306 5.73061 15.4748C6.21489 15.8987 7.02663 16.2705 8.14079 16.6016L10.1803 17.1906C12.1373 17.7795 13.6548 18.5885 14.7328 19.6176C15.8249 20.6305 16.3706 22.0048 16.3706 23.7613C16.368 24.7032 16.1816 25.5719 15.8115 26.3673Z" fill="#231F20"/>
<path d="M36.1224 12.5517C35.5971 12.1487 34.8963 11.9419 33.9796 11.9419C33.5812 11.9436 33.1842 11.9887 32.7955 12.0763C32.5424 12.1111 32.2913 12.1596 32.0434 12.2215L31.2709 12.4178V25.7056C31.096 25.7676 30.9003 25.84 30.6735 25.902C30.2099 26.0363 29.6124 26.1087 28.9022 26.1087C27.8827 26.1087 27.0878 25.892 26.5538 25.4785C26.1317 25.1271 25.9058 24.4141 25.9058 23.3809V14.7009C25.9058 13.7401 25.6073 13.0168 25.0202 12.5517C24.545 12.1487 23.846 11.9419 22.9085 11.9419C22.5138 11.9402 22.12 11.9818 21.7343 12.0659C21.471 12.1075 21.21 12.1628 20.9524 12.2315L20.2007 12.4481V23.4533C20.2007 26.0879 21.0038 28.072 22.5798 29.3431C24.1246 30.5518 26.2363 31.1634 28.8629 31.1634C30.2842 31.1634 31.5513 31.0082 32.6119 30.6983C33.704 30.3885 34.5793 30.0482 35.2696 29.6547C35.9492 29.2213 36.4023 28.7762 36.6499 28.2679C36.8866 27.7911 37.0102 27.2138 37.0102 26.5421V14.7009C37.008 13.7384 36.7095 13.0168 36.1224 12.5517ZM35.9781 26.5425C35.9781 27.0596 35.8956 27.483 35.731 27.8033C35.566 28.1339 35.2363 28.4534 34.7525 28.7541C34.1447 29.1052 33.3307 29.4255 32.3332 29.7046C31.3547 29.9837 30.2008 30.1284 28.862 30.1284C26.4622 30.1284 24.5774 29.6014 23.2278 28.5474C21.8995 27.4622 21.2335 25.7641 21.2297 23.4533V13.2252C21.4601 13.1668 21.6934 13.1211 21.9287 13.0883C22.2494 13.0125 22.5778 12.9744 22.9072 12.9747C23.5872 12.9747 24.0814 13.1091 24.3799 13.3674C24.7097 13.6257 24.8746 14.0699 24.8746 14.7001V23.3809C24.8746 24.7345 25.2248 25.7058 25.9252 26.2946C26.6463 26.8528 27.6351 27.1419 28.9018 27.1419C29.7157 27.1419 30.4056 27.0596 30.962 26.894C31.5284 26.7289 31.9712 26.5529 32.3013 26.367V13.2235C32.4866 13.1801 32.7134 13.1303 33.0016 13.0891C33.3221 13.0128 33.6506 12.9746 33.9801 12.9756C34.66 12.9756 35.1547 13.1099 35.4839 13.3682C35.8131 13.6265 35.9785 14.0708 35.9785 14.7009L35.9781 26.5425Z" fill="#231F20"/>
<path d="M231.581 9.01972C231.345 7.57739 230.312 5.10185 226.157 3.85627C220.995 2.29866 215.53 4.62295 215.53 4.62295C214.195 4.99523 212.914 5.55778 211.708 6.2421C210.504 6.93243 209.361 7.72358 208.289 8.60713C207.89 8.93694 207.49 9.27672 207.109 9.61953C206.681 10.0061 206.084 10.0859 206.236 9.72138C207.368 6.85709 209.575 4.19215 212.641 2.33593C219.137 -1.59928 227.023 -0.444285 230.247 4.91072C230.999 6.15998 231.455 7.56571 231.581 9.01972Z" fill="url(#paint0_linear_549_1710)"/>
<path d="M229.258 17.1436C229.729 16.3674 231.264 13.4472 228.64 11.0652C225.496 8.21568 218.888 10.6149 218.888 10.6149C217.555 10.9773 216.273 11.5498 215.067 12.2341C213.863 12.9244 212.719 13.7156 211.648 14.5991C210.569 15.4793 209.547 16.4281 208.588 17.4396C208.2 17.8517 207.009 18.6297 206.401 17.8357C205.804 17.0331 206.911 15.0876 207.365 14.5827C208.286 13.5555 209.266 12.5844 210.303 11.6746C211.343 10.7682 212.457 9.94938 213.632 9.22635C214.802 8.50649 216.058 7.90017 217.378 7.49495C216.043 7.86767 214.772 8.43151 213.566 9.11584C212.362 9.80616 211.218 10.5973 210.147 11.4809C209.261 12.1982 208.417 12.965 207.617 13.7778C207.547 13.8494 207.012 14.424 206.596 14.6602C205.983 15.0013 205.421 14.9736 205.213 14.5801C204.622 13.1499 205.787 11.3729 206.562 10.5894C207.163 9.97309 207.801 9.37241 208.456 8.80379C209.491 7.89439 210.602 7.07493 211.775 6.35426C212.955 5.63396 214.211 5.02721 215.529 4.62285C215.529 4.62285 220.994 2.29857 226.157 3.85618C230.311 5.10175 231.344 7.57729 231.58 9.01962C231.58 9.02959 231.588 9.04086 231.586 9.05083C231.83 11.7613 230.99 14.626 229.258 17.1436Z" fill="url(#paint1_linear_549_1710)"/>
<path d="M229.258 17.1435C229.17 17.2735 229.121 17.3372 229.121 17.3372C227.918 19.0275 226.301 20.556 224.339 21.7435C223.632 22.173 222.913 22.6125 222.122 22.866C220.832 23.2791 218.25 23.9005 217.197 22.2333C216.534 21.178 219.001 20.3641 220.975 19.32C222.839 18.3314 225.204 15.7697 223.794 13.9719C222.685 12.5608 220.035 13.9576 219.375 14.2107C216.996 15.1174 214.463 16.8449 212.38 18.3202C211.811 18.6366 210.997 19.1926 210.482 19.3343C210.228 19.4106 209.155 19.6472 208.772 19.2693C208.549 19.0561 208.418 18.5412 208.769 17.9002C209.039 17.4105 209.746 16.7483 209.898 16.597C210.511 15.9721 211.149 15.3711 211.815 14.7941C212.85 13.8847 213.961 13.0652 215.134 12.3446C216.315 11.6264 217.561 11.0184 218.89 10.6149C218.89 10.6149 225.497 8.21562 228.642 11.0652C231.264 13.4471 229.729 16.3673 229.258 17.1435Z" fill="url(#paint2_linear_549_1710)"/>
<path d="M213.997 24.9686C213.112 26.0245 212.163 27.0242 211.154 27.962C210.15 28.9081 209.067 29.7666 207.917 30.5282C206.765 31.2866 205.547 31.9319 204.236 32.3917H204.226C203.627 32.5989 197.534 34.6801 193.504 32.4199C189.818 30.344 190.37 27.0086 190.707 25.8258C190.729 25.7764 191.915 21.5894 196.791 18.3867C197.482 17.9333 198.173 17.4666 198.963 17.1758C200.151 16.738 202.808 16.0212 203.914 17.643C204.606 18.6757 202.175 19.5846 200.238 20.6841C198.413 21.7376 196.125 24.3813 197.599 26.1284C198.758 27.5009 201.351 26.0157 202.013 25.7383C204.356 24.7554 206.833 22.9334 208.867 21.3957C209.421 21.0559 210.216 20.4739 210.725 20.3122C210.978 20.232 212.041 19.9521 212.438 20.3196C212.66 20.5298 212.811 21.0282 212.484 21.6887C212.234 22.1914 211.546 22.8679 211.399 23.0322C210.803 23.6719 210.187 24.3007 209.553 24.8988C208.546 25.8419 207.463 26.7002 206.316 27.4649C205.164 28.2134 203.926 28.8579 202.625 29.3194C203.945 28.899 205.2 28.2953 206.382 27.5681C207.561 26.8368 208.676 26.0066 209.715 25.0865C210.762 24.1687 211.75 23.1872 212.676 22.1476C213.054 21.7203 214.219 20.8908 214.849 21.6709C215.48 22.451 214.439 24.4334 213.997 24.9686Z" fill="url(#paint3_linear_549_1710)"/>
<path d="M215.291 29.7848C214.254 32.679 212.143 35.4189 209.131 37.3817C202.775 41.5328 194.864 40.6569 191.453 35.4055C189.639 32.5997 189.466 29.0948 190.708 25.8275C190.37 27.0102 189.819 30.3456 193.504 32.4215C197.534 34.6817 203.627 32.6005 204.226 32.3934H204.236C205.556 31.973 206.802 31.3589 207.983 30.6316C209.163 29.9144 210.279 29.0636 211.327 28.1505C212.178 27.3998 213.001 26.608 213.775 25.7742C213.838 25.6966 214.352 25.1137 214.763 24.8584C215.358 24.5 215.93 24.5026 216.146 24.8931C216.782 26.3055 215.689 28.1115 214.945 28.9167C214.359 29.5668 213.744 30.1735 213.109 30.7738C212.102 31.7171 211.018 32.5754 209.87 33.3399C208.718 34.0983 207.48 34.7428 206.18 35.194C207.499 34.784 208.755 34.1703 209.936 33.4431C211.117 32.7094 212.235 31.8794 213.28 30.9614C213.664 30.6251 214.049 30.268 214.424 29.9113C214.841 29.5057 215.425 29.4181 215.291 29.7848Z" fill="url(#paint4_linear_549_1710)"/>
<path d="M110.222 18.5737C110.213 18.5934 110.209 18.6148 110.211 18.6361" stroke="#231F20" stroke-width="0.1" stroke-miterlimit="10"/>
</g>
<defs>
<linearGradient id="paint0_linear_549_1710" x1="206.212" y1="4.9779" x2="231.581" y2="4.9779" gradientUnits="userSpaceOnUse">
<stop stop-color="#EAD11C"/>
<stop offset="0.6" stop-color="#EACF1C"/>
<stop offset="1" stop-color="#E0AF1C"/>
</linearGradient>
<linearGradient id="paint1_linear_549_1710" x1="205.051" y1="10.7489" x2="231.628" y2="10.7489" gradientUnits="userSpaceOnUse">
<stop stop-color="#339833"/>
<stop offset="0.5" stop-color="#327935"/>
<stop offset="1" stop-color="#2B6545"/>
</linearGradient>
<linearGradient id="paint2_linear_549_1710" x1="208.557" y1="18.7991" x2="230.325" y2="14.9731" gradientUnits="userSpaceOnUse">
<stop offset="0.17" stop-color="#C54432"/>
<stop offset="0.67" stop-color="#B73432"/>
<stop offset="1" stop-color="#A33432"/>
</linearGradient>
<linearGradient id="paint3_linear_549_1710" x1="191.467" y1="30.7535" x2="212.964" y2="18.3821" gradientUnits="userSpaceOnUse">
<stop stop-color="#2A45A1"/>
<stop offset="1" stop-color="#2A60D0"/>
</linearGradient>
<linearGradient id="paint4_linear_549_1710" x1="189.909" y1="32.2976" x2="216.336" y2="32.2976" gradientUnits="userSpaceOnUse">
<stop stop-color="#E0AF1C"/>
<stop offset="0.66" stop-color="#EAD11C"/>
</linearGradient>
<clipPath id="clip0_549_1710">
<rect width="231.628" height="40" fill="white"/>
</clipPath>
</defs>
</svg>
