<svg width="232" height="43" viewBox="0 0 232 43" fill="none" xmlns="http://www.w3.org/2000/svg">
<path fill-rule="evenodd" clip-rule="evenodd" d="M8.8599 24.0229L6.2244 23.1932C5.36539 22.9161 4.57047 22.598 3.84221 22.2371L3.82269 22.2274L3.80358 22.2169C3.08007 21.819 2.44141 21.3579 1.89804 20.828L1.88846 20.8187L1.87912 20.8091C1.31811 20.2332 0.881002 19.5674 0.572151 18.818L0.563005 18.7958L0.554852 18.7732C0.270706 17.9856 0.140195 17.1137 0.140195 16.1749C0.140195 13.9821 0.943418 12.1748 2.57097 10.878C4.18315 9.58808 6.28792 9 8.77659 9C9.78739 9 10.7392 9.08807 11.6285 9.26955C12.5005 9.42405 13.2855 9.66015 13.9672 9.99291C14.6524 10.2934 15.2481 10.6878 15.6983 11.2061C16.191 11.7221 16.5017 12.3667 16.5017 13.1166C16.5017 13.7194 16.3434 14.2901 16.0083 14.7905C15.7467 15.1913 15.4175 15.5284 15.0263 15.7961L14.4153 16.2142L13.8307 15.7581C13.3683 15.3973 12.7138 15.0608 11.8297 14.773L11.8151 14.7682L11.8007 14.7631C10.9912 14.4722 10.0687 14.3187 9.02193 14.3187C7.85607 14.3187 7.11011 14.5609 6.6524 14.9054C6.21451 15.2351 6.02218 15.6267 6.02218 16.1749C6.02218 16.6098 6.15481 16.9034 6.40884 17.1437C6.73491 17.4257 7.36954 17.7546 8.43435 18.0734L8.43567 18.0738L10.4726 18.6867C12.5316 19.3158 14.2109 20.2081 15.4392 21.4109C16.7831 22.6778 17.413 24.3951 17.413 26.4293C17.413 27.5319 17.1976 28.5724 16.757 29.5361C16.3394 30.4767 15.7279 31.2856 14.9365 31.958C14.1315 32.6419 13.1478 33.1443 12.0159 33.4879C10.8964 33.835 9.64906 34 8.28591 34C7.15239 34 6.09859 33.8989 5.12946 33.6895C4.18374 33.4851 3.33505 33.2111 2.59452 32.8582L2.58138 32.8519C1.86438 32.4975 1.24932 32.0609 0.783608 31.5191C0.30074 30.9573 0 30.2852 0 29.5236C0 28.8143 0.214187 28.156 0.668752 27.6116C1.04437 27.1617 1.49565 26.8105 2.01961 26.5752L2.63456 26.299L3.12935 26.7646C3.59351 27.2014 4.25901 27.6517 5.15833 28.1025C5.97069 28.4987 6.97918 28.7172 8.21582 28.7172C9.57758 28.7172 10.3696 28.4234 10.8002 28.0403C11.2669 27.6251 11.496 27.1174 11.496 26.4293C11.496 25.813 11.3147 25.4082 11.0081 25.1072C10.6406 24.7463 9.96653 24.3638 8.86592 24.0248L8.8599 24.0229ZM4.71095 29.0559C3.75295 28.5761 2.99357 28.0724 2.43279 27.5447C2.05894 27.7126 1.73182 27.9645 1.45143 28.3003C1.17104 28.6361 1.03084 29.0439 1.03084 29.5236C1.03084 29.9794 1.20609 30.4111 1.55657 30.8189C1.90706 31.2267 2.39774 31.5865 3.02862 31.8983C3.68286 32.2102 4.45393 32.462 5.34183 32.6539C6.22973 32.8458 7.21109 32.9418 8.28591 32.9418C9.57103 32.9418 10.716 32.7858 11.7207 32.474C12.7488 32.1622 13.6016 31.7184 14.2792 31.1427C14.9568 30.567 15.4709 29.8834 15.8214 29.0919C16.1952 28.2763 16.3822 27.3888 16.3822 26.4293C16.3822 24.6303 15.8331 23.2151 14.7349 22.1836C13.66 21.1282 12.1413 20.3007 10.1785 19.701L8.14572 19.0893C7.02416 18.7535 6.21804 18.3697 5.72736 17.9379C5.23668 17.4822 4.99134 16.8945 4.99134 16.1749C4.99134 15.2874 5.34183 14.5798 6.0428 14.0521C6.74377 13.5244 7.73682 13.2605 9.02193 13.2605C10.1669 13.2605 11.2066 13.4284 12.1413 13.7642C13.0993 14.0761 13.8703 14.4598 14.4545 14.9156C14.7349 14.7237 14.9685 14.4838 15.1554 14.196C15.3657 13.8842 15.4709 13.5244 15.4709 13.1166C15.4709 12.6848 15.2956 12.289 14.9452 11.9292C14.618 11.5454 14.1507 11.2216 13.5432 10.9578C12.9591 10.6699 12.2581 10.454 11.4403 10.3101C10.6225 10.1422 9.73459 10.0582 8.77659 10.0582C6.44002 10.0582 4.58244 10.6099 3.20386 11.7133C1.84864 12.7928 1.17104 14.2799 1.17104 16.1749C1.17104 17.0144 1.28787 17.758 1.52152 18.4057C1.77855 19.0294 2.14072 19.581 2.60803 20.0608C3.07535 20.5165 3.63613 20.9243 4.29037 21.2841C4.96797 21.6199 5.71568 21.9198 6.53348 22.1836L9.16213 23.0112C10.3304 23.371 11.1833 23.8147 11.7207 24.3424C12.2581 24.8702 12.5268 25.5658 12.5268 26.4293C12.5268 27.4128 12.1763 28.2163 11.4753 28.84C10.7744 29.4637 9.68786 29.7755 8.21582 29.7755C6.8606 29.7755 5.69231 29.5356 4.71095 29.0559ZM19.1828 14.837L19.9305 14.6177C20.1475 14.554 20.4181 14.4999 20.7217 14.4511C21.0984 14.3653 21.491 14.3251 21.896 14.3251C22.6543 14.3251 23.4388 14.4633 24.0195 14.9589C24.6907 15.51 24.8896 16.3514 24.8896 17.1464V26.0335C24.8896 27.2515 25.1925 27.8751 25.5567 28.1953C26.0433 28.575 26.7828 28.8252 27.8893 28.8252C28.6453 28.8252 29.2306 28.7468 29.6686 28.6156C29.8947 28.5479 30.0904 28.4809 30.2582 28.4157V14.8089L31.039 14.6086C31.2543 14.5533 31.5068 14.5017 31.7906 14.4526C32.1693 14.3657 32.564 14.3251 32.9714 14.3251C33.7457 14.3251 34.5236 14.4697 35.1154 14.947C35.7983 15.4979 36 16.3457 36 17.1464V29.2718C36 29.9012 35.904 30.5103 35.6458 31.0403C35.3608 31.6256 34.8526 32.0777 34.285 32.4383L34.2714 32.447L34.2576 32.4552C33.5491 32.8747 32.6546 33.2273 31.6041 33.5284C30.5083 33.8494 29.2532 34 27.8543 34C25.3091 34 23.1758 33.4302 21.5795 32.1587L21.5717 32.1525L21.5641 32.1462C19.9115 30.7771 19.1828 28.6803 19.1828 26.1055V14.837ZM31.3241 32.51C32.3288 32.2222 33.1349 31.8983 33.7425 31.5385C34.2331 31.2267 34.5603 30.9029 34.7238 30.5671C34.8874 30.2312 34.9692 29.7995 34.9692 29.2718V17.1464C34.9692 16.4987 34.8056 16.043 34.4785 15.7791C34.1514 15.5153 33.649 15.3833 32.9714 15.3833C32.6209 15.3833 32.2938 15.4193 31.99 15.4913C31.7096 15.5393 31.476 15.5872 31.2891 15.6352V29.0919C30.9619 29.2837 30.518 29.4637 29.9572 29.6316C29.3964 29.7995 28.7071 29.8834 27.8893 29.8834C26.6276 29.8834 25.6345 29.5956 24.9102 29.0199C24.2092 28.4202 23.8587 27.4248 23.8587 26.0335V17.1464C23.8587 16.4987 23.6952 16.043 23.3681 15.7791C23.0643 15.5153 22.5736 15.3833 21.896 15.3833C21.5455 15.3833 21.2184 15.4193 20.9147 15.4913C20.6109 15.5393 20.3772 15.5872 20.2137 15.6352V26.1055C20.2137 28.4802 20.8796 30.2192 22.2115 31.3226C23.5667 32.402 25.4476 32.9418 27.8543 32.9418C29.1861 32.9418 30.3427 32.7978 31.3241 32.51Z" fill="white"/>
<path d="M56.9599 26.0961C56.9599 27.2521 56.7672 28.3061 56.3819 29.2581C56.0192 30.2101 55.4752 31.0261 54.7499 31.7061C54.0472 32.3861 53.1745 32.9074 52.1319 33.2701C51.1119 33.6327 49.9332 33.8141 48.5959 33.8141C47.2812 33.8141 46.1025 33.6327 45.0599 33.2701C44.0399 32.9074 43.1672 32.3861 42.4419 31.7061C41.7392 31.0261 41.1952 30.2101 40.8099 29.2581C40.4472 28.3061 40.2659 27.2521 40.2659 26.0961V12.7001C40.4245 12.6547 40.6625 12.6094 40.9799 12.5641C41.2972 12.4961 41.6259 12.4621 41.9659 12.4621C42.6232 12.4621 43.1105 12.5867 43.4279 12.8361C43.7452 13.0854 43.9039 13.5274 43.9039 14.1621V25.8921C43.9039 27.5014 44.3459 28.7254 45.2299 29.5641C46.1365 30.4027 47.2585 30.8221 48.5959 30.8221C49.2759 30.8221 49.8992 30.7201 50.4659 30.5161C51.0325 30.2894 51.5312 29.9721 51.9619 29.5641C52.3925 29.1561 52.7212 28.6461 52.9479 28.0341C53.1972 27.4221 53.3219 26.7081 53.3219 25.8921V12.7001C53.4805 12.6547 53.7185 12.6094 54.0359 12.5641C54.3532 12.4961 54.6819 12.4621 55.0219 12.4621C55.6792 12.4621 56.1665 12.5867 56.4839 12.8361C56.8012 13.0854 56.9599 13.5274 56.9599 14.1621V26.0961Z" fill="white"/>
<path d="M65.6748 33.2701C65.5161 33.3381 65.2894 33.3947 64.9948 33.4401C64.7228 33.5081 64.4168 33.5421 64.0768 33.5421C63.4194 33.5421 62.9321 33.4174 62.6148 33.1681C62.2974 32.9187 62.1388 32.4994 62.1388 31.9101V11.2721C62.2974 11.2267 62.5241 11.1701 62.8188 11.1021C63.1134 11.0341 63.4308 11.0001 63.7708 11.0001C64.4281 11.0001 64.9041 11.1247 65.1988 11.3741C65.5161 11.6234 65.6748 12.0427 65.6748 12.6321V24.0221L72.6788 17.1201C73.4041 17.1427 73.9708 17.3127 74.3788 17.6301C74.8094 17.9474 75.0248 18.3554 75.0248 18.8541C75.0248 19.2621 74.8888 19.6247 74.6168 19.9421C74.3448 20.2594 73.9481 20.6447 73.4268 21.0981L68.9048 25.0761L75.9088 31.4681C75.8408 32.1254 75.6368 32.6467 75.2968 33.0321C74.9794 33.3947 74.5261 33.5761 73.9368 33.5761C73.4834 33.5761 73.0754 33.4627 72.7128 33.2361C72.3728 33.0094 71.9988 32.6694 71.5908 32.2161L65.6748 25.9601V33.2701Z" fill="white"/>
<path d="M82.806 33.2701C82.6473 33.3381 82.4207 33.3947 82.126 33.4401C81.854 33.5081 81.548 33.5421 81.208 33.5421C80.5506 33.5421 80.0633 33.4174 79.746 33.1681C79.4286 32.9187 79.27 32.4994 79.27 31.9101V20.7581C79.27 20.1914 79.3833 19.7381 79.61 19.3981C79.8366 19.0354 80.1993 18.6954 80.698 18.3781C81.3553 17.9701 82.194 17.6301 83.214 17.3581C84.234 17.0861 85.356 16.9501 86.58 16.9501C88.5746 16.9501 89.572 17.5167 89.572 18.6501C89.572 18.9221 89.5266 19.1827 89.436 19.4321C89.3453 19.6587 89.2433 19.8627 89.13 20.0441C88.9033 19.9987 88.62 19.9534 88.28 19.9081C87.94 19.8627 87.5773 19.8401 87.192 19.8401C86.2853 19.8401 85.458 19.9421 84.71 20.1461C83.962 20.3274 83.3273 20.5654 82.806 20.8601V33.2701Z" fill="white"/>
<path d="M98.2364 31.0601C99.0297 31.0601 99.7211 30.9807 100.31 30.8221C100.9 30.6634 101.319 30.4934 101.568 30.3121V25.9941L97.8624 26.3681C96.8197 26.4814 96.0377 26.7194 95.5164 27.0821C94.9951 27.4221 94.7344 27.9547 94.7344 28.6801C94.7344 29.4281 95.0177 30.0174 95.5844 30.4481C96.1511 30.8561 97.0351 31.0601 98.2364 31.0601ZM98.1684 16.9501C100.276 16.9501 101.954 17.4147 103.2 18.3441C104.447 19.2507 105.07 20.6901 105.07 22.6621V30.5841C105.07 31.1054 104.946 31.5134 104.696 31.8081C104.47 32.0801 104.152 32.3407 103.744 32.5901C103.155 32.9301 102.396 33.2247 101.466 33.4741C100.537 33.7234 99.4604 33.8481 98.2364 33.8481C96.0377 33.8481 94.3151 33.4174 93.0684 32.5561C91.8444 31.6947 91.2324 30.4254 91.2324 28.7481C91.2324 27.2521 91.7084 26.1074 92.6604 25.3141C93.6351 24.5207 95.0291 24.0334 96.8424 23.8521L101.568 23.3761V22.6281C101.568 21.6307 101.24 20.9054 100.582 20.4521C99.9477 19.9987 99.0524 19.7721 97.8964 19.7721C96.9897 19.7721 96.1171 19.8967 95.2784 20.1461C94.4397 20.3954 93.6917 20.6787 93.0344 20.9961C92.8077 20.8147 92.6151 20.5994 92.4564 20.3501C92.2977 20.0781 92.2184 19.7834 92.2184 19.4661C92.2184 19.0807 92.3091 18.7634 92.4904 18.5141C92.6944 18.2647 93.0004 18.0494 93.4084 17.8681C94.0431 17.5507 94.7684 17.3241 95.5844 17.1881C96.4004 17.0294 97.2617 16.9501 98.1684 16.9501Z" fill="white"/>
<path d="M113.324 33.2701C113.165 33.3381 112.938 33.3947 112.644 33.4401C112.372 33.5081 112.054 33.5421 111.692 33.5421C111.034 33.5421 110.547 33.4174 110.23 33.1681C109.912 32.9187 109.754 32.4994 109.754 31.9101V17.5281C109.935 17.4827 110.162 17.4261 110.434 17.3581C110.728 17.2901 111.057 17.2561 111.42 17.2561C112.077 17.2561 112.553 17.3807 112.848 17.6301C113.165 17.8794 113.324 18.3101 113.324 18.9221V33.2701ZM109.38 12.5301C109.38 11.9407 109.584 11.4534 109.992 11.0681C110.4 10.6601 110.921 10.4561 111.556 10.4561C112.19 10.4561 112.7 10.6601 113.086 11.0681C113.471 11.4534 113.664 11.9407 113.664 12.5301C113.664 13.1194 113.471 13.6181 113.086 14.0261C112.7 14.4114 112.19 14.6041 111.556 14.6041C110.921 14.6041 110.4 14.4114 109.992 14.0261C109.584 13.6181 109.38 13.1194 109.38 12.5301Z" fill="white"/>
<path d="M128.928 23.0361C128.928 21.9254 128.611 21.1094 127.976 20.5881C127.364 20.0667 126.525 19.8061 125.46 19.8061C124.667 19.8061 123.953 19.9081 123.318 20.1121C122.706 20.3161 122.173 20.5427 121.72 20.7921V33.2701C121.561 33.3381 121.335 33.3947 121.04 33.4401C120.768 33.5081 120.462 33.5421 120.122 33.5421C119.465 33.5421 118.977 33.4174 118.66 33.1681C118.343 32.9187 118.184 32.4994 118.184 31.9101V20.6901C118.184 20.1687 118.286 19.7494 118.49 19.4321C118.694 19.1147 119.034 18.7974 119.51 18.4801C120.145 18.0947 120.972 17.7434 121.992 17.4261C123.012 17.1087 124.168 16.9501 125.46 16.9501C127.659 16.9501 129.381 17.4487 130.628 18.4461C131.875 19.4207 132.498 20.9054 132.498 22.9001V33.2701C132.339 33.3381 132.113 33.3947 131.818 33.4401C131.523 33.5081 131.206 33.5421 130.866 33.5421C130.209 33.5421 129.721 33.4174 129.404 33.1681C129.087 32.9187 128.928 32.4994 128.928 31.9101V23.0361Z" fill="white"/>
<path d="M143.16 31.0601C143.954 31.0601 144.645 30.9807 145.234 30.8221C145.824 30.6634 146.243 30.4934 146.492 30.3121V25.9941L142.786 26.3681C141.744 26.4814 140.962 26.7194 140.44 27.0821C139.919 27.4221 139.658 27.9547 139.658 28.6801C139.658 29.4281 139.942 30.0174 140.508 30.4481C141.075 30.8561 141.959 31.0601 143.16 31.0601ZM143.092 16.9501C145.2 16.9501 146.878 17.4147 148.124 18.3441C149.371 19.2507 149.994 20.6901 149.994 22.6621V30.5841C149.994 31.1054 149.87 31.5134 149.62 31.8081C149.394 32.0801 149.076 32.3407 148.668 32.5901C148.079 32.9301 147.32 33.2247 146.39 33.4741C145.461 33.7234 144.384 33.8481 143.16 33.8481C140.962 33.8481 139.239 33.4174 137.992 32.5561C136.768 31.6947 136.156 30.4254 136.156 28.7481C136.156 27.2521 136.632 26.1074 137.584 25.3141C138.559 24.5207 139.953 24.0334 141.766 23.8521L146.492 23.3761V22.6281C146.492 21.6307 146.164 20.9054 145.506 20.4521C144.872 19.9987 143.976 19.7721 142.82 19.7721C141.914 19.7721 141.041 19.8967 140.202 20.1461C139.364 20.3954 138.616 20.6787 137.958 20.9961C137.732 20.8147 137.539 20.5994 137.38 20.3501C137.222 20.0781 137.142 19.7834 137.142 19.4661C137.142 19.0807 137.233 18.7634 137.414 18.5141C137.618 18.2647 137.924 18.0494 138.332 17.8681C138.967 17.5507 139.692 17.3241 140.508 17.1881C141.324 17.0294 142.186 16.9501 143.092 16.9501Z" fill="white"/>
<path d="M152.807 31.5361C152.807 30.8787 153 30.3347 153.385 29.9041C153.793 29.4734 154.349 29.2581 155.051 29.2581C155.777 29.2581 156.332 29.4734 156.717 29.9041C157.103 30.3347 157.295 30.8787 157.295 31.5361C157.295 32.1934 157.103 32.7374 156.717 33.1681C156.332 33.5987 155.777 33.8141 155.051 33.8141C154.349 33.8141 153.793 33.5987 153.385 33.1681C153 32.7374 152.807 32.1934 152.807 31.5361Z" fill="white"/>
<path d="M162.428 33.5421C161.771 33.5421 161.284 33.4174 160.966 33.1681C160.649 32.9187 160.49 32.4994 160.49 31.9101V11.2721C160.649 11.2267 160.876 11.1701 161.17 11.1021C161.465 11.0341 161.782 11.0001 162.122 11.0001C162.78 11.0001 163.267 11.1247 163.584 11.3741C163.902 11.6234 164.06 12.0427 164.06 12.6321V33.2701C163.879 33.3381 163.641 33.3947 163.346 33.4401C163.074 33.5081 162.768 33.5421 162.428 33.5421Z" fill="white"/>
<path d="M172.522 28.6801C172.522 29.4961 172.76 30.0741 173.236 30.4141C173.712 30.7541 174.38 30.9241 175.242 30.9241C175.627 30.9241 176.035 30.8674 176.466 30.7541C176.896 30.6407 177.27 30.5047 177.588 30.3461C177.746 30.5274 177.882 30.7314 177.996 30.9581C178.132 31.1847 178.2 31.4567 178.2 31.7741C178.2 32.3634 177.894 32.8507 177.282 33.2361C176.692 33.6214 175.786 33.8141 174.562 33.8141C172.862 33.8141 171.502 33.4401 170.482 32.6921C169.484 31.9214 168.986 30.6634 168.986 28.9181V13.0401C169.144 12.9947 169.371 12.9381 169.666 12.8701C169.96 12.8021 170.278 12.7681 170.618 12.7681C171.275 12.7681 171.751 12.8927 172.046 13.1421C172.363 13.3914 172.522 13.8107 172.522 14.4001V17.7661H177.792C177.882 17.9021 177.962 18.0947 178.03 18.3441C178.12 18.5934 178.166 18.8541 178.166 19.1261C178.166 20.1007 177.746 20.5881 176.908 20.5881H172.522V28.6801Z" fill="white"/>
<g clip-path="url(#clip0_107_13558)">
<mask id="mask0_107_13558" style="mask-type:alpha" maskUnits="userSpaceOnUse" x="200" y="0" width="31" height="37">
<path d="M201.346 17.5287L201.346 17.529C200.975 27.2589 207.155 35.2192 214.948 35.5151C222.74 35.8107 229.508 28.3419 229.879 18.6133L229.879 18.6133C230.043 14.2889 228.907 10.2927 226.901 7.17212C226.904 7.21129 226.908 7.25152 226.914 7.29253C226.914 7.29268 226.915 7.29282 226.915 7.29296L226.527 7.35194C226.648 8.0156 226.754 8.68226 226.844 9.3519L226.844 9.3531C226.844 9.35652 226.845 9.35994 226.845 9.36336C226.845 9.36339 226.845 9.36341 226.845 9.36343C227.082 11.1658 227.196 12.9933 227.13 14.8229C227.13 14.8272 227.13 14.8315 227.129 14.8358C227.063 16.665 226.813 18.5003 226.301 20.2798L225.82 20.1416L225.344 19.9888C225.881 18.3172 226.176 16.5634 226.296 14.7929C226.296 14.7886 226.296 14.7843 226.296 14.78C226.415 13.0087 226.359 11.2196 226.18 9.44093L225.853 9.48494C225.853 9.48474 225.853 9.48455 225.853 9.48436M201.346 17.5287L226.18 9.44052L225.852 9.48374C225.852 9.48394 225.852 9.48415 225.853 9.48436M201.346 17.5287C201.386 16.4701 201.505 15.4158 201.701 14.3747M201.346 17.5287L201.701 14.3747M225.853 9.48436C225.703 8.37205 225.51 7.26827 225.272 6.17298L225.272 6.17124C225.132 5.51796 224.805 4.59377 224.286 3.79808C223.768 3.00446 223.107 2.4092 222.318 2.24801M225.853 9.48436L205.404 15.5459M216.399 3.67916C216.343 3.52171 216.282 3.37569 216.216 3.2525C215.764 2.40749 215.117 2.18561 214.726 2.26951M216.399 3.67916L212.538 17.8519C212.566 17.6984 212.591 17.5689 212.613 17.4709C213.334 14.2311 213.27 10.2226 213.173 6.89305M216.399 3.67916C216.531 4.26207 216.652 4.84755 216.76 5.43523L216.333 5.52772C216.333 5.52779 216.333 5.52786 216.333 5.52793M216.399 3.67916L216.76 5.43526L216.333 5.52793M214.726 2.26951C214.039 2.41762 213.525 3.76716 213.42 4.09708C213.266 4.58265 213.235 5.40775 213.207 6.14832C213.197 6.41396 213.188 6.66873 213.173 6.89305M214.726 2.26951L214.831 2.75838C214.831 2.75836 214.831 2.75835 214.831 2.75834M214.726 2.26951L214.832 2.7583C214.832 2.75831 214.831 2.75833 214.831 2.75834M213.173 6.89305L213.672 6.92579C213.672 6.91785 213.673 6.90988 213.673 6.90187M213.173 6.89305L213.673 6.87841C213.673 6.88623 213.673 6.89404 213.673 6.90187M213.673 6.90187C213.77 10.2176 213.836 14.277 213.101 17.5796L213.101 17.5798C213.083 17.6607 213.061 17.775 213.035 17.9152C212.932 18.4669 212.753 19.4191 212.408 20.315C211.98 21.4278 211.216 22.6707 209.808 22.9636L209.749 22.9758L209.689 22.9737C207.869 22.9112 206.794 21.3271 206.199 19.7958C205.59 18.2277 205.375 16.4581 205.404 15.5459M213.673 6.90187C213.687 6.68752 213.696 6.44964 213.705 6.2094L213.707 6.16851C213.716 5.92993 213.725 5.68805 213.738 5.45195C213.767 4.93758 213.814 4.51023 213.897 4.24804L213.42 4.09709L213.897 4.24839C213.942 4.10629 214.084 3.72138 214.289 3.36364C214.391 3.1849 214.5 3.02988 214.607 2.91754C214.719 2.80108 214.796 2.76597 214.831 2.75834M205.404 15.5459L205.904 15.5621L205.404 15.5459C205.404 15.5459 205.404 15.5459 205.404 15.5459ZM205.404 15.5459C205.429 14.7946 205.515 14.0258 205.603 13.3092C205.616 13.1979 205.63 13.0882 205.643 12.98C205.717 12.3825 205.785 11.8339 205.816 11.3485C205.853 10.7618 205.828 10.3496 205.738 10.0978C205.697 9.98207 205.653 9.93122 205.622 9.90747C205.596 9.88699 205.545 9.85888 205.431 9.8568L205.404 15.5459ZM214.831 2.75834C214.943 2.7345 215.395 2.77875 215.775 3.48853L215.775 3.4887C215.913 3.74592 216.038 4.16312 216.138 4.5883C216.208 4.88071 216.254 5.12253 216.289 5.30484C216.306 5.39368 216.32 5.46838 216.333 5.52793M216.333 5.52793C216.572 6.63084 216.767 7.74225 216.918 8.86218M216.918 8.86218C217.15 10.6226 217.259 12.3967 217.196 14.165C217.132 15.933 216.892 17.6898 216.405 19.3813L217.362 19.6723C217.929 17.9051 218.236 16.0644 218.36 14.2249C218.483 12.3851 218.424 10.5354 218.24 8.70811L218.24 8.70666C218.05 6.87989 217.747 5.0667 217.332 3.27763M216.918 8.86218C216.918 8.86241 216.918 8.86264 216.918 8.86287L217.246 8.81878L217.246 8.81831L216.918 8.86148C216.918 8.86171 216.918 8.86195 216.918 8.86218ZM217.332 3.27763C217.264 2.97822 217.229 2.41326 217.35 1.93644C217.409 1.70158 217.497 1.52352 217.604 1.40696C217.7 1.30185 217.825 1.22981 218.019 1.21732C218.17 1.20752 218.377 1.27402 218.64 1.48125C218.897 1.68473 219.16 1.98558 219.405 2.33698C219.9 3.04569 220.258 3.85836 220.354 4.22485L220.354 4.22576C220.809 5.94473 221.155 7.69038 221.393 9.45257M217.332 3.27763C217.333 3.27778 217.333 3.27793 217.333 3.27808L216.845 3.39011L217.332 3.27717C217.332 3.27732 217.332 3.27747 217.332 3.27763ZM221.393 9.45257C221.624 11.2129 221.734 12.9872 221.671 14.7552C221.607 16.5231 221.367 18.2803 220.88 19.9718L221.837 20.2624C222.403 18.4939 222.71 16.6537 222.834 14.8147C222.957 12.9752 222.898 11.125 222.714 9.29771L222.714 9.29664C222.56 7.80273 222.329 6.31783 222.021 4.84793C222.018 4.83156 222.012 4.80821 222.006 4.7787C221.98 4.65978 221.931 4.44087 221.887 4.17637C221.83 3.83899 221.791 3.4836 221.809 3.23364L221.809 3.23361C221.837 2.84081 221.941 2.56446 222.057 2.40769C222.155 2.27395 222.242 2.2447 222.318 2.24801M221.393 9.45257C221.393 9.45237 221.393 9.45217 221.392 9.45198L221.72 9.40884L221.566 4.94282C221.913 6.38684 222.186 7.84779 222.384 9.32L222.384 9.32134C222.384 9.32438 222.385 9.32741 222.385 9.33045C222.385 9.33057 222.385 9.33069 222.385 9.33081C222.622 11.1334 222.736 12.9612 222.67 14.7912C222.67 14.7953 222.67 14.7995 222.67 14.8037C222.603 16.633 222.353 18.4686 221.841 20.2481L221.361 20.1099L220.885 19.9575C221.42 18.2845 221.715 16.5309 221.835 14.7611C221.835 14.7566 221.836 14.7521 221.836 14.7476C221.955 12.9775 221.899 11.188 221.72 9.40929L221.393 9.45332C221.393 9.45307 221.393 9.45282 221.393 9.45257ZM222.318 2.24801C222.31 2.24631 222.301 2.24467 222.293 2.24306L222.387 1.75203M222.318 2.24801C222.324 2.24826 222.329 2.2487 222.335 2.24928L222.387 1.75203M222.387 1.75203C221.804 1.69067 221.375 2.28911 221.31 3.19782L225.761 6.06691C225.461 4.66103 224.369 2.1323 222.387 1.75203ZM201.701 14.3747C201.759 14.07 202.149 12.8856 202.839 11.7886M201.701 14.3747L202.839 11.7886M202.839 11.7886C203.547 10.6627 204.436 9.83896 205.43 9.8568L202.839 11.7886ZM221.566 4.94277L221.532 4.95006L221.566 4.94277ZM221.719 9.399L221.888 9.38165C221.887 9.38142 221.887 9.38119 221.887 9.38095L221.719 9.39794C221.719 9.39808 221.719 9.39822 221.719 9.39836C221.719 9.39858 221.719 9.39879 221.719 9.399ZM226.993 6.6141C226.993 6.61447 226.991 6.61795 226.986 6.62341C226.99 6.61645 226.992 6.61372 226.993 6.6141Z" fill="#1FBE11" stroke="black"/>
</mask>
<g mask="url(#mask0_107_13558)">
<path d="M214.929 36.0147C206.773 35.7051 200.469 27.4203 200.847 17.5099C200.887 16.4265 201.009 15.3475 201.21 14.2821C201.351 13.536 202.874 9.31079 205.44 9.35688C207.061 9.38621 205.998 12.6542 205.904 15.5621C205.849 17.2556 206.721 22.3715 209.706 22.474C211.995 21.998 212.409 18.3812 212.613 17.4709C213.334 14.2311 213.27 10.2226 213.173 6.89305C213.229 6.04338 213.211 4.75683 213.42 4.09708C213.525 3.76716 214.039 2.41762 214.726 2.26951C215.117 2.18561 215.764 2.40749 216.216 3.2525C216.559 3.89176 216.762 5.1456 216.822 5.42179C217.064 6.53802 217.261 7.66283 217.414 8.79623C217.648 10.5795 217.76 12.382 217.695 14.1829C217.631 15.9838 217.386 17.7819 216.886 19.5194C217.439 17.7981 217.74 15.9985 217.861 14.1914C217.982 12.3843 217.924 10.5631 217.742 8.75822C217.555 6.95194 217.255 5.1591 216.845 3.39011C216.679 2.66493 216.684 0.802494 217.986 0.718359C219.289 0.634225 220.61 3.22886 220.838 4.09796C221.297 5.83728 221.648 7.60361 221.888 9.38666C222.123 11.1697 222.235 12.9725 222.17 14.7732C222.105 16.5739 221.86 18.3724 221.361 20.1099C221.912 18.3871 222.213 16.5878 222.335 14.7812C222.456 12.9745 222.398 11.1527 222.216 9.34782C222.064 7.87102 221.836 6.40312 221.532 4.95006C221.504 4.81773 221.265 3.82381 221.31 3.19782C221.375 2.28911 221.804 1.69067 222.387 1.75203C224.369 2.1323 225.461 4.66103 225.761 6.06691C226.001 7.17549 226.197 8.29266 226.348 9.41842C226.583 11.2015 226.695 13.0042 226.63 14.8049C226.565 16.6056 226.32 18.4039 225.82 20.1416C226.373 18.4201 226.674 16.6207 226.795 14.8134C226.916 13.0061 226.859 11.1851 226.677 9.38041C226.609 8.7072 226.523 8.03647 226.42 7.3682C226.307 6.62104 226.652 5.92005 226.944 6.33773C229.242 9.62519 230.557 13.947 230.378 18.6323C230.001 28.5413 223.084 36.3241 214.929 36.0147Z" fill="#FDB913"/>
<path d="M218.394 25.7477C224.287 17.7929 222.066 9.10867 220.941 2.11475L232.418 -3.72407L247.86 36.0271L203.692 49.2277L201 33C203.616 32.6415 212 34.3795 218.394 25.7477Z" fill="#006A44"/>
<path d="M222.32 28.2405C228.722 18.9126 226.784 7.57602 225.34 0.72449L236.28 -3.34442L253.608 35.1361L209.663 50.4286L207.104 36.6646C209.725 36.177 217.737 34.9182 222.32 28.2405Z" fill="#CD1219"/>
</g>
<mask id="mask1_107_13558" style="mask-type:alpha" maskUnits="userSpaceOnUse" x="188" y="8" width="31" height="35">
<path d="M217.5 29.501L217.501 29.5007C219.816 20.0424 215.359 11.0038 207.785 9.15073C200.211 7.29778 192.082 13.2575 189.767 22.7149C188.738 26.9192 189.05 31.0621 190.388 34.5218C190.393 34.4827 190.397 34.4422 190.399 34.4005C190.399 34.4004 190.399 34.4004 190.399 34.4003L190.792 34.4203C190.806 33.746 190.836 33.0719 190.883 32.3979L190.883 32.3966C190.883 32.3927 190.883 32.3889 190.883 32.385C190.883 32.385 190.883 32.3849 190.883 32.3849C191.013 30.5722 191.268 28.7589 191.7 26.9804C191.701 26.9757 191.702 26.9711 191.704 26.9665C192.136 25.1891 192.748 23.4413 193.606 21.7992L194.049 22.0307L194.485 22.2759C193.624 23.8063 192.983 25.4662 192.511 27.1773C192.51 27.1809 192.509 27.1846 192.508 27.1882C192.036 28.8998 191.732 30.6644 191.55 32.4436L191.88 32.4662C191.88 32.4664 191.88 32.4666 191.88 32.4668M217.5 29.501L191.55 32.4441L191.88 32.4676C191.88 32.4673 191.88 32.4671 191.88 32.4668M217.5 29.501C217.249 30.5301 216.921 31.5391 216.52 32.5197M217.5 29.501L216.52 32.5197M191.88 32.4668C191.804 33.5867 191.772 34.707 191.784 35.8278L191.784 35.8293C191.79 36.4973 191.925 37.4685 192.274 38.3523C192.622 39.2338 193.15 39.9495 193.89 40.2657C193.964 40.2841 194.055 40.2728 194.179 40.1615C194.323 40.0311 194.481 39.7813 194.587 39.4021L194.587 39.402C194.655 39.1608 194.688 38.8047 194.7 38.4628C194.71 38.1957 194.706 37.9725 194.704 37.8503C194.704 37.8194 194.703 37.795 194.703 37.7779M191.88 32.4668L196.242 33.3927M198.981 40.2559C198.981 40.2556 198.981 40.2554 198.981 40.2551L199.481 40.2438L198.981 40.2567C198.981 40.2564 198.981 40.2562 198.981 40.2559ZM198.981 40.2559C198.988 40.5641 198.908 41.1245 198.694 41.5671C198.589 41.7852 198.467 41.9418 198.339 42.0345C198.224 42.1181 198.087 42.1636 197.895 42.1369C197.744 42.116 197.555 42.0093 197.339 41.7536C197.127 41.5025 196.931 41.1552 196.761 40.7617C196.419 39.9682 196.231 39.1001 196.211 38.7216L196.211 38.7207C196.11 36.9458 196.121 35.1663 196.242 33.3927M198.981 40.2559L196.242 33.3927M196.242 33.3927C196.369 31.6215 196.616 29.861 197.034 28.1424C197.452 26.4234 198.039 24.7495 198.855 23.1893L197.977 22.7124C197.067 24.3302 196.396 26.072 195.907 27.8493C195.417 29.6269 195.104 31.4526 194.917 33.2793L194.917 33.2805C194.768 34.7749 194.697 36.2761 194.703 37.7779M194.703 37.7779C194.703 37.7778 194.703 37.7776 194.703 37.7774L195.167 37.7763M194.703 37.7779C194.703 37.7781 194.703 37.7783 194.703 37.7784L195.167 37.7764M195.167 37.7763C195.167 37.7763 195.167 37.7763 195.167 37.7764M195.167 37.7763L195.203 37.7762L195.167 37.7764M195.167 37.7763C195.118 36.2919 195.143 34.8058 195.245 33.3236L195.245 33.3223C195.245 33.3193 195.245 33.3163 195.246 33.3133C195.246 33.3131 195.246 33.313 195.246 33.3129C195.375 31.4994 195.63 29.6855 196.062 27.9062C196.063 27.9018 196.064 27.8975 196.066 27.8931C196.498 26.1154 197.111 24.3671 197.969 22.7257L193.723 40.7377M195.167 37.7764C195.176 38.0243 195.186 38.2721 195.198 38.5198C195.185 38.8587 195.151 39.2463 195.069 39.5372C194.823 40.4144 194.283 40.9147 193.723 40.7377M193.723 40.7377C191.859 39.9678 191.296 37.2709 191.284 35.8335L193.723 40.7377ZM216.52 32.5197C216.403 32.8063 215.783 33.8885 214.886 34.825C213.967 35.7859 212.931 36.4146 211.96 36.1977L216.52 32.5197ZM205.996 27.093C204.612 30.1812 203.863 34.1713 203.293 37.4393L211.96 36.1977C211.849 36.1728 211.805 36.135 211.783 36.1097C211.758 36.0803 211.724 36.0216 211.707 35.8999C211.67 35.6352 211.728 35.2264 211.882 34.659C212.009 34.1894 212.186 33.6651 212.379 33.094C212.413 32.9912 212.449 32.8868 212.484 32.7809C212.714 32.0965 212.953 31.3606 213.127 30.6294L212.641 30.5132L213.128 30.6294C213.34 29.7418 213.484 27.9649 213.201 26.3063C212.925 24.6867 212.19 22.919 210.42 22.4926L210.361 22.4785L210.301 22.4787C208.863 22.4829 207.866 23.5477 207.223 24.552C206.705 25.361 206.339 26.2586 206.127 26.7783C206.074 26.91 206.03 27.0174 205.996 27.0929L205.996 27.093ZM190.187 35.0497C190.187 35.0493 190.189 35.0463 190.195 35.0419C190.19 35.0478 190.187 35.05 190.187 35.0497Z" fill="#0F47AF" stroke="black"/>
</mask>
<g mask="url(#mask1_107_13558)">
<path d="M207.904 8.66481C215.831 10.6042 220.345 19.9857 217.986 29.6194C217.729 30.6727 217.394 31.7054 216.983 32.709C216.695 33.4116 214.354 37.2447 211.851 36.6854C210.269 36.3317 211.965 33.3431 212.641 30.513C213.035 28.8651 213.206 23.6778 210.303 22.9785C207.966 22.9853 206.834 26.4465 206.452 27.2971C205.095 30.3266 204.353 34.2664 203.781 37.548C203.556 38.3696 203.315 39.6334 202.977 40.2384C202.809 40.5406 202.034 41.7599 201.331 41.767C200.931 41.7712 200.343 41.4236 200.069 40.505C199.862 39.8097 199.914 38.5409 199.911 38.2582C199.897 37.1162 199.93 35.9747 200.008 34.8336C200.136 33.0392 200.387 31.2505 200.813 29.4997C201.238 27.7489 201.838 26.0357 202.677 24.4332C201.79 26.0089 201.135 27.7118 200.653 29.4579C200.172 31.2041 199.863 32.9997 199.679 34.8047C199.5 36.6117 199.434 38.4282 199.481 40.2435C199.498 40.9883 199.119 42.8112 197.826 42.6319C196.533 42.4527 195.76 39.6461 195.711 38.7486C195.61 36.9526 195.621 35.1521 195.744 33.3575C195.871 31.5635 196.123 29.7746 196.548 28.0241C196.974 26.2735 197.574 24.5601 198.413 22.9573C197.526 24.5333 196.87 26.2359 196.389 27.9819C195.908 29.7278 195.599 31.5255 195.415 33.3299C195.267 34.8073 195.197 36.2913 195.204 37.776C195.204 37.9109 195.239 38.9327 195.069 39.5369C194.823 40.4141 194.283 40.9145 193.723 40.7375C191.859 39.9676 191.297 37.2707 191.285 35.8333C191.272 34.6989 191.304 33.5651 191.381 32.4318C191.509 30.6378 191.761 28.8488 192.186 27.0982C192.612 25.3476 193.212 23.6344 194.05 22.0305C193.163 23.6061 192.507 25.3089 192.026 27.0551C191.544 28.8012 191.236 30.597 191.052 32.4018C190.984 33.0748 190.933 33.7494 190.899 34.4255C190.86 35.1802 190.381 35.7977 190.179 35.3301C188.587 31.6482 188.167 27.1508 189.281 22.5958C191.64 12.963 199.978 6.72563 207.904 8.66481Z" fill="#FFD500"/>
<path d="M197 18C191.5 23.5 191.21 31.4059 190.706 38.3896L177.66 41.1266L171.632 -0.642517L218.091 -3.20561L215.706 13.8896C206.706 10.3896 200.335 14.6646 197 18Z" fill="#095DF9"/>
</g>
<path d="M210.25 22.9885C210.233 22.9922 210.217 22.9966 210.2 23C207.215 22.8975 206.498 17.5013 206.553 15.8077C206.647 12.8995 207.709 9.63185 206.088 9.60252C203.523 9.55622 201.999 13.7816 201.858 14.5277C201.657 15.5932 201.536 16.6721 201.495 17.7555C201.389 20.5378 201.81 23.192 202.65 25.5776C202.696 25.7054 202.696 25.7054 202.696 25.7054C203.392 27.6394 204.007 29.5012 205.2 31C205.814 29.3173 206.879 27.5725 207.707 26.1687C208.062 25.5703 208.837 23.8589 210.25 22.9885Z" fill="#FDB913"/>
</g>
<defs>
<clipPath id="clip0_107_13558">
<rect width="43" height="43" fill="white" transform="translate(188.2)"/>
</clipPath>
</defs>
</svg>
