<svg width="1440" height="119" viewBox="0 0 1440 119" fill="none" xmlns="http://www.w3.org/2000/svg">
<path d="M531.333 34.3673H500.756C497.25 34.3673 493.888 35.7599 491.41 38.2388C488.931 40.7176 487.538 44.0796 487.538 47.5852V71.0261C487.536 72.939 487.95 74.8295 488.752 76.5663C489.553 78.303 490.724 79.8444 492.181 81.0833C494.569 83.1257 497.61 84.2457 500.752 84.2402H531.329L531.333 34.3673Z" fill="#2B3872"/>
<path d="M602.604 8.31264H541.534C539.291 8.31264 537.07 8.75449 534.997 9.61303C532.925 10.4716 531.042 11.73 529.456 13.3163C527.87 14.9026 526.612 16.7859 525.754 18.8584C524.896 20.931 524.455 23.1523 524.455 25.3954V93.2178C524.455 97.7474 526.255 102.092 529.457 105.295C532.66 108.497 537.005 110.297 541.534 110.297H602.604V8.31264Z" fill="#2161D7"/>
<path d="M602.615 116.371V2.24233C602.615 1.00394 603.619 0 604.858 0L613.819 0C615.058 0 616.062 1.00394 616.062 2.24233V116.371C616.062 117.61 615.058 118.614 613.819 118.614H604.858C603.619 118.614 602.615 117.61 602.615 116.371Z" fill="#0F47AF"/>
<path d="M616.062 74.6106V91.9922H657.629C658.77 91.9922 659.9 91.7673 660.955 91.3304C662.009 90.8936 662.967 90.2532 663.774 89.446C664.581 88.6387 665.221 87.6804 665.658 86.6258C666.094 85.5712 666.318 84.4409 666.318 83.2996C666.318 80.9951 665.402 78.7851 663.773 77.1556C662.143 75.5261 659.933 74.6106 657.629 74.6106H616.062Z" fill="#232851"/>
<path d="M666.317 35.3074C666.317 33.003 665.402 30.7929 663.772 29.1634C662.143 27.5339 659.933 26.6185 657.628 26.6185L616.061 26.6185V44H657.628C659.933 44 662.143 43.0846 663.772 41.4551C665.402 39.8256 666.317 37.6155 666.317 35.3111V35.3074Z" fill="#232851"/>
<path d="M602.604 8.31264H541.534C539.291 8.31264 537.07 8.75449 534.997 9.61303C532.925 10.4716 531.042 11.73 529.456 13.3163C527.87 14.9026 526.612 16.7859 525.754 18.8584C524.896 20.931 524.455 23.1523 524.455 25.3954V93.2178C524.455 97.7474 526.255 102.092 529.457 105.295C532.66 108.497 537.005 110.297 541.534 110.297C546.62 37.0643 602.604 30.33 602.604 30.33V8.31264Z" fill="#0F47AF"/>
<path d="M602.615 8.31255V110.297H597.692V8.31255H602.615Z" fill="#2B3872"/>
<path d="M576.787 8.31294H541.526C539.283 8.31294 537.062 8.75479 534.99 9.61333C532.917 10.4719 531.034 11.7303 529.448 13.3166C527.862 14.9029 526.604 16.7862 525.746 18.8587C524.888 20.9313 524.447 23.1526 524.447 25.3957V73.0078C524.455 24.9274 576.787 8.31294 576.787 8.31294Z" fill="#2B3872"/>
<path d="M524.459 34.3674V84.2402H521.265V34.3674H524.459Z" fill="#232851"/>
<path d="M622.146 74.6106V91.9922H616.061V74.6106H622.146Z" fill="#15172D"/>
<path d="M622.149 26.6184V44H616.064V26.6184H622.149Z" fill="#15172D"/>
<path d="M524.455 34.3681H500.756C497.25 34.3681 493.888 35.7607 491.41 38.2395C488.931 40.7183 487.538 44.0803 487.538 47.5859V71.0268C487.536 72.9397 487.95 74.8302 488.752 76.567C489.553 78.3038 490.724 79.8451 492.181 81.084C487.7 44.547 524.451 38.967 524.451 38.967L524.455 34.3681Z" fill="#232851"/>
<path d="M893.68 34.3673H924.257C927.762 34.3673 931.124 35.7599 933.603 38.2388C936.082 40.7176 937.475 44.0796 937.475 47.5852V71.0261C937.477 72.939 937.063 74.8295 936.261 76.5663C935.459 78.303 934.289 79.8444 932.831 81.0833C930.443 83.1257 927.403 84.2457 924.261 84.2402H893.683L893.68 34.3673Z" fill="#2B3872"/>
<path d="M822.409 8.31264H883.49C885.733 8.31264 887.954 8.75449 890.027 9.61303C892.099 10.4716 893.982 11.73 895.568 13.3163C897.154 14.9026 898.412 16.7859 899.27 18.8584C900.128 20.931 900.569 23.1523 900.569 25.3954V93.2178C900.569 97.7474 898.77 102.092 895.567 105.295C892.364 108.497 888.02 110.297 883.49 110.297H822.409V8.31264Z" fill="#2161D7"/>
<path d="M808.955 116.373V2.24429C808.955 1.0059 809.959 0.00195312 811.197 0.00195312L820.159 0.00195312C821.398 0.00195312 822.402 1.0059 822.402 2.24429V116.373C822.402 117.612 821.398 118.615 820.159 118.615H811.197C809.959 118.615 808.955 117.612 808.955 116.373Z" fill="#0F47AF"/>
<path d="M822.409 8.31264H883.49C885.733 8.31264 887.954 8.75449 890.027 9.61303C892.099 10.4716 893.982 11.73 895.568 13.3163C897.154 14.9026 898.412 16.7859 899.27 18.8584C900.128 20.931 900.569 23.1523 900.569 25.3954V93.2178C900.569 97.7474 898.77 102.092 895.567 105.295C892.364 108.497 888.02 110.297 883.49 110.297C878.393 37.0643 822.409 30.33 822.409 30.33V8.31264Z" fill="#0F47AF"/>
<path d="M827.324 8.31259V110.297H822.401V8.31259H827.324Z" fill="#2B3872"/>
<path d="M848.225 8.31294H883.486C885.729 8.31294 887.95 8.75479 890.022 9.61333C892.095 10.4719 893.978 11.7303 895.564 13.3166C897.15 14.9029 898.408 16.7862 899.266 18.8587C900.124 20.9313 900.565 23.1526 900.565 25.3957V73.0078C900.557 24.9274 848.225 8.31294 848.225 8.31294Z" fill="#2B3872"/>
<path d="M903.751 34.3713V84.2441H900.557V34.3713H903.751Z" fill="#232851"/>
<path d="M900.558 34.3681H924.257C927.762 34.3681 931.124 35.7607 933.603 38.2395C936.082 40.7183 937.475 44.0803 937.475 47.5859V71.0268C937.477 72.9397 937.063 74.8302 936.261 76.567C935.459 78.3038 934.289 79.8451 932.831 81.084C937.312 44.547 900.561 38.967 900.561 38.967L900.558 34.3681Z" fill="#232851"/>
<path d="M487.538 66.9766H-202V51.6308H487.538V66.9766Z" fill="#2C447D"/>
<path d="M1642 65.3984H937.478V50.0527H1642V65.3984Z" fill="#2C447D"/>
</svg>
