<svg width="40" height="40" viewBox="0 0 40 40" fill="none" xmlns="http://www.w3.org/2000/svg">
<path d="M23.7713 24.8031C23.9676 24.9296 24.1889 24.9949 24.4144 24.9949C24.6399 24.9949 24.8655 24.9296 25.0576 24.8031C25.4543 24.546 34.7883 18.4166 38.2295 12.2587C39.0815 10.9692 39.5283 9.48378 39.5283 7.95348C39.5325 3.56662 35.8825 0 31.393 0C28.0937 0 25.6506 2.677 24.4186 4.07264C23.1866 2.67292 20.7435 0 17.4442 0C12.9547 0 9.30469 3.56662 9.30469 7.95348C9.30469 9.48378 9.75572 10.9692 10.6035 12.2587C14.0406 18.4166 23.3745 24.546 23.7713 24.8031ZM17.4442 2.27301C19.7704 2.27301 21.7124 4.4848 22.7606 5.67231C23.4079 6.41094 23.7671 6.81902 24.4228 6.81902C25.0785 6.81902 25.4334 6.41094 26.0849 5.67231C27.129 4.4848 29.0751 2.27301 31.4013 2.27301C34.6087 2.27301 37.2147 4.8235 37.2147 7.95348C37.2147 9.05529 36.8889 10.1285 36.2667 11.0549C36.25 11.0794 36.2333 11.1079 36.2166 11.1365C33.5605 15.9314 26.5819 20.9876 24.4228 22.477C22.2595 20.9835 15.2809 15.9274 12.6248 11.1365C12.6081 11.1079 12.5914 11.0835 12.5747 11.0549C11.9566 10.1285 11.6267 9.05529 11.6267 7.95348C11.6267 4.81942 14.2369 2.27301 17.4442 2.27301Z" fill="#0F47AF"/>
<path d="M38.4008 24.5295C36.2751 23.3134 34.4918 25.1171 33.8194 25.7945C32.4037 27.2269 30.6997 28.647 29.8353 29.3407C29.4678 29.1816 29.0627 29.0877 28.6367 29.0836C26.0056 28.9449 21.8628 28.4838 20.827 27.8798C19.712 27.2309 18.8183 26.5984 18.0331 26.0434C15.7696 24.4438 13.9821 23.1787 9.53442 23.1787C8.24395 23.1787 7.11219 23.5297 6.02218 23.8684C4.89876 24.2152 3.83799 24.5458 2.56005 24.5458C1.14847 24.5458 0 25.668 0 27.0473V33.4093C0 34.7886 1.14847 35.9108 2.56005 35.9108C4.99064 35.9108 8.79522 36.0332 9.63465 36.3066C11.1465 36.8004 14.6921 38.8531 15.9283 39.5999C15.945 39.608 15.9617 39.6203 15.9742 39.6284C16.4211 39.8733 16.9306 39.9998 17.4443 39.9998H29.2673C30.5202 39.9998 31.9109 38.8694 32.3911 38.0859C33.9405 35.5721 39.4991 28.7327 39.5576 28.6633C39.6077 28.6021 39.6495 28.5327 39.6871 28.4633C40.4054 27.0473 39.85 25.3579 38.4008 24.5295ZM29.2673 37.7186H17.4401C17.3273 37.7186 17.2188 37.6941 17.1185 37.6411C16.68 37.3758 12.3785 34.7967 10.3655 34.1397C8.86622 33.65 3.59577 33.6256 2.55588 33.6256C2.42641 33.6256 2.32201 33.5235 2.32201 33.397V27.0391C2.32201 26.9126 2.42641 26.8106 2.55588 26.8106C4.19297 26.8106 5.53773 26.3944 6.71962 26.0312C7.73027 25.717 8.60311 25.4476 9.53024 25.4476C13.2262 25.4476 14.5167 26.3658 16.6633 27.8839C17.4902 28.4715 18.4299 29.1326 19.6326 29.8345C20.2382 30.1854 21.2405 30.4629 22.3639 30.6751C24.7778 31.1363 27.7513 31.3158 28.5406 31.3566C28.5615 31.3566 28.5824 31.3566 28.6033 31.3566C28.9875 31.3566 29.3007 31.6627 29.3007 32.0381C29.3007 32.4136 28.9875 32.7196 28.6033 32.7196C28.5824 32.7196 28.5615 32.7196 28.5406 32.7237L19.7412 33.1767C19.0396 33.1522 17.3858 32.0096 16.2874 31.2505C16.0035 31.0547 15.7278 30.8629 15.4522 30.6792C14.8592 30.2793 14.2912 29.9161 13.7692 29.6631C13.1928 29.3815 12.4954 29.6101 12.2114 30.1691C11.9232 30.7323 12.1571 31.4138 12.7293 31.6953C13.3265 31.9892 14.1116 32.5278 14.9427 33.1032C16.6884 34.3111 18.3338 35.4497 19.7621 35.4497C19.783 35.4497 19.8039 35.4497 19.8247 35.4497L28.6325 34.9967C30.2821 34.9804 31.6227 33.6582 31.6227 32.0422C31.6227 31.6749 31.5559 31.3281 31.4306 31.0016C32.3619 30.2467 34.0449 28.8388 35.4899 27.3779C36.4797 26.374 36.8765 26.2924 37.2231 26.4923C37.5321 26.6678 37.7576 27.0147 37.6365 27.3615C36.8639 28.3164 31.9276 34.4254 30.3949 36.9106C30.1944 37.233 29.5137 37.6941 29.2673 37.7186Z" fill="#0F47AF"/>
</svg>
