<svg width="36" height="36" viewBox="0 0 36 36" fill="none" xmlns="http://www.w3.org/2000/svg">
<path d="M18.7071 6.70711C18.3166 6.31658 17.6834 6.31658 17.2929 6.70711L16.5915 7.40853C16.2012 7.7988 16.2009 8.43148 16.5908 8.82211L24.255 16.5H7C6.44771 16.5 6 16.9477 6 17.5V18.5C6 19.0523 6.44772 19.5 7 19.5H24.255L16.5908 27.1779C16.2009 27.5685 16.2012 28.2012 16.5915 28.5915L17.2929 29.2929C17.6834 29.6834 18.3166 29.6834 18.7071 29.2929L29.2929 18.7071C29.6834 18.3166 29.6834 17.6834 29.2929 17.2929L18.7071 6.70711Z" fill="#0F47AF"/>
</svg>
