<svg width="49" height="49" viewBox="0 0 49 49" fill="none" xmlns="http://www.w3.org/2000/svg">
<mask id="mask0_1_255" style="mask-type:alpha" maskUnits="userSpaceOnUse" x="16" y="6" width="30" height="25">
<path d="M44.2643 12.8816C46.9703 18.8397 43.294 26.3343 36.053 29.6215C35.2616 29.9813 34.4445 30.2816 33.6084 30.5201C33.0229 30.6869 29.4466 31.1114 28.5587 29.2558C27.9977 28.083 30.7221 27.6715 32.8408 26.6949C34.0747 26.1263 37.4293 23.6641 36.4312 21.4872C35.2681 20.0171 32.5263 21.0187 31.8007 21.1998C29.2188 21.8456 26.3678 23.3306 24.0157 24.5959C23.3865 24.861 22.4704 25.3354 21.9223 25.4224C21.6482 25.4658 20.4962 25.582 20.1431 25.1421C19.9426 24.892 19.8696 24.3489 20.313 23.7211C20.6483 23.2459 21.4743 22.6501 21.6508 22.5079C22.3642 21.9337 23.0998 21.3884 23.8577 20.8722C25.0519 20.0637 26.3041 19.3363 27.6185 18.7361C28.9329 18.1359 30.3101 17.6662 31.7352 17.4006C30.3027 17.6224 28.9043 18.0526 27.5652 18.6145C26.2261 19.1764 24.9411 19.8718 23.7124 20.6502C22.4846 21.433 21.3068 22.2914 20.1858 23.2206C19.7257 23.6005 18.3884 24.2651 17.8605 23.3617C17.3327 22.4583 18.7186 20.5796 19.2599 20.1041C20.3418 19.15 21.4822 18.2642 22.6745 17.4521C23.8685 16.6435 25.1208 15.916 26.4351 15.316C27.7494 14.7159 29.1268 14.2458 30.5519 13.9802C29.1187 14.2033 27.7207 14.6337 26.3818 15.1952C25.0428 15.7567 23.7576 16.4525 22.5288 17.2308C21.5246 17.87 20.5542 18.5609 19.6217 19.3007C19.5367 19.368 18.9099 19.8962 18.445 20.0887C17.77 20.3682 17.1871 20.2758 17.0216 19.8354C16.5828 18.2782 18.0038 16.5875 18.9041 15.8677C19.6125 15.2972 20.3431 14.7556 21.096 14.2431C22.29 13.4345 23.5423 12.707 24.8566 12.107C26.1709 11.5069 27.5482 11.037 28.9735 10.7715C27.5408 10.9932 26.1426 11.4235 24.8034 11.9856C23.4642 12.5476 22.1793 13.2427 20.9507 14.0211C20.4925 14.3117 20.0424 14.6138 19.6002 14.9275C19.1053 15.2773 18.4788 15.2814 18.6734 14.9221C20.2053 12.0943 22.8317 9.59981 26.2551 8.04572C33.4948 4.75851 41.5582 6.92372 44.2643 12.8816Z" fill="#1FBE11"/>
</mask>
<g mask="url(#mask0_1_255)">
<path d="M44.2645 12.8815C46.9705 18.8396 43.2942 26.3342 36.0532 29.6215C35.2618 29.9812 34.4447 30.2816 33.6086 30.52C33.0231 30.6868 29.4468 31.1113 28.5589 29.2557C27.9979 28.0829 30.7223 27.6714 32.841 26.6948C34.0749 26.1262 37.4295 23.664 36.4314 21.4871C35.2683 20.017 32.5265 21.0186 31.8009 21.1998C29.219 21.8455 26.368 23.3305 24.0159 24.5958C23.3867 24.8609 22.4706 25.3353 21.9225 25.4223C21.6484 25.4657 20.4964 25.5819 20.1433 25.1421C19.9428 24.8919 19.8698 24.3488 20.3132 23.721C20.6485 23.2458 21.4745 22.65 21.651 22.5078C22.3644 21.9336 23.1 21.3883 23.8579 20.8721C25.0521 20.0636 26.3043 19.3363 27.6187 18.7361C28.9331 18.1358 30.3103 17.6661 31.7354 17.4005C30.3029 17.6223 28.9045 18.0525 27.5654 18.6144C26.2263 19.1763 24.9413 19.8718 23.7126 20.6501C22.4848 21.4329 21.307 22.2913 20.186 23.2205C19.7259 23.6004 18.3886 24.265 17.8607 23.3616C17.3329 22.4582 18.7188 20.5795 19.2601 20.104C20.342 19.1499 21.4824 18.2642 22.6747 17.452C23.8687 16.6434 25.121 15.9159 26.4353 15.3159C27.7496 14.7158 29.127 14.2458 30.5521 13.9801C29.1189 14.2033 27.7209 14.6336 26.382 15.1951C25.043 15.7566 23.7578 16.4524 22.529 17.2308C21.5248 17.8699 20.5544 18.5608 19.6219 19.3006C19.5369 19.3679 18.9101 19.8961 18.4451 20.0886C17.7702 20.3681 17.1873 20.2757 17.0218 19.8353C16.583 18.2781 18.004 16.5874 18.9043 15.8676C19.6127 15.2971 20.3433 14.7556 21.0962 14.243C22.2902 13.4344 23.5425 12.7069 24.8568 12.1069C26.1711 11.5068 27.5484 11.0369 28.9737 10.7714C27.541 10.9931 26.1428 11.4234 24.8036 11.9855C23.4644 12.5476 22.1795 13.2426 20.9509 14.021C20.4927 14.3116 20.0426 14.6137 19.6004 14.9274C19.1055 15.2772 18.479 15.2813 18.6736 14.922C20.2055 12.0942 22.8319 9.59973 26.2553 8.04563C33.495 4.75842 41.5584 6.92363 44.2645 12.8815Z" fill="#D6353C"/>
<path d="M37.9592 17.3922C30.1903 15.7639 23.0739 20.5262 18.2108 25.3893L10.9315 17.6962L33.8872 -7.64693L59.2088 19.2798L40.2667 27.0214C42.2407 24.4619 44.0518 18.6691 37.9592 17.3922Z" fill="#006A44"/>
<path d="M36.0506 10.3319C27.056 9.15193 19.6616 14.6627 15.2916 18.1876L8.40309 11.8515L29.5912 -14.5326L56.5096 11.3004L45.1624 17.9864C44.7537 15.0964 42.4897 11.1766 36.0506 10.3319Z" fill="#FDB913"/>
</g>
<mask id="mask1_1_255" style="mask-type:alpha" maskUnits="userSpaceOnUse" x="2" y="18" width="28" height="25">
<path d="M3.90573 37.9589C0.114059 32.6261 2.29499 24.5682 8.77693 19.9608C9.48533 19.4567 10.2303 19.0061 11.0056 18.6126C11.5486 18.3373 14.9785 17.2394 16.2036 18.8912C16.978 19.9354 14.382 20.8589 12.4879 22.2213C11.385 23.0146 8.5611 26.0714 9.9558 28.018C11.3772 29.2394 13.8788 27.7334 14.556 27.4172C16.9678 26.2911 19.4836 24.29 21.5514 22.5994C22.1186 22.2189 22.9276 21.5786 23.4498 21.3889C23.7106 21.294 24.8196 20.9603 25.2499 21.3247C25.4951 21.5322 25.6693 22.0512 25.3538 22.7521C25.1149 23.2825 24.4179 24.0248 24.2717 24.198C23.6812 24.8979 23.0629 25.5733 22.4169 26.2244C21.3986 27.2459 20.3081 28.1991 19.1321 29.0382C17.9562 29.8773 16.6936 30.6017 15.3445 31.1341C16.7087 30.6431 17.9994 29.954 19.207 29.1472C20.4146 28.3404 21.5434 27.413 22.6014 26.4144C23.6575 25.4121 24.6502 24.3449 25.5736 23.2192C25.9539 22.7585 27.1391 21.851 27.8296 22.6378C28.5201 23.4245 27.5171 25.5322 27.0762 26.1024C26.196 27.2449 25.2453 28.3315 24.2299 29.3558C23.2117 30.3771 22.1213 31.3305 20.9453 32.1694C19.7693 33.0082 18.5068 33.7329 17.1576 34.2655C18.5218 33.7743 19.8125 33.0854 21.0199 32.2786C22.2273 31.4718 23.3569 30.5429 24.4149 29.545C25.279 28.7261 26.0999 27.8628 26.8744 26.9587C26.9449 26.8767 27.4596 26.2386 27.8793 25.961C28.4886 25.5579 29.0785 25.5375 29.3251 25.9383C30.0524 27.3829 28.9795 29.3138 28.2331 30.1921C27.6461 30.887 27.032 31.5578 26.3908 32.2047C25.3726 33.226 24.282 34.1794 23.106 35.0182C21.93 35.8571 20.6677 36.5818 19.3184 37.1154C20.6823 36.6245 21.9731 35.9353 23.1807 35.1285C24.3883 34.3217 25.5171 33.3941 26.575 32.3958C26.9693 32.0232 27.3539 31.6408 27.729 31.2483C28.148 30.8107 28.7624 30.6873 28.64 31.077C27.6748 34.1451 25.5717 37.0937 22.5073 39.2726C16.0259 43.8797 7.69738 43.2915 3.90573 37.9589Z" fill="#0F47AF"/>
</mask>
<g mask="url(#mask1_1_255)">
<path d="M3.90577 37.959C0.114105 32.6262 2.29504 24.5684 8.77697 19.9609C9.48538 19.4568 10.2303 19.0062 11.0056 18.6127C11.5486 18.3375 14.9785 17.2396 16.2036 18.8913C16.978 19.9355 14.382 20.8591 12.4879 22.2214C11.3851 23.0147 8.56115 26.0715 9.95584 28.0182C11.3773 29.2396 13.8788 27.7335 14.5561 27.4173C16.9678 26.2912 19.4836 24.2901 21.5514 22.5995C22.1187 22.219 22.9276 21.5788 23.4499 21.389C23.7106 21.2941 24.8196 20.9605 25.25 21.3248C25.4951 21.5323 25.6694 22.0513 25.3539 22.7522C25.1149 23.2826 24.418 24.0249 24.2718 24.1981C23.6812 24.898 23.063 25.5735 22.417 26.2245C21.3987 27.2461 20.3082 28.1992 19.1322 29.0383C17.9562 29.8774 16.6937 30.6018 15.3445 31.1342C16.7087 30.6433 17.9994 29.9541 19.2071 29.1473C20.4147 28.3405 21.5434 27.4131 22.6014 26.4146C23.6576 25.4122 24.6503 24.3451 25.5737 23.2193C25.9539 22.7586 27.1391 21.8511 27.8296 22.6379C28.5201 23.4246 27.5171 25.5324 27.0763 26.1025C26.196 27.245 25.2454 28.3316 24.2299 29.3559C23.2118 30.3772 22.1213 31.3306 20.9453 32.1695C19.7693 33.0084 18.5068 33.733 17.1577 34.2656C18.5219 33.7744 19.8126 33.0855 21.02 32.2787C22.2274 31.4719 23.3569 30.543 24.4149 29.5451C25.279 28.7262 26.0999 27.8629 26.8744 26.9588C26.945 26.8768 27.4596 26.2387 27.8794 25.9611C28.4886 25.558 29.0785 25.5376 29.3252 25.9384C30.0525 27.3831 28.9795 29.3139 28.2331 30.1922C27.6462 30.8871 27.0321 31.5579 26.3908 32.2048C25.3727 33.2261 24.282 34.1795 23.106 35.0184C21.93 35.8572 20.6677 36.5819 19.3184 37.1155C20.6824 36.6246 21.9731 35.9354 23.1807 35.1286C24.3883 34.3218 25.5171 33.3942 26.5751 32.3959C26.9693 32.0234 27.354 31.6409 27.729 31.2484C28.1481 30.8108 28.7625 30.6875 28.6401 31.0772C27.6748 34.1452 25.5717 37.0938 22.5073 39.2727C16.026 43.8798 7.69743 43.2916 3.90577 37.959Z" fill="#0F47AF"/>
<path d="M14.4953 35.0102C20.4214 34.116 24.6266 29.1406 28.2867 24.8832L37.9966 29.3507L21.9316 59.1327L-9.21634 38.5962L2.73718 27.9265C2.73718 35.8844 10.6951 35.5837 14.4953 35.0102Z" fill="#FFD500"/>
</g>
</svg>
