<svg width="32" height="32" viewBox="0 0 32 32" fill="none" xmlns="http://www.w3.org/2000/svg">
<path d="M2 18.1383C2 16.6672 2.55344 15.2781 3.46781 14.2117C3.36664 13.8016 3.3125 13.375 3.3125 12.8883C3.3125 11.1547 4.20172 9.57969 5.5618 8.62812C5.8057 7.04984 6.75289 5.70453 8.07578 4.92086C8.80859 3.20312 10.5148 2 12.5 2C13.8781 2 15.0758 2.58023 16 3.50937C16.875 2.58023 18.1219 2 19.5 2C21.4852 2 23.1914 3.20312 23.9242 4.92086C25.2477 5.70453 26.1938 7.04984 26.4398 8.62812C27.7961 9.57969 28.6875 11.1547 28.6875 12.8883C28.6875 13.375 28.6328 13.8016 28.5344 14.2117C29.4477 15.2781 30 16.6672 30 18.1383C30 19.8609 29.3328 21.3703 28.2008 22.475C28.2008 22.5023 28.25 22.5352 28.25 22.5625C28.25 25.1492 26.3852 27.293 23.9242 27.7305C23.0273 29.0977 21.4797 30 19.7188 30C18.2422 30 16.9187 29.3656 16 28.3102C15.0813 29.3656 13.7086 30 12.2812 30C10.5203 30 8.97266 29.0977 8.07578 27.7305C5.61703 27.293 3.75 25.1492 3.75 22.5625C3.75 22.5352 3.75 22.5023 3.75055 22.475C2.66937 21.3703 2 19.8609 2 18.1383ZM14.6766 25.1875H14.6875V6.76328C14.6875 5.60445 13.7086 4.57578 12.5 4.57578C11.2914 4.57578 10.3125 5.60445 10.3125 6.76328V6.84859C9.18047 7.03836 8.3 7.95 8.14687 9.09297C8.13047 9.20781 8.125 9.32266 8.125 9.38828C8.125 9.74922 8.13047 10.05 8.27813 10.3289C7.85156 10.3727 7.45617 10.5203 7.11492 10.7445C6.48383 11.1656 6.04414 11.8492 5.95445 12.6367C5.94297 12.7352 5.9375 12.8391 5.9375 12.8883C5.9375 13.7305 6.29133 14.4469 6.85023 14.9281C6.00203 15.2562 5.31516 15.9125 4.93891 16.7383C4.73711 17.1812 4.57578 17.668 4.57578 18.1875C4.57578 19.4945 5.3425 20.6375 6.40508 21.2391C6.48875 21.2828 6.57461 21.3266 6.66211 21.3703C6.6293 21.4305 6.59922 21.4961 6.57133 21.5617C6.445 21.8734 6.375 22.207 6.375 22.5625C6.375 23.7547 7.17289 24.7664 8.26719 25.0836C8.49687 25.1492 8.74297 25.1875 9 25.1875C9.30625 25.1875 9.60156 25.1328 9.875 25.0398C9.89141 25.5594 10.0719 26.0406 10.3672 26.4289C10.8102 27.0031 11.4992 27.375 12.2812 27.375C13.4898 27.375 14.5672 26.4125 14.6766 25.1875ZM21.6383 6.84859L21.6875 6.76328C21.6875 5.60445 20.7086 4.57578 19.5 4.57578C18.2914 4.57578 17.3125 5.60445 17.3125 6.76328V25.1875H17.3234C17.4328 26.4125 18.4609 27.375 19.7188 27.375C20.5008 27.375 21.1898 27.0031 21.5836 26.4289C21.9281 26.0406 22.1086 25.5594 22.0758 25.0398C22.3492 25.1328 22.6938 25.1875 23 25.1875C23.257 25.1875 23.5031 25.1492 23.7328 25.0836C24.8266 24.7664 25.625 23.7547 25.625 22.5625C25.625 22.207 25.5539 21.8734 25.4281 21.5617C25.4008 21.4961 25.3734 21.4305 25.3406 21.3703C25.4281 21.3266 25.5102 21.2828 25.5922 21.2391C26.6586 20.6375 27.375 19.4945 27.375 18.1875C27.375 17.668 27.2602 17.1812 27.0633 16.7383C26.6859 15.9125 25.9969 15.2562 25.1492 14.9281C25.707 14.4469 26.0625 13.7305 26.0625 12.8883C26.0625 12.8391 26.057 12.7352 26.0461 12.6367C25.9586 11.8492 25.5156 11.1656 24.8867 10.7445C24.5422 10.5203 24.0992 10.3727 23.7219 10.3289C23.8203 10.05 23.875 9.74922 23.875 9.38828C23.875 9.32266 23.8695 9.20781 23.8531 9.09297C23.7 7.95 22.8195 7.03836 21.6383 6.84859Z" fill="white"/>
</svg>
