<svg width="28" height="28" viewBox="0 0 28 28" fill="none" xmlns="http://www.w3.org/2000/svg">
<path d="M0 16.1383C0 14.6672 0.553438 13.2781 1.46781 12.2117C1.36664 11.8016 1.3125 11.375 1.3125 10.8883C1.3125 9.15469 2.20172 7.57969 3.5618 6.62812C3.8057 5.04984 4.75289 3.70453 6.07578 2.92086C6.80859 1.20312 8.51484 0 10.5 0C11.8781 0 13.0758 0.580234 14 1.50937C14.875 0.580234 16.1219 0 17.5 0C19.4852 0 21.1914 1.20312 21.9242 2.92086C23.2477 3.70453 24.1938 5.04984 24.4398 6.62812C25.7961 7.57969 26.6875 9.15469 26.6875 10.8883C26.6875 11.375 26.6328 11.8016 26.5344 12.2117C27.4477 13.2781 28 14.6672 28 16.1383C28 17.8609 27.3328 19.3703 26.2008 20.475C26.2008 20.5023 26.25 20.5352 26.25 20.5625C26.25 23.1492 24.3852 25.293 21.9242 25.7305C21.0273 27.0977 19.4797 28 17.7188 28C16.2422 28 14.9187 27.3656 14 26.3102C13.0813 27.3656 11.7086 28 10.2812 28C8.52031 28 6.97266 27.0977 6.07578 25.7305C3.61703 25.293 1.75 23.1492 1.75 20.5625C1.75 20.5352 1.75 20.5023 1.75055 20.475C0.669375 19.3703 0 17.8609 0 16.1383ZM12.6766 23.1875H12.6875V4.76328C12.6875 3.60445 11.7086 2.57578 10.5 2.57578C9.29141 2.57578 8.3125 3.60445 8.3125 4.76328V4.84859C7.18047 5.03836 6.3 5.95 6.14687 7.09297C6.13047 7.20781 6.125 7.32266 6.125 7.38828C6.125 7.74922 6.13047 8.05 6.27813 8.32891C5.85156 8.37266 5.45617 8.52031 5.11492 8.74453C4.48383 9.16562 4.04414 9.84922 3.95445 10.6367C3.94297 10.7352 3.9375 10.8391 3.9375 10.8883C3.9375 11.7305 4.29133 12.4469 4.85023 12.9281C4.00203 13.2562 3.31516 13.9125 2.93891 14.7383C2.73711 15.1812 2.57578 15.668 2.57578 16.1875C2.57578 17.4945 3.3425 18.6375 4.40508 19.2391C4.48875 19.2828 4.57461 19.3266 4.66211 19.3703C4.6293 19.4305 4.59922 19.4961 4.57133 19.5617C4.445 19.8734 4.375 20.207 4.375 20.5625C4.375 21.7547 5.17289 22.7664 6.26719 23.0836C6.49687 23.1492 6.74297 23.1875 7 23.1875C7.30625 23.1875 7.60156 23.1328 7.875 23.0398C7.89141 23.5594 8.07187 24.0406 8.36719 24.4289C8.81016 25.0031 9.49922 25.375 10.2812 25.375C11.4898 25.375 12.5672 24.4125 12.6766 23.1875ZM19.6383 4.84859L19.6875 4.76328C19.6875 3.60445 18.7086 2.57578 17.5 2.57578C16.2914 2.57578 15.3125 3.60445 15.3125 4.76328V23.1875H15.3234C15.4328 24.4125 16.4609 25.375 17.7188 25.375C18.5008 25.375 19.1898 25.0031 19.5836 24.4289C19.9281 24.0406 20.1086 23.5594 20.0758 23.0398C20.3492 23.1328 20.6938 23.1875 21 23.1875C21.257 23.1875 21.5031 23.1492 21.7328 23.0836C22.8266 22.7664 23.625 21.7547 23.625 20.5625C23.625 20.207 23.5539 19.8734 23.4281 19.5617C23.4008 19.4961 23.3734 19.4305 23.3406 19.3703C23.4281 19.3266 23.5102 19.2828 23.5922 19.2391C24.6586 18.6375 25.375 17.4945 25.375 16.1875C25.375 15.668 25.2602 15.1812 25.0633 14.7383C24.6859 13.9125 23.9969 13.2562 23.1492 12.9281C23.707 12.4469 24.0625 11.7305 24.0625 10.8883C24.0625 10.8391 24.057 10.7352 24.0461 10.6367C23.9586 9.84922 23.5156 9.16562 22.8867 8.74453C22.5422 8.52031 22.0992 8.37266 21.7219 8.32891C21.8203 8.05 21.875 7.74922 21.875 7.38828C21.875 7.32266 21.8695 7.20781 21.8531 7.09297C21.7 5.95 20.8195 5.03836 19.6383 4.84859Z" fill="white"/>
</svg>
