<svg width="28" height="27" viewBox="0 0 28 27" fill="none" xmlns="http://www.w3.org/2000/svg">
<path d="M24.5 5.25H21V3.5C21 1.5668 19.4332 0 17.5 0H10.5C8.56953 0 7 1.5668 7 3.5V5.25H3.5C1.5668 5.25 0 6.81953 0 8.75V22.75C0 24.6832 1.5668 26.25 3.5 26.25H24.5C26.4332 26.25 28 24.6832 28 22.75V8.75C28 6.81953 26.4305 5.25 24.5 5.25ZM10.5 2.625H17.5C17.9833 2.625 18.375 3.01673 18.375 3.5V5.25H9.625V3.5C9.625 3.01656 10.0188 2.625 10.5 2.625ZM3.5 7.875H24.5C24.9813 7.875 25.375 8.26875 25.375 8.75V14H2.625V8.75C2.625 8.26875 3.01875 7.875 3.5 7.875ZM24.5 23.625H3.5C3.01875 23.625 2.625 23.2313 2.625 22.75V16.625H10.5V17.5C10.5 18.4663 11.2837 19.25 12.25 19.25H15.75C16.7163 19.25 17.5 18.4663 17.5 17.5V16.625H25.375V22.75C25.375 23.2313 24.9813 23.625 24.5 23.625Z" fill="white"/>
</svg>
