<svg width="32" height="32" viewBox="0 0 32 32" fill="none" xmlns="http://www.w3.org/2000/svg">
<path d="M26.5 8.25H23V6.5C23 4.5668 21.4332 3 19.5 3H12.5C10.5695 3 9 4.5668 9 6.5V8.25H5.5C3.5668 8.25 2 9.81953 2 11.75V25.75C2 27.6832 3.5668 29.25 5.5 29.25H26.5C28.4332 29.25 30 27.6832 30 25.75V11.75C30 9.81953 28.4305 8.25 26.5 8.25ZM12.5 5.625H19.5C19.9833 5.625 20.375 6.01673 20.375 6.5V8.25H11.625V6.5C11.625 6.01656 12.0188 5.625 12.5 5.625ZM5.5 10.875H26.5C26.9813 10.875 27.375 11.2688 27.375 11.75V17H4.625V11.75C4.625 11.2688 5.01875 10.875 5.5 10.875ZM26.5 26.625H5.5C5.01875 26.625 4.625 26.2313 4.625 25.75V19.625H12.5V20.5C12.5 21.4663 13.2837 22.25 14.25 22.25H17.75C18.7163 22.25 19.5 21.4663 19.5 20.5V19.625H27.375V25.75C27.375 26.2313 26.9813 26.625 26.5 26.625Z" fill="white"/>
</svg>
