<svg width="32" height="32" viewBox="0 0 32 32" fill="none" xmlns="http://www.w3.org/2000/svg">
<path d="M29.0375 9.00547C29.6336 9.3336 30 9.95703 30 10.6352C30 11.6688 29.1687 12.5 28.1351 12.5H3.86266C2.83398 12.5 2 11.6688 2 10.6352C2 9.95703 2.36887 9.3336 2.96305 9.00547L15.3656 2.1633C15.7594 1.94557 16.2406 1.94557 16.6344 2.1633L29.0375 9.00547ZM14.25 9C14.25 8.03203 15.032 7.25 16 7.25C16.968 7.25 17.75 8.03203 17.75 9C17.75 9.31719 17.6625 9.61797 17.5148 9.875H25.1765L16 4.81149L6.82234 9.875H14.4852C14.3375 9.61797 14.25 9.31719 14.25 9ZM5.5 14.25H8.125V23H11.625V14.25H14.25V23H17.75V14.25H20.375V23H23.875V14.25H26.5V23H26.9375C27.6648 23 28.25 23.5852 28.25 24.3125C28.25 25.0398 27.6648 25.625 26.9375 25.625H5.5C4.77539 25.625 4.1875 25.0398 4.1875 24.3125C4.1875 23.5852 4.77539 23 5.5 23V14.25ZM28.6875 27.375C29.4148 27.375 30 27.9602 30 28.6875C30 29.4148 29.4148 30 28.6875 30H3.75C3.02539 30 2.4375 29.4148 2.4375 28.6875C2.4375 27.9602 3.02539 27.375 3.75 27.375H28.6875Z" fill="white"/>
</svg>
