<svg width="28" height="28" viewBox="0 0 28 28" fill="none" xmlns="http://www.w3.org/2000/svg">
<path d="M27.0375 7.00547C27.6336 7.3336 28 7.95703 28 8.63516C28 9.66875 27.1687 10.5 26.1351 10.5H1.86266C0.833984 10.5 0 9.66875 0 8.63516C0 7.95703 0.368867 7.3336 0.963046 7.00547L13.3656 0.1633C13.7594 -0.0544332 14.2406 -0.0544332 14.6344 0.1633L27.0375 7.00547ZM12.25 7C12.25 6.03203 13.032 5.25 14 5.25C14.968 5.25 15.75 6.03203 15.75 7C15.75 7.31719 15.6625 7.61797 15.5148 7.875H23.1765L14 2.81149L4.82234 7.875H12.4852C12.3375 7.61797 12.25 7.31719 12.25 7ZM3.5 12.25H6.125V21H9.625V12.25H12.25V21H15.75V12.25H18.375V21H21.875V12.25H24.5V21H24.9375C25.6648 21 26.25 21.5852 26.25 22.3125C26.25 23.0398 25.6648 23.625 24.9375 23.625H3.5C2.77539 23.625 2.1875 23.0398 2.1875 22.3125C2.1875 21.5852 2.77539 21 3.5 21V12.25ZM26.6875 25.375C27.4148 25.375 28 25.9602 28 26.6875C28 27.4148 27.4148 28 26.6875 28H1.75C1.02539 28 0.4375 27.4148 0.4375 26.6875C0.4375 25.9602 1.02539 25.375 1.75 25.375H26.6875Z" fill="white"/>
</svg>
