<svg width="25" height="28" viewBox="0 0 25 28" fill="none" xmlns="http://www.w3.org/2000/svg">
<path d="M4.375 18.375C4.375 17.407 5.15867 16.625 6.125 16.625C7.09297 16.625 7.875 17.407 7.875 18.375C7.875 19.343 7.09297 20.125 6.125 20.125C5.15867 20.125 4.375 19.343 4.375 18.375ZM16.625 18.375C16.625 17.407 17.407 16.625 18.375 16.625C19.343 16.625 20.125 17.407 20.125 18.375C20.125 19.343 19.343 20.125 18.375 20.125C17.407 20.125 16.625 19.343 16.625 18.375ZM0.557813 3.82977C1.96109 2.11914 5.67656 0 12.25 0C19.2828 0 22.6406 2.11258 23.975 3.8582C24.3852 4.3925 24.5 5.00281 24.5 5.49062V20.5625C24.5 21.8805 23.8055 23.0836 22.75 23.8383V26.6875C22.75 27.4148 22.1648 28 21.4375 28C20.7102 28 20.125 27.4148 20.125 26.6875V24.5H4.375V26.6875C4.375 27.4148 3.78711 28 3.0625 28C2.33789 28 1.75 27.4148 1.75 26.6875V23.8383C0.694531 23.0836 0 21.8805 0 20.5625V5.49062C0 5.00828 0.111836 4.37336 0.557813 3.82977ZM2.81477 5.25H21.7219C20.8578 4.3143 18.3312 2.625 12.25 2.625C6.66094 2.625 3.81828 4.28039 2.81477 5.25ZM21.875 7.875H2.625V12.25H21.875V7.875ZM21.875 14.875H2.625V20.5625C2.625 21.2898 3.21289 21.875 3.9375 21.875H20.5625C21.2898 21.875 21.875 21.2898 21.875 20.5625V14.875Z" fill="white"/>
</svg>
