<svg width="32" height="32" viewBox="0 0 32 32" fill="none" xmlns="http://www.w3.org/2000/svg">
<path d="M8.375 20.375C8.375 19.407 9.15867 18.625 10.125 18.625C11.093 18.625 11.875 19.407 11.875 20.375C11.875 21.343 11.093 22.125 10.125 22.125C9.15867 22.125 8.375 21.343 8.375 20.375ZM20.625 20.375C20.625 19.407 21.407 18.625 22.375 18.625C23.343 18.625 24.125 19.407 24.125 20.375C24.125 21.343 23.343 22.125 22.375 22.125C21.407 22.125 20.625 21.343 20.625 20.375ZM4.55781 5.82977C5.96109 4.11914 9.67656 2 16.25 2C23.2828 2 26.6406 4.11258 27.975 5.8582C28.3852 6.3925 28.5 7.00281 28.5 7.49062V22.5625C28.5 23.8805 27.8055 25.0836 26.75 25.8383V28.6875C26.75 29.4148 26.1648 30 25.4375 30C24.7102 30 24.125 29.4148 24.125 28.6875V26.5H8.375V28.6875C8.375 29.4148 7.78711 30 7.0625 30C6.33789 30 5.75 29.4148 5.75 28.6875V25.8383C4.69453 25.0836 4 23.8805 4 22.5625V7.49062C4 7.00828 4.11184 6.37336 4.55781 5.82977ZM6.81477 7.25H25.7219C24.8578 6.3143 22.3312 4.625 16.25 4.625C10.6609 4.625 7.81828 6.28039 6.81477 7.25ZM25.875 9.875H6.625V14.25H25.875V9.875ZM25.875 16.875H6.625V22.5625C6.625 23.2898 7.21289 23.875 7.9375 23.875H24.5625C25.2898 23.875 25.875 23.2898 25.875 22.5625V16.875Z" fill="white"/>
</svg>
