<svg width="32" height="32" viewBox="0 0 32 32" fill="none" xmlns="http://www.w3.org/2000/svg">
<path d="M19.1253 5.5C19.1253 7.4332 17.5558 9 15.6253 9C13.6949 9 12.1253 7.4332 12.1253 5.5C12.1253 3.5668 13.6949 2 15.6253 2C17.5558 2 19.1253 3.5668 19.1253 5.5ZM13.6402 11.3078C14.2746 11.4664 14.9472 11.625 15.6363 11.625C17.8183 11.625 19.8527 10.5203 21.0394 8.69375L22.0347 7.17016C22.5597 6.36023 23.6425 6.13109 24.4574 6.65828C25.2667 7.18547 25.4964 8.26719 24.966 9.08203L23.9761 10.6023C22.9753 12.1391 21.5972 13.3367 20.0003 14.1188V28.25C20.0003 29.218 19.2183 30 18.2503 30C17.2824 30 16.5003 29.218 16.5003 28.25V23H14.7503V28.25C14.7503 29.218 13.9683 30 13.0003 30C12.0324 30 11.2503 29.218 11.2503 28.25V14.1078C9.69885 13.3422 8.34862 12.1773 7.36042 10.6461L6.29401 9.09844C5.75807 8.28906 5.97518 7.20516 6.77963 6.66867C7.58354 6.13273 8.67018 6.34984 9.20612 7.1543L10.2725 8.75391C11.0589 9.92969 12.191 10.7992 13.4871 11.2586C13.5417 11.2695 13.591 11.2859 13.6402 11.3078Z" fill="white"/>
</svg>
