<svg width="20" height="28" viewBox="0 0 20 28" fill="none" xmlns="http://www.w3.org/2000/svg">
<path d="M13.1253 3.5C13.1253 5.4332 11.5558 7 9.62533 7C7.69487 7 6.12533 5.4332 6.12533 3.5C6.12533 1.5668 7.69487 0 9.62533 0C11.5558 0 13.1253 1.5668 13.1253 3.5ZM7.64018 9.30781C8.27455 9.46641 8.94721 9.625 9.63627 9.625C11.8183 9.625 13.8527 8.52031 15.0394 6.69375L16.0347 5.17016C16.5597 4.36023 17.6425 4.13109 18.4574 4.65828C19.2667 5.18547 19.4964 6.26719 18.966 7.08203L17.9761 8.60234C16.9753 10.1391 15.5972 11.3367 14.0003 12.1188V26.25C14.0003 27.218 13.2183 28 12.2503 28C11.2824 28 10.5003 27.218 10.5003 26.25V21H8.75033V26.25C8.75033 27.218 7.9683 28 7.00033 28C6.03237 28 5.25034 27.218 5.25034 26.25V12.1078C3.69885 11.3422 2.34862 10.1773 1.36042 8.64609L0.29401 7.09844C-0.241928 6.28906 -0.0248185 5.20516 0.779634 4.66867C1.58354 4.13273 2.67018 4.34984 3.20612 5.1543L4.27252 6.75391C5.05893 7.92969 6.19096 8.79922 7.48705 9.25859C7.54174 9.26953 7.59096 9.28594 7.64018 9.30781Z" fill="white"/>
</svg>
