<svg width="18" height="18" viewBox="0 0 18 18" fill="none" xmlns="http://www.w3.org/2000/svg">
<path d="M8.9915 0.666504C4.3915 0.666504 0.666504 4.39984 0.666504 8.99984C0.666504 13.5998 4.3915 17.3332 8.9915 17.3332C13.5998 17.3332 17.3332 13.5998 17.3332 8.99984C17.3332 4.39984 13.5998 0.666504 8.9915 0.666504ZM12.3314 12.3391C12.0054 12.6628 11.4788 12.6616 11.1543 12.3363L8.1665 9.3415V5.6665C8.1665 5.20627 8.5396 4.83317 8.99984 4.83317V4.83317C9.46008 4.83317 9.83317 5.20627 9.83317 5.6665V8.65817L12.3335 11.1585C12.6598 11.4848 12.6588 12.014 12.3314 12.3391V12.3391Z" fill="#0F47AF"/>
</svg>
