<svg width="32" height="32" viewBox="0 0 32 32" fill="none" xmlns="http://www.w3.org/2000/svg">
<path d="M11.6578 6.89672C11.6906 6.96289 11.7672 7.0668 11.9148 7.19969C11.9313 7.21773 11.9531 7.23633 11.975 7.25492C10.9578 7.27461 9.95703 7.35063 9 7.47969V6.76328C9 5.82703 9.53047 5.03953 10.1539 4.47516C10.7828 3.90969 11.6195 3.46125 12.5383 3.11125C14.3812 2.40764 16.8477 2 19.5 2C22.1523 2 24.6187 2.40764 26.4617 3.11125C27.3805 3.46125 28.2172 3.90969 28.8461 4.47516C29.4695 5.03953 30 5.82703 30 6.76328V18.1383C30 19.1719 29.4695 19.9594 28.8461 20.5227C28.2172 21.0914 27.3805 21.5398 26.4617 21.8898C25.9367 22.0867 25.3625 22.2672 24.75 22.4148V19.6969C25.0289 19.6148 25.2859 19.5273 25.5266 19.4344C26.2758 19.15 26.7844 18.8492 27.0852 18.5758C27.2328 18.4445 27.3094 18.3352 27.3422 18.2695C27.375 18.2148 27.375 18.1875 27.375 18.1383V15.8031C27.0852 15.9508 26.7789 16.082 26.4617 16.2023C25.9367 16.3992 25.3625 16.5797 24.75 16.7273V14.0094C25.0289 13.9273 25.2859 13.8398 25.5266 13.7469C26.2758 13.4625 26.7844 13.1617 27.0852 12.8883C27.2328 12.757 27.3094 12.6477 27.3422 12.582C27.3695 12.5328 27.3258 12.5055 27.375 12.4508V10.1156C27.0852 10.2633 26.7789 10.3945 26.4617 10.5148C25.7125 10.7992 24.8102 11.0398 23.9297 11.2203C23.6508 10.8047 23.3281 10.4602 23.0164 10.1758C22.4641 9.67812 21.8188 9.22422 21.1516 8.93984C22.8852 8.81406 24.4 8.49141 25.5266 8.05938C26.2758 7.775 26.7844 7.47422 27.0852 7.19969C27.2328 7.0668 27.3094 6.96289 27.3422 6.89672C27.3695 6.84586 27.3258 6.81852 27.375 6.76328C27.375 6.81141 27.375 6.7868 27.3422 6.72828C27.3094 6.66211 27.2328 6.55766 27.0852 6.42531C26.7844 6.15297 26.2758 5.84727 25.5266 5.56398C24.05 5.0007 21.9172 4.57578 19.5 4.57578C17.0828 4.57578 14.95 5.0007 13.468 5.56398C12.7242 5.84727 12.2156 6.15297 11.9148 6.42531C11.7672 6.55766 11.6906 6.66211 11.6578 6.72828C11.5758 6.7868 11.5758 6.81141 11.5758 6.76328C11.625 6.81906 11.6305 6.84586 11.6578 6.89672ZM2 13.7633C2 12.7789 2.52905 12.0406 3.15609 11.4773C3.78336 10.9086 4.61734 10.4602 5.53609 10.1102C7.38289 9.41016 9.84766 9 12.5 9C15.1523 9 17.6187 9.41016 19.4617 10.1102C20.3805 10.4602 21.2172 10.9086 21.8461 11.4773C22.4695 12.0406 23 12.7789 23 13.7633V25.1875C23 26.1719 22.4695 26.9594 21.8461 27.5227C21.2172 28.0914 20.3805 28.5398 19.4617 28.8898C17.6187 29.5898 15.1523 30 12.5 30C9.84766 30 7.38289 29.5898 5.53609 28.8898C4.61734 28.5398 3.78336 28.0914 3.15609 27.5227C2.52905 26.9594 2 26.1719 2 25.1875V13.7633ZM4.65563 13.8945C4.69063 13.9602 4.76555 14.0695 4.91266 14.2008C5.21508 14.4742 5.72695 14.775 6.4707 15.0594C7.95 15.6227 10.0828 15.9508 12.5 15.9508C14.9172 15.9508 17.05 15.6227 18.5266 15.0594C19.2758 14.775 19.7844 14.4742 20.0852 14.2008C20.2328 14.0695 20.3094 13.9602 20.3422 13.8945C20.3695 13.8453 20.3258 13.818 20.375 13.7633C20.375 13.7633 20.375 13.7852 20.3422 13.7305C20.3094 13.6648 20.2328 13.5555 20.0852 13.4242C19.7844 13.1508 19.2758 12.85 18.5266 12.5656C17.05 12.0023 14.9172 11.625 12.5 11.625C10.0828 11.625 7.95 12.0023 6.4707 12.5656C5.72695 12.85 5.21508 13.1508 4.91266 13.4242C4.76555 13.5555 4.69063 13.6648 4.65563 13.7305C4.62391 13.7852 4.57578 13.7633 4.625 13.7633C4.625 13.818 4.62773 13.8453 4.65563 13.8945ZM20.375 17.1156C20.0852 17.2633 19.7789 17.3945 19.4617 17.5148C17.6187 18.2148 15.1523 18.5758 12.5 18.5758C9.84766 18.5758 7.38289 18.2148 5.53609 17.5148C5.22109 17.3945 4.91539 17.2633 4.625 17.1156V19.5C4.625 19.5055 4.62773 19.5328 4.65563 19.582C4.69063 19.6477 4.76555 19.757 4.91266 19.8883C5.21508 20.1617 5.72695 20.4625 6.4707 20.7469C7.95 21.3102 10.0828 21.6875 12.5 21.6875C14.9172 21.6875 17.05 21.3102 18.5266 20.7469C19.2758 20.4625 19.7844 20.1617 20.0852 19.8883C20.2328 19.757 20.3094 19.6477 20.3422 19.582C20.3695 19.5328 20.3258 19.5055 20.375 19.5V17.1156ZM5.53609 23.2023C5.22109 23.082 4.91539 22.9508 4.625 22.8031V25.1875C4.57578 25.1875 4.62391 25.2148 4.65563 25.2695C4.69063 25.3352 4.76555 25.4445 4.91266 25.5758C5.21508 25.8492 5.72695 26.15 6.4707 26.4344C7.95 26.9977 10.0828 27.375 12.5 27.375C14.9172 27.375 17.05 26.9977 18.5266 26.4344C19.2758 26.15 19.7844 25.8492 20.0852 25.5758C20.2328 25.4445 20.3094 25.3352 20.3422 25.2695C20.375 25.2148 20.375 25.1875 20.375 25.1875V22.8031C20.0852 22.9508 19.7789 23.082 19.4617 23.2023C17.6187 23.9023 15.1523 24.3125 12.4508 24.3125C9.84766 24.3125 7.38289 23.9023 5.53609 23.2023Z" fill="white"/>
</svg>
