<svg width="28" height="28" viewBox="0 0 28 28" fill="none" xmlns="http://www.w3.org/2000/svg">
<path d="M9.65781 4.89672C9.69063 4.96289 9.76719 5.0668 9.91484 5.19969C9.93125 5.21773 9.95312 5.23633 9.975 5.25492C8.95781 5.27461 7.95703 5.35063 7 5.47969V4.76328C7 3.82703 7.53047 3.03953 8.15391 2.47516C8.78281 1.90969 9.61953 1.46125 10.5383 1.11125C12.3812 0.407641 14.8477 0 17.5 0C20.1523 0 22.6187 0.407641 24.4617 1.11125C25.3805 1.46125 26.2172 1.90969 26.8461 2.47516C27.4695 3.03953 28 3.82703 28 4.76328V16.1383C28 17.1719 27.4695 17.9594 26.8461 18.5227C26.2172 19.0914 25.3805 19.5398 24.4617 19.8898C23.9367 20.0867 23.3625 20.2672 22.75 20.4148V17.6969C23.0289 17.6148 23.2859 17.5273 23.5266 17.4344C24.2758 17.15 24.7844 16.8492 25.0852 16.5758C25.2328 16.4445 25.3094 16.3352 25.3422 16.2695C25.375 16.2148 25.375 16.1875 25.375 16.1383V13.8031C25.0852 13.9508 24.7789 14.082 24.4617 14.2023C23.9367 14.3992 23.3625 14.5797 22.75 14.7273V12.0094C23.0289 11.9273 23.2859 11.8398 23.5266 11.7469C24.2758 11.4625 24.7844 11.1617 25.0852 10.8883C25.2328 10.757 25.3094 10.6477 25.3422 10.582C25.3695 10.5328 25.3258 10.5055 25.375 10.4508V8.11562C25.0852 8.26328 24.7789 8.39453 24.4617 8.51484C23.7125 8.79922 22.8102 9.03984 21.9297 9.22031C21.6508 8.80469 21.3281 8.46016 21.0164 8.17578C20.4641 7.67812 19.8188 7.22422 19.1516 6.93984C20.8852 6.81406 22.4 6.49141 23.5266 6.05938C24.2758 5.775 24.7844 5.47422 25.0852 5.19969C25.2328 5.0668 25.3094 4.96289 25.3422 4.89672C25.3695 4.84586 25.3258 4.81852 25.375 4.76328C25.375 4.81141 25.375 4.7868 25.3422 4.72828C25.3094 4.66211 25.2328 4.55766 25.0852 4.42531C24.7844 4.15297 24.2758 3.84727 23.5266 3.56398C22.05 3.0007 19.9172 2.57578 17.5 2.57578C15.0828 2.57578 12.95 3.0007 11.468 3.56398C10.7242 3.84727 10.2156 4.15297 9.91484 4.42531C9.76719 4.55766 9.69063 4.66211 9.65781 4.72828C9.57578 4.7868 9.57578 4.81141 9.57578 4.76328C9.625 4.81906 9.63047 4.84586 9.65781 4.89672ZM0 11.7633C0 10.7789 0.529047 10.0406 1.15609 9.47734C1.78336 8.90859 2.61734 8.46016 3.53609 8.11016C5.38289 7.41016 7.84766 7 10.5 7C13.1523 7 15.6187 7.41016 17.4617 8.11016C18.3805 8.46016 19.2172 8.90859 19.8461 9.47734C20.4695 10.0406 21 10.7789 21 11.7633V23.1875C21 24.1719 20.4695 24.9594 19.8461 25.5227C19.2172 26.0914 18.3805 26.5398 17.4617 26.8898C15.6187 27.5898 13.1523 28 10.5 28C7.84766 28 5.38289 27.5898 3.53609 26.8898C2.61734 26.5398 1.78336 26.0914 1.15609 25.5227C0.529047 24.9594 0 24.1719 0 23.1875V11.7633ZM2.65563 11.8945C2.69063 11.9602 2.76555 12.0695 2.91266 12.2008C3.21508 12.4742 3.72695 12.775 4.4707 13.0594C5.95 13.6227 8.08281 13.9508 10.5 13.9508C12.9172 13.9508 15.05 13.6227 16.5266 13.0594C17.2758 12.775 17.7844 12.4742 18.0852 12.2008C18.2328 12.0695 18.3094 11.9602 18.3422 11.8945C18.3695 11.8453 18.3258 11.818 18.375 11.7633C18.375 11.7633 18.375 11.7852 18.3422 11.7305C18.3094 11.6648 18.2328 11.5555 18.0852 11.4242C17.7844 11.1508 17.2758 10.85 16.5266 10.5656C15.05 10.0023 12.9172 9.625 10.5 9.625C8.08281 9.625 5.95 10.0023 4.4707 10.5656C3.72695 10.85 3.21508 11.1508 2.91266 11.4242C2.76555 11.5555 2.69063 11.6648 2.65563 11.7305C2.62391 11.7852 2.57578 11.7633 2.625 11.7633C2.625 11.818 2.62773 11.8453 2.65563 11.8945ZM18.375 15.1156C18.0852 15.2633 17.7789 15.3945 17.4617 15.5148C15.6187 16.2148 13.1523 16.5758 10.5 16.5758C7.84766 16.5758 5.38289 16.2148 3.53609 15.5148C3.22109 15.3945 2.91539 15.2633 2.625 15.1156V17.5C2.625 17.5055 2.62773 17.5328 2.65563 17.582C2.69063 17.6477 2.76555 17.757 2.91266 17.8883C3.21508 18.1617 3.72695 18.4625 4.4707 18.7469C5.95 19.3102 8.08281 19.6875 10.5 19.6875C12.9172 19.6875 15.05 19.3102 16.5266 18.7469C17.2758 18.4625 17.7844 18.1617 18.0852 17.8883C18.2328 17.757 18.3094 17.6477 18.3422 17.582C18.3695 17.5328 18.3258 17.5055 18.375 17.5V15.1156ZM3.53609 21.2023C3.22109 21.082 2.91539 20.9508 2.625 20.8031V23.1875C2.57578 23.1875 2.62391 23.2148 2.65563 23.2695C2.69063 23.3352 2.76555 23.4445 2.91266 23.5758C3.21508 23.8492 3.72695 24.15 4.4707 24.4344C5.95 24.9977 8.08281 25.375 10.5 25.375C12.9172 25.375 15.05 24.9977 16.5266 24.4344C17.2758 24.15 17.7844 23.8492 18.0852 23.5758C18.2328 23.4445 18.3094 23.3352 18.3422 23.2695C18.375 23.2148 18.375 23.1875 18.375 23.1875V20.8031C18.0852 20.9508 17.7789 21.082 17.4617 21.2023C15.6187 21.9023 13.1523 22.3125 10.4508 22.3125C7.84766 22.3125 5.38289 21.9023 3.53609 21.2023Z" fill="white"/>
</svg>
