<svg width="24" height="24" viewBox="0 0 24 24" fill="none" xmlns="http://www.w3.org/2000/svg">
<g clip-path="url(#clip0_1042_18259)">
<path d="M23.5599 3.31078L20.6888 0.439688C20.4099 0.158016 20.0255 0 19.627 0H11.9583C10.3013 0 8.95828 1.34344 8.95828 3L8.9592 15C9.00047 16.6594 10.3458 18 12.0005 18H21.0005C22.6505 18 24.0005 16.65 24.0005 15V4.37109C24.0005 3.97359 23.8411 3.59203 23.5599 3.31078ZM21.7505 15C21.7505 15.4142 21.4147 15.75 21.0005 15.75H11.9583C11.544 15.75 11.2083 15.4142 11.2083 15V3.00609C11.2083 2.59191 11.5441 2.25609 11.9583 2.25609H17.9583L18.0005 4.5C18.0005 5.32828 18.6722 6 19.5005 6H21.7083V15H21.7505ZM12.7505 21C12.7505 21.4142 12.4147 21.75 12.0005 21.75H2.95828C2.544 21.75 2.20828 21.4142 2.20828 21L2.24953 9.00469C2.24953 8.5905 2.58534 8.25469 2.99953 8.25469H7.50047V6H3C1.34297 6 0 7.34297 0 9L0.000459375 21C0.0005625 22.6547 1.34391 24 3.00047 24H12.0005C13.6505 24 15.0005 22.65 15.0005 21V19.5H12.7927L12.7505 21Z" fill="#0F47AF"/>
</g>
<defs>
<clipPath id="clip0_1042_18259">
<rect width="24" height="24" fill="white"/>
</clipPath>
</defs>
</svg>
