<svg width="32" height="32" viewBox="0 0 32 32" fill="none" xmlns="http://www.w3.org/2000/svg">
    <path d="M19.0171 19.8425C19.1742 19.9437 19.3512 19.9959 19.5316 19.9959C19.7121 19.9959 19.8925 19.9437 20.0462 19.8425C20.3636 19.6368 27.8307 14.7333 30.5837 9.80698C31.2653 8.77535 31.6228 7.58702 31.6228 6.36278C31.6261 2.8533 28.7061 0 25.1145 0C22.4751 0 20.5206 2.1416 19.535 3.25811C18.5494 2.13834 16.5949 0 13.9555 0C10.3639 0 7.44385 2.8533 7.44385 6.36278C7.44385 7.58702 7.80468 8.77535 8.4829 9.80698C11.2326 14.7333 18.6997 19.6368 19.0171 19.8425ZM13.9555 1.8184C15.8164 1.8184 17.37 3.58784 18.2086 4.53785C18.7265 5.12875 19.0138 5.45521 19.5383 5.45521C20.0629 5.45521 20.3468 5.12875 20.868 4.53785C21.7033 3.58784 23.2602 1.8184 25.1212 1.8184C27.6871 1.8184 29.7719 3.8588 29.7719 6.36278C29.7719 7.24424 29.5112 8.10284 29.0134 8.84391C29.0001 8.8635 28.9867 8.88635 28.9733 8.9092C26.8485 12.7452 21.2656 16.79 19.5383 17.9816C17.8077 16.7868 12.2248 12.7419 10.1 8.9092C10.0866 8.88635 10.0732 8.86676 10.0599 8.84391C9.56539 8.10284 9.30145 7.24424 9.30145 6.36278C9.30145 3.85554 11.3896 1.8184 13.9555 1.8184Z" fill="#0F47AF"/>
    <path d="M30.7206 19.6236C29.0201 18.6507 27.5934 20.0937 27.0555 20.6356C25.9229 21.7815 24.5598 22.9176 23.8682 23.4726C23.5742 23.3453 23.2501 23.2702 22.9093 23.2669C20.8045 23.1559 17.4902 22.787 16.6616 22.3038C15.7696 21.7848 15.0546 21.2787 14.4265 20.8347C12.6157 19.555 11.1857 18.543 7.62754 18.543C6.59516 18.543 5.68975 18.8237 4.81774 19.0947C3.91901 19.3722 3.07039 19.6366 2.04804 19.6366C0.918779 19.6366 0 20.5344 0 21.6378V26.7274C0 27.8309 0.918779 28.7286 2.04804 28.7286C3.99251 28.7286 7.03618 28.8266 7.70772 29.0453C8.91717 29.4403 11.7537 31.0825 12.7426 31.6799C12.756 31.6864 12.7694 31.6962 12.7794 31.7027C13.1369 31.8986 13.5445 31.9998 13.9554 31.9998H23.4138C24.4161 31.9998 25.5287 31.0955 25.9129 30.4687C27.1524 28.4577 31.5993 22.9861 31.6461 22.9306C31.6862 22.8817 31.7196 22.8262 31.7497 22.7707C32.3243 21.6378 31.88 20.2863 30.7206 19.6236ZM23.4138 30.1749H13.9521C13.8619 30.1749 13.775 30.1553 13.6948 30.1129C13.344 29.9007 9.90277 27.8374 8.2924 27.3118C7.09297 26.92 2.87661 26.9004 2.0447 26.9004C1.94113 26.9004 1.8576 26.8188 1.8576 26.7176V21.6313C1.8576 21.5301 1.94113 21.4485 2.0447 21.4485C3.35438 21.4485 4.43019 21.1155 5.37569 20.825C6.18422 20.5736 6.88249 20.3581 7.6242 20.3581C10.581 20.3581 11.6134 21.0927 13.3306 22.3071C13.9922 22.7772 14.7439 23.3061 15.7061 23.8676C16.1906 24.1484 16.9924 24.3704 17.8911 24.5401C19.8222 24.909 22.201 25.0527 22.8325 25.0853C22.8492 25.0853 22.8659 25.0853 22.8826 25.0853C23.19 25.0853 23.4406 25.3302 23.4406 25.6305C23.4406 25.9308 23.19 26.1757 22.8826 26.1757C22.8659 26.1757 22.8492 26.1757 22.8325 26.179L15.793 26.5413C15.2317 26.5217 13.9086 25.6076 13.03 25.0004C12.8028 24.8437 12.5823 24.6903 12.3618 24.5434C11.8873 24.2234 11.433 23.9329 11.0153 23.7305C10.5543 23.5052 9.99632 23.688 9.76913 24.1353C9.5386 24.5858 9.72569 25.131 10.1834 25.3563C10.6612 25.5913 11.2893 26.0223 11.9542 26.4826C13.3507 27.4489 14.6671 28.3597 15.8097 28.3597C15.8264 28.3597 15.8431 28.3597 15.8598 28.3597L22.906 27.9974C24.2257 27.9843 25.2982 26.9266 25.2982 25.6338C25.2982 25.34 25.2447 25.0625 25.1445 24.8013C25.8895 24.1973 27.236 23.071 28.3919 21.9023C29.1838 21.0992 29.5012 21.0339 29.7785 21.1939C30.0257 21.3342 30.2061 21.6117 30.1092 21.8892C29.4911 22.6532 25.5421 27.5403 24.3159 29.5285C24.1555 29.7864 23.611 30.1553 23.4138 30.1749Z" fill="#0F47AF"/>
</svg>
