<svg width="22" height="22" viewBox="0 0 22 22" fill="none" xmlns="http://www.w3.org/2000/svg">
<path d="M21.0607 0.741443L21.0343 0.717291C20.5279 0.254757 19.8715 0 19.186 0C18.4175 0 17.6797 0.325319 17.1616 0.892468L7.36537 11.6173C7.27608 11.7151 7.20836 11.8304 7.16649 11.956L6.0146 15.4092C5.88142 15.8084 5.94826 16.2499 6.19337 16.5902C6.44043 16.9331 6.83846 17.1379 7.25817 17.1379H7.25824C7.43978 17.1379 7.61723 17.1005 7.78553 17.0269L11.1207 15.5678C11.242 15.5148 11.3507 15.4369 11.44 15.3392L21.2362 4.61437C22.2556 3.49843 22.177 1.76116 21.0607 0.741443ZM8.22158 14.7713L8.89751 12.745L8.95451 12.6825L10.2356 13.8526L10.1786 13.9151L8.22158 14.7713ZM19.8395 3.33851L11.5115 12.456L10.2304 11.2858L18.5584 2.16833C18.7213 1.99 18.9442 1.89176 19.1861 1.89176C19.3983 1.89176 19.6015 1.97071 19.7588 2.11435L19.7852 2.13851C20.131 2.45437 20.1553 2.9927 19.8395 3.33851Z" fill="white"/>
<path d="M19.1595 8.72608C18.6371 8.72608 18.2136 9.14959 18.2136 9.67196V17.7023C18.2136 19.0287 17.1345 20.1078 15.8081 20.1078H4.34412C3.01769 20.1078 1.93863 19.0287 1.93863 17.7023V6.33143C1.93863 5.00506 3.01775 3.92594 4.34412 3.92594H12.6418C13.1642 3.92594 13.5877 3.50244 13.5877 2.98006C13.5877 2.45768 13.1642 2.03418 12.6418 2.03418H4.34412C1.97457 2.03418 0.046875 3.96194 0.046875 6.33143V17.7022C0.046875 20.0717 1.97464 21.9995 4.34412 21.9995H15.808C18.1775 21.9995 20.1053 20.0717 20.1053 17.7022V9.67196C20.1053 9.14959 19.6818 8.72608 19.1595 8.72608Z" fill="white"/>
</svg>
