<svg width="24" height="15" viewBox="0 0 24 15" fill="none" xmlns="http://www.w3.org/2000/svg">
<path d="M9.96295 -0.346191H0V4.8582H9.96295V-0.346191Z" fill="#00237C"/>
<path d="M2.73496 -0.346191H0V1.29051L13.3409 9.89422L16.5884 8.58819L2.73496 -0.346191Z" fill="white"/>
<path d="M0 -0.209656V0.915864L13.5179 9.63333L14.0475 8.84911L0 -0.209656Z" fill="#CF142B"/>
<path d="M24.0001 -0.346191H14.0371V4.8582H24.0001V-0.346191Z" fill="#00237C"/>
<path d="M21.2671 -0.346191H24.0005V1.29051L10.6596 9.89422L7.41211 8.58819L21.2671 -0.346191Z" fill="white"/>
<path d="M24.0006 -0.209656V0.915864L10.4827 9.63333L9.95312 8.84911L24.0006 -0.209656Z" fill="#CF142B"/>
<path d="M24.0001 10.1414H14.0371V15.3458H24.0001V10.1414Z" fill="#00237C"/>
<path d="M21.2671 15.3459H24.0005V13.7092L10.6596 5.10547L7.41211 6.4115L21.2671 15.3459Z" fill="white"/>
<path d="M24.0006 15.2094V14.0854L10.4827 5.36639L9.95312 6.15062L24.0006 15.2094Z" fill="#CF142B"/>
<path d="M9.96295 10.1414H0V15.3458H9.96295V10.1414Z" fill="#00237C"/>
<path d="M2.73496 15.3459H0V13.7092L13.3409 5.10547L16.5884 6.4115L2.73496 15.3459Z" fill="white"/>
<path d="M0 15.2094V14.0854L13.5179 5.36639L14.0475 6.15062L0 15.2094Z" fill="#CF142B"/>
<path d="M23.9996 4.8582H14.0568V-0.346191H9.90238V4.8582H0V10.0247H9.90238V15.3459H14.0568V10.0247H23.9996V4.8582Z" fill="white"/>
<path d="M23.9996 5.91546H13.1747V-0.346191H10.7845V5.91546H0V8.96741H10.7845V15.3459H13.1747V8.96741H23.9996V5.91546Z" fill="#CF142B"/>
</svg>
