<svg width="30" height="24" viewBox="0 0 30 24" fill="none" xmlns="http://www.w3.org/2000/svg">
<path d="M26.9766 4.51736C24.9609 4.30689 23.25 5.89549 23.25 7.86892L23.2383 11.4314C22.6936 11.0681 22.0373 10.8689 21.375 10.8689C20.3259 10.8689 19.3477 11.3494 18.7031 12.1814L15.3398 16.5525C15.2109 16.7166 15.1055 16.9041 15 17.0799C14.8945 16.9041 14.7891 16.7166 14.6602 16.5525L11.2969 12.1814C10.6523 11.3494 9.67359 10.8689 8.625 10.8689C7.96313 10.8689 7.30688 11.0681 6.76172 11.4314L6.75 7.86892C6.75 5.89502 5.04047 4.30596 3.02391 4.51642C1.26469 4.70017 0 6.31736 0 8.08924V16.9533C0 18.1491 0.404766 19.3102 1.14844 20.2467L3.68531 23.5725C4.06641 24.0502 4.75781 24.1392 5.25 23.7736C5.76094 23.3905 5.85375 22.6608 5.45461 22.1621L2.90602 18.84C2.48156 18.308 2.25 17.647 2.25 16.9674V7.91111C2.25 7.36643 2.61328 6.86814 3.15234 6.7683C3.86719 6.62674 4.5 7.17986 4.5 7.86892C4.5 7.86892 4.51172 12.6033 4.51172 14.0845C4.51172 14.442 4.64648 14.776 4.88086 15.0511L8.4668 19.3871C8.67188 19.639 8.96461 19.7621 9.26367 19.7621C9.5332 19.7621 9.80836 19.6566 10.0193 19.4339C10.3709 19.0648 10.3591 18.4786 10.0545 18.0689L7.73414 14.9283C7.35328 14.4361 7.44703 13.7274 7.93922 13.3463C8.1443 13.1881 8.38453 13.1119 8.62453 13.1119C8.96438 13.1119 9.2925 13.2642 9.52078 13.5513L12.8888 17.9365C13.2885 18.4568 13.5052 19.0948 13.5052 19.7506L13.5008 22.4946C13.5008 23.3173 14.1772 23.9881 14.9994 23.9918C15.8215 23.9883 16.4979 23.3178 16.4979 22.4946L16.4935 19.7506C16.4935 19.1365 16.7102 18.4568 17.11 17.9365L20.4779 13.5513C20.7094 13.2642 21.0375 13.1142 21.375 13.1142C21.6152 13.1142 21.8555 13.1904 22.0603 13.3486C22.5525 13.7295 22.6462 14.4385 22.2654 14.9306L19.9451 18.0713C19.6404 18.4814 19.6287 19.0674 19.9802 19.4363C20.1912 19.6589 20.4668 19.7644 20.7359 19.7644C21.0347 19.7644 21.3274 19.6413 21.5327 19.3894L25.1187 15.0535C25.353 14.7781 25.4878 14.4441 25.4878 14.0869C25.4906 12.6033 25.5 7.86892 25.5 7.86892C25.5 7.17752 26.1328 6.62674 26.8477 6.76736C27.3891 6.8658 27.75 7.36736 27.75 7.91111V16.9674C27.75 17.6475 27.5185 18.3071 27.0938 18.8381L24.5456 22.1602C24.1453 22.658 24.2391 23.347 24.75 23.7736C25.2403 24.1412 25.9336 24.0519 26.3147 23.572L28.8516 20.2462C29.5969 19.3064 30 18.1486 30 16.9533V8.08924C30 6.31736 28.7344 4.70017 26.9766 4.51736ZM14.4 11.7408C14.7281 12.0865 15.2672 12.0865 15.5953 11.7408L20.6625 6.38768C22.1391 4.83471 22.0542 2.25892 20.3961 0.823613C18.9486 -0.430294 16.7975 -0.20295 15.4789 1.18582L14.9578 1.73017L14.4797 1.18502C13.1578 -0.203606 11.0016 -0.432309 9.52031 0.821737C7.86797 2.25705 7.77422 4.8333 9.25645 6.3858L14.4 11.7408Z" fill="white"/>
</svg>
