<svg width="32" height="32" viewBox="0 0 32 32" fill="none" xmlns="http://www.w3.org/2000/svg">
<path d="M27.9766 8.51736C25.9609 8.30689 24.25 9.89549 24.25 11.8689L24.2383 15.4314C23.6936 15.0681 23.0373 14.8689 22.375 14.8689C21.3259 14.8689 20.3477 15.3494 19.7031 16.1814L16.3398 20.5525C16.2109 20.7166 16.1055 20.9041 16 21.0799C15.8945 20.9041 15.7891 20.7166 15.6602 20.5525L12.2969 16.1814C11.6523 15.3494 10.6736 14.8689 9.625 14.8689C8.96313 14.8689 8.30688 15.0681 7.76172 15.4314L7.75 11.8689C7.75 9.89502 6.04047 8.30596 4.02391 8.51642C2.26469 8.70017 1 10.3174 1 12.0892V20.9533C1 22.1491 1.40477 23.3102 2.14844 24.2467L4.68531 27.5725C5.06641 28.0502 5.75781 28.1392 6.25 27.7736C6.76094 27.3905 6.85375 26.6608 6.45461 26.1621L3.90602 22.84C3.48156 22.308 3.25 21.647 3.25 20.9674V11.9111C3.25 11.3664 3.61328 10.8681 4.15234 10.7683C4.86719 10.6267 5.5 11.1799 5.5 11.8689C5.5 11.8689 5.51172 16.6033 5.51172 18.0845C5.51172 18.442 5.64648 18.776 5.88086 19.0511L9.4668 23.3871C9.67188 23.639 9.96461 23.7621 10.2637 23.7621C10.5332 23.7621 10.8084 23.6566 11.0193 23.4339C11.3709 23.0648 11.3591 22.4786 11.0545 22.0689L8.73414 18.9283C8.35328 18.4361 8.44703 17.7274 8.93922 17.3463C9.1443 17.1881 9.38453 17.1119 9.62453 17.1119C9.96438 17.1119 10.2925 17.2642 10.5208 17.5513L13.8888 21.9365C14.2885 22.4568 14.5052 23.0948 14.5052 23.7506L14.5008 26.4946C14.5008 27.3173 15.1772 27.9881 15.9994 27.9918C16.8215 27.9883 17.4979 27.3178 17.4979 26.4946L17.4935 23.7506C17.4935 23.1365 17.7102 22.4568 18.11 21.9365L21.4779 17.5513C21.7094 17.2642 22.0375 17.1142 22.375 17.1142C22.6152 17.1142 22.8555 17.1904 23.0603 17.3486C23.5525 17.7295 23.6462 18.4385 23.2654 18.9306L20.9451 22.0713C20.6404 22.4814 20.6287 23.0674 20.9802 23.4363C21.1912 23.6589 21.4668 23.7644 21.7359 23.7644C22.0347 23.7644 22.3274 23.6413 22.5327 23.3894L26.1187 19.0535C26.353 18.7781 26.4878 18.4441 26.4878 18.0869C26.4906 16.6033 26.5 11.8689 26.5 11.8689C26.5 11.1775 27.1328 10.6267 27.8477 10.7674C28.3891 10.8658 28.75 11.3674 28.75 11.9111V20.9674C28.75 21.6475 28.5185 22.3071 28.0938 22.8381L25.5456 26.1602C25.1453 26.658 25.2391 27.347 25.75 27.7736C26.2403 28.1412 26.9336 28.0519 27.3147 27.572L29.8516 24.2462C30.5969 23.3064 31 22.1486 31 20.9533V12.0892C31 10.3174 29.7344 8.70017 27.9766 8.51736ZM15.4 15.7408C15.7281 16.0865 16.2672 16.0865 16.5953 15.7408L21.6625 10.3877C23.1391 8.83471 23.0542 6.25892 21.3961 4.82361C19.9486 3.56971 17.7975 3.79705 16.4789 5.18582L15.9578 5.73017L15.4797 5.18502C14.1578 3.79639 12.0016 3.56769 10.5203 4.82174C8.86797 6.25705 8.77422 8.8333 10.2565 10.3858L15.4 15.7408Z" fill="white"/>
</svg>
