<svg width="24" height="24" viewBox="0 0 24 24" fill="none" xmlns="http://www.w3.org/2000/svg">
<path fill-rule="evenodd" clip-rule="evenodd" d="M8.47915 4.23439L8.47966 4.23555L10.0152 7.85835C10.3014 8.53479 10.1053 9.33037 9.54139 9.79242L8.15899 10.929L8.26641 11.113C9.22139 12.748 10.6142 14.1458 12.2778 15.106L12.462 15.2124L13.5925 13.8269L13.5937 13.8253C14.0513 13.2556 14.8464 13.0598 15.5207 13.3533L19.0862 14.8877C19.8216 15.2046 20.2207 15.9996 20.0129 16.773L19.2462 20.1103L19.2445 20.1194C19.102 20.8654 18.4479 21.3931 17.6714 21.3931C9.02927 21.3931 2 14.3384 2 5.66093C2 4.88159 2.52711 4.21913 3.2795 4.04645L6.592 3.27902C7.36361 3.09998 8.15775 3.49918 8.47915 4.23439ZM18.0629 19.852L18.8334 16.4996L18.835 16.4925C18.8745 16.2943 18.761 16.1351 18.6636 16.0468L18.6327 16.0188L15.0305 14.4698C14.8637 14.394 14.6666 14.443 14.5553 14.5825L13.104 16.362C12.919 16.5885 12.5773 16.6496 12.3583 16.5312L12.3497 16.5269C9.9587 15.349 7.99313 13.3753 6.81909 10.9751C6.69194 10.7148 6.75997 10.4006 6.98265 10.2169L8.75177 8.79304L8.75419 8.79104C8.89392 8.67566 8.94057 8.48175 8.8703 8.31566L7.34061 4.73259L7.33961 4.73031C7.27407 4.58094 7.1242 4.48569 6.96377 4.48569C6.93727 4.48569 6.90537 4.4882 6.87116 4.49649L3.55706 5.26426C3.36822 5.30788 3.2421 5.46958 3.2421 5.66097C3.2421 13.6471 9.71297 20.1441 17.6711 20.1441C17.7975 20.1441 17.8898 20.0797 17.9408 20.0319C17.9925 19.9835 18.032 19.9248 18.0543 19.8722L18.0629 19.852Z" fill="#0F47AF"/>
<path d="M11.4225 10.9427V10.3927L11.9225 9.94274C12.7725 9.17274 13.2225 8.74274 13.2225 8.28274C13.2225 7.82274 13.0324 7.71274 12.5824 7.71274C12.274 7.72846 11.9791 7.84432 11.7425 8.04274L11.4825 7.38274C11.8568 7.11884 12.3045 6.97894 12.7625 6.98274C12.9307 6.96467 13.1009 6.98182 13.2623 7.0331C13.4236 7.08437 13.5724 7.16865 13.6994 7.28057C13.8264 7.39249 13.9287 7.52961 13.9998 7.68321C14.0709 7.8368 14.1093 8.00351 14.1125 8.17274C14.0736 8.50743 13.9644 8.83014 13.7921 9.11967C13.6198 9.4092 13.3881 9.65902 13.1125 9.85274L12.7524 10.1527H14.2225V10.8927L11.4225 10.9427Z" fill="#0F47AF"/>
<path d="M16.3624 10.9428V10.0128H14.6324V9.42279L16.1124 7.05279H17.2224V9.33279H17.6924V10.0128H17.2224V10.9428H16.3624ZM16.3624 9.33279V8.47279C16.3624 8.23279 16.3624 7.99279 16.3624 7.74279C16.2324 7.99279 16.1324 8.22279 16.0024 8.47279L15.4724 9.32279H16.3524L16.3624 9.33279Z" fill="#0F47AF"/>
<path d="M21.2765 8.61347C21.5573 10.1446 21.3909 11.7224 20.8006 13.1576L19.8634 12.7276C20.366 11.4862 20.5061 10.1242 20.2636 8.80206C20.0031 7.38129 19.3135 6.0752 18.2882 5.06104C17.2629 4.04688 15.9516 3.37381 14.5323 3.13317C13.2118 2.9093 11.8573 3.06981 10.6282 3.59237L10.1858 2.65738C11.6066 2.04378 13.1757 1.85353 14.7047 2.11277C16.3321 2.38868 17.8355 3.16037 19.0111 4.32321C20.1867 5.48605 20.9777 6.98383 21.2765 8.61347Z" fill="#0F47AF"/>
</svg>
