<svg width="32" height="29" viewBox="0 0 32 29" fill="none" xmlns="http://www.w3.org/2000/svg">
<path d="M31.528 12.7612C32.0891 13.239 32.1613 14.0779 31.6835 14.639C31.2057 15.2001 30.3668 15.2723 29.8057 14.7945L28.4446 13.639V24.0002C28.4446 26.4557 26.4557 28.4446 24.0001 28.4446H8.00005C5.54559 28.4446 3.55557 26.4557 3.55557 24.0002V13.639L2.19612 14.7945C1.63445 15.2723 0.793336 15.2001 0.316666 14.639C-0.159726 14.0779 -0.0907807 13.239 0.470723 12.7612L15.139 0.316669C15.6334 -0.105556 16.3668 -0.105556 16.8612 0.316669L31.528 12.7612ZM8.00005 25.7779H10.6667V17.3334C10.6667 16.1057 11.6612 15.1112 12.889 15.1112H19.1112C20.339 15.1112 21.3335 16.1057 21.3335 17.3334V25.7779H24.0001C24.9835 25.7779 25.7779 24.9835 25.7779 24.0002V11.3779L16.0001 3.08169L6.22226 11.3779V24.0002C6.22226 24.9835 7.01671 25.7779 8.00005 25.7779ZM13.3334 25.7779H18.6668V17.7779H13.3334V25.7779Z" fill="white"/>
</svg>
