<svg width="32" height="32" viewBox="0 0 32 32" fill="none" xmlns="http://www.w3.org/2000/svg">
<g clip-path="url(#clip0_982_15212)">
<path d="M31.528 14.7612C32.0891 15.239 32.1613 16.0779 31.6835 16.639C31.2057 17.2001 30.3668 17.2723 29.8057 16.7945L28.4446 15.639V26.0002C28.4446 28.4557 26.4557 30.4446 24.0001 30.4446H8.00005C5.54559 30.4446 3.55557 28.4557 3.55557 26.0002V15.639L2.19612 16.7945C1.63445 17.2723 0.793336 17.2001 0.316666 16.639C-0.159726 16.0779 -0.0907807 15.239 0.470723 14.7612L15.139 2.31667C15.6334 1.89444 16.3668 1.89444 16.8612 2.31667L31.528 14.7612ZM8.00005 27.7779H10.6667V19.3334C10.6667 18.1057 11.6612 17.1112 12.889 17.1112H19.1112C20.339 17.1112 21.3335 18.1057 21.3335 19.3334V27.7779H24.0001C24.9835 27.7779 25.7779 26.9835 25.7779 26.0002V13.3779L16.0001 5.08169L6.22226 13.3779V26.0002C6.22226 26.9835 7.01671 27.7779 8.00005 27.7779ZM13.3334 27.7779H18.6668V19.7779H13.3334V27.7779Z" fill="white"/>
</g>
<defs>
<clipPath id="clip0_982_15212">
<rect width="32" height="32" fill="white"/>
</clipPath>
</defs>
</svg>
