<svg width="34" height="34" viewBox="0 0 34 34" fill="none" xmlns="http://www.w3.org/2000/svg">
<path fill-rule="evenodd" clip-rule="evenodd" d="M33.6663 17C33.6663 26.2047 26.2044 33.6666 16.9997 33.6666C7.79493 33.6666 0.333008 26.2047 0.333008 17C0.333008 7.79523 7.79493 0.333313 16.9997 0.333313C26.2044 0.333313 33.6663 7.79523 33.6663 17ZM16.9997 30.8889C24.6703 30.8889 30.8886 24.6706 30.8886 17C30.8886 9.32936 24.6703 3.11109 16.9997 3.11109C9.32905 3.11109 3.11079 9.32936 3.11079 17C3.11079 24.6706 9.32905 30.8889 16.9997 30.8889Z" fill="#0F47AF"/>
<path fill-rule="evenodd" clip-rule="evenodd" d="M17.0755 13.4507C18.1409 13.4507 19.0045 12.587 19.0045 11.5217C19.0045 10.4563 18.1409 9.59265 17.0755 9.59265C16.0101 9.59265 15.1465 10.4563 15.1465 11.5217C15.1465 12.587 16.0101 13.4507 17.0755 13.4507ZM18.7095 16.5371C18.7095 15.6347 17.9779 14.9031 17.0755 14.9031C16.1731 14.9031 15.4415 15.6347 15.4415 16.5371V21.9383C15.4415 22.8408 16.1731 23.5723 17.0755 23.5723C17.9779 23.5723 18.7095 22.8408 18.7095 21.9383V16.5371Z" fill="#0F47AF"/>
</svg>
