<svg width="20" height="20" viewBox="0 0 20 20" fill="none" xmlns="http://www.w3.org/2000/svg">
<path fill-rule="evenodd" clip-rule="evenodd" d="M18.3337 10.0003C18.3337 14.6027 14.6027 18.3337 10.0003 18.3337C5.39795 18.3337 1.66699 14.6027 1.66699 10.0003C1.66699 5.39795 5.39795 1.66699 10.0003 1.66699C14.6027 1.66699 18.3337 5.39795 18.3337 10.0003ZM10.0003 16.9448C13.8356 16.9448 16.9448 13.8356 16.9448 10.0003C16.9448 6.16501 13.8356 3.05588 10.0003 3.05588C6.16501 3.05588 3.05588 6.16501 3.05588 10.0003C3.05588 13.8356 6.16501 16.9448 10.0003 16.9448Z" fill="#0F47AF"/>
<path fill-rule="evenodd" clip-rule="evenodd" d="M10.0387 8.22589C10.5714 8.22589 11.0032 7.79406 11.0032 7.26138C11.0032 6.7287 10.5714 6.29688 10.0387 6.29688C9.50604 6.29688 9.07422 6.7287 9.07422 7.26138C9.07422 7.79406 9.50604 8.22589 10.0387 8.22589ZM10.8557 9.7691C10.8557 9.31788 10.4899 8.9521 10.0387 8.9521C9.58751 8.9521 9.22173 9.31788 9.22173 9.7691V12.4697C9.22173 12.9209 9.58751 13.2867 10.0387 13.2867C10.4899 13.2867 10.8557 12.9209 10.8557 12.4697V9.7691Z" fill="#0F47AF"/>
</svg>
