<svg width="33" height="32" viewBox="0 0 33 32" fill="none" xmlns="http://www.w3.org/2000/svg">
<path d="M16.5001 9.33333V4H3.16675V28H29.8334V9.33333H16.5001ZM8.50008 25.3333H5.83341V22.6667H8.50008V25.3333ZM8.50008 20H5.83341V17.3333H8.50008V20ZM8.50008 14.6667H5.83341V12H8.50008V14.6667ZM8.50008 9.33333H5.83341V6.66667H8.50008V9.33333ZM13.8334 25.3333H11.1667V22.6667H13.8334V25.3333ZM13.8334 20H11.1667V17.3333H13.8334V20ZM13.8334 14.6667H11.1667V12H13.8334V14.6667ZM13.8334 9.33333H11.1667V6.66667H13.8334V9.33333ZM27.1667 25.3333H16.5001V22.6667H19.1667V20H16.5001V17.3333H19.1667V14.6667H16.5001V12H27.1667V25.3333ZM24.5001 14.6667H21.8334V17.3333H24.5001V14.6667ZM24.5001 20H21.8334V22.6667H24.5001V20Z" fill="#0F47AF"/>
</svg>
