<svg width="32" height="32" viewBox="0 0 32 32" fill="none" xmlns="http://www.w3.org/2000/svg">
<path d="M15.9871 16.0228L11.4517 20.5634L13.6298 22.7467C14.289 23.4059 14.289 24.4712 13.6298 25.1304C12.9706 25.7896 11.9053 25.7896 11.2461 25.1304L9.06275 22.9524L8.07393 23.9386L10.2546 26.1219C10.9138 26.7811 10.9138 27.8464 10.2546 28.5056C9.59539 29.1648 8.52852 29.1648 7.86931 28.5056L4.49425 25.1304C3.83525 24.4712 3.83525 23.4059 4.49425 22.7467L13.6034 13.639C12.8651 12.4683 12.3904 11.0813 12.3904 9.59412C12.3904 5.39995 15.8394 2 20.032 2C24.2246 2 27.6262 5.39995 27.6262 9.59412C27.6262 13.7867 24.2246 17.1882 20.032 17.1882C18.5449 17.1882 17.1579 16.7611 15.9871 16.0228ZM20.032 13.8131C22.363 13.8131 24.251 11.9251 24.251 9.59412C24.251 7.2642 22.363 5.37516 20.032 5.37516C17.7011 5.37516 15.8131 7.2642 15.8131 9.59412C15.8131 11.9251 17.7011 13.8131 20.032 13.8131Z" fill="white"/>
</svg>
