<svg width="24" height="27" viewBox="0 0 24 27" fill="none" xmlns="http://www.w3.org/2000/svg">
<path d="M11.9871 14.0228L7.45173 18.5634L9.62977 20.7467C10.289 21.4059 10.289 22.4712 9.62977 23.1304C8.97056 23.7896 7.90527 23.7896 7.24606 23.1304L5.06275 20.9524L4.07393 21.9386L6.2546 24.1219C6.91381 24.7811 6.91381 25.8464 6.2546 26.5056C5.59539 27.1648 4.52852 27.1648 3.86931 26.5056L0.494251 23.1304C-0.16475 22.4712 -0.16475 21.4059 0.494251 20.7467L9.6034 11.639C8.86508 10.4683 8.39045 9.0813 8.39045 7.59412C8.39045 3.39995 11.8394 0 16.032 0C20.2246 0 23.6262 3.39995 23.6262 7.59412C23.6262 11.7867 20.2246 15.1882 16.032 15.1882C14.5449 15.1882 13.1579 14.7611 11.9871 14.0228ZM16.032 11.8131C18.363 11.8131 20.251 9.92509 20.251 7.59412C20.251 5.2642 18.363 3.37516 16.032 3.37516C13.7011 3.37516 11.8131 5.2642 11.8131 7.59412C11.8131 9.92509 13.7011 11.8131 16.032 11.8131Z" fill="white"/>
</svg>
