<svg width="45" height="44" viewBox="0 0 45 44" fill="none" xmlns="http://www.w3.org/2000/svg">
<path fill-rule="evenodd" clip-rule="evenodd" d="M34.4995 15.9395C34.4995 15.337 34.0111 14.8486 33.4086 14.8486H11.5908C10.9884 14.8486 10.5 15.337 10.5 15.9395C10.5 16.542 10.9884 17.0304 11.5908 17.0304H33.4086C34.0111 17.0304 34.4995 16.542 34.4995 15.9395Z" fill="#0F47AF"/>
<path fill-rule="evenodd" clip-rule="evenodd" d="M30.1367 22.4849C30.1367 21.8825 29.6483 21.394 29.0458 21.394H11.5916C10.9891 21.394 10.5007 21.8825 10.5007 22.4849C10.5007 23.0874 10.9891 23.5758 11.5916 23.5758H29.0458C29.6483 23.5758 30.1367 23.0874 30.1367 22.4849Z" fill="#0F47AF"/>
<path fill-rule="evenodd" clip-rule="evenodd" d="M25.7742 29.0303C25.7742 28.4279 25.2858 27.9395 24.6833 27.9395H11.5926C10.9901 27.9395 10.5017 28.4279 10.5017 29.0303C10.5017 29.6328 10.9901 30.1212 11.5926 30.1212H24.6833C25.2858 30.1212 25.7742 29.6328 25.7742 29.0303Z" fill="#FDB913"/>
</svg>
