<svg width="32" height="32" viewBox="0 0 32 32" fill="none" xmlns="http://www.w3.org/2000/svg">
<path d="M21.75 2H9.5C7.5668 2 6 3.5668 6 5.5V26.5C6 28.4332 7.5668 30 9.5 30H21.75C23.6832 30 25.25 28.4332 25.25 26.5V5.5C25.25 3.5668 23.6805 2 21.75 2ZM22.625 26.5C22.625 26.9825 22.2325 27.375 21.75 27.375H9.5C9.01766 27.375 8.625 26.9813 8.625 26.5V22.125H22.625V26.5ZM22.625 19.5H8.625V5.5C8.625 5.01755 9.01755 4.625 9.5 4.625H21.75C22.2313 4.625 22.625 5.01766 22.625 5.5V19.5ZM15.625 26.0625C16.3502 26.0625 16.9375 25.4746 16.9375 24.75C16.9375 24.0248 16.3502 23.4375 15.625 23.4375C14.8998 23.4375 14.3125 24.0227 14.3125 24.75C14.3125 25.4773 14.8977 26.0625 15.625 26.0625Z" fill="white"/>
</svg>
