<svg width="20" height="28" viewBox="0 0 20 28" fill="none" xmlns="http://www.w3.org/2000/svg">
<path d="M15.75 0H3.5C1.5668 0 0 1.5668 0 3.5V24.5C0 26.4332 1.5668 28 3.5 28H15.75C17.6832 28 19.25 26.4332 19.25 24.5V3.5C19.25 1.5668 17.6805 0 15.75 0ZM16.625 24.5C16.625 24.9825 16.2325 25.375 15.75 25.375H3.5C3.01766 25.375 2.625 24.9813 2.625 24.5V20.125H16.625V24.5ZM16.625 17.5H2.625V3.5C2.625 3.01755 3.01755 2.625 3.5 2.625H15.75C16.2313 2.625 16.625 3.01766 16.625 3.5V17.5ZM9.625 24.0625C10.3502 24.0625 10.9375 23.4746 10.9375 22.75C10.9375 22.0248 10.3502 21.4375 9.625 21.4375C8.89984 21.4375 8.3125 22.0227 8.3125 22.75C8.3125 23.4773 8.89766 24.0625 9.625 24.0625Z" fill="white"/>
</svg>
