<svg width="32" height="32" viewBox="0 0 32 32" fill="none" xmlns="http://www.w3.org/2000/svg">
<path d="M17.3332 12.6522V19.7536H18.6647C18.8478 19.7536 19.0253 19.7702 19.1973 19.7591L24.8618 12.4802C24.8729 12.2416 24.8785 12.003 24.8785 11.7645C24.8785 8.21931 23.6468 5.04252 21.7106 2.92596C26.7648 4.7335 29.1726 8.80185 29.9715 11.6313C30.1213 12.1584 29.6553 12.6522 29.156 12.6522H28.0464L21.1946 21.5345C21.2834 21.8452 21.3277 22.1226 21.3277 22.4166V27.7427C21.3277 29.2129 20.1349 30.4058 18.6647 30.4058H13.2887C11.8684 30.4058 10.6256 29.2129 10.6256 27.7427V22.4166C10.6256 22.1226 10.72 21.8452 10.8087 21.5345L3.90868 12.6522H2.84679C2.2981 12.6522 1.88105 12.1584 2.03074 11.6313C2.83292 8.80185 5.23687 4.7335 10.2928 2.92596C8.35651 5.04252 7.12486 8.21931 7.12486 11.7645C7.12486 12.003 7.1304 12.2416 7.1415 12.4802L12.806 19.7591C12.978 19.7702 13.1555 19.7536 13.3386 19.7536H14.6701V12.6522H8.92796C8.91131 12.3581 8.90022 12.0641 8.90022 11.7645C8.90022 8.935 9.78235 6.43895 11.1305 4.6869C12.4787 2.93706 14.2152 2 16.0017 2C17.7881 2 19.5246 2.93706 20.8728 4.6869C22.221 6.43895 23.1031 8.935 23.1031 11.7645C23.1031 12.0641 23.092 12.3581 23.0754 12.6522H17.3332ZM13.2887 22.4166V27.7427H18.6647V22.4166H13.2887Z" fill="white"/>
</svg>
