<svg width="28" height="29" viewBox="0 0 28 29" fill="none" xmlns="http://www.w3.org/2000/svg">
<path d="M15.3332 10.6522V17.7536H16.6647C16.8478 17.7536 17.0253 17.7702 17.1973 17.7591L22.8618 10.4802C22.8729 10.2416 22.8785 10.003 22.8785 9.76448C22.8785 6.21931 21.6468 3.04252 19.7106 0.925961C24.7648 2.7335 27.1726 6.80185 27.9715 9.63133C28.1213 10.1584 27.6553 10.6522 27.156 10.6522H26.0464L19.1946 19.5345C19.2834 19.8452 19.3277 20.1226 19.3277 20.4166V25.7427C19.3277 27.2129 18.1349 28.4058 16.6647 28.4058H11.2887C9.8684 28.4058 8.62565 27.2129 8.62565 25.7427V20.4166C8.62565 20.1226 8.71996 19.8452 8.80873 19.5345L1.90868 10.6522H0.846794C0.298096 10.6522 -0.118947 10.1584 0.0307383 9.63133C0.832924 6.80185 3.23687 2.7335 8.29277 0.925961C6.35651 3.04252 5.12486 6.21931 5.12486 9.76448C5.12486 10.003 5.1304 10.2416 5.1415 10.4802L10.806 17.7591C10.978 17.7702 11.1555 17.7536 11.3386 17.7536H12.6701V10.6522H6.92796C6.91131 10.3581 6.90022 10.0641 6.90022 9.76448C6.90022 6.935 7.78235 4.43895 9.13051 2.6869C10.4787 0.937057 12.2152 0 14.0017 0C15.7881 0 17.5246 0.937057 18.8728 2.6869C20.221 4.43895 21.1031 6.935 21.1031 9.76448C21.1031 10.0641 21.092 10.3581 21.0754 10.6522H15.3332ZM11.2887 20.4166V25.7427H16.6647V20.4166H11.2887Z" fill="white"/>
</svg>
