<svg width="28" height="25" viewBox="0 0 28 25" fill="none" xmlns="http://www.w3.org/2000/svg">
<path d="M4.09573 13.9365C5.68847 13.5536 6.51602 11.7076 5.94828 9.81406C5.44945 8.14967 4.04049 6.95183 2.62551 6.95183C2.42724 6.95183 2.22951 6.97288 2.03152 7.02075C0.438775 7.40362 -0.388772 9.2496 0.17897 11.1432C0.678014 12.8048 2.08676 13.9534 3.50228 13.9534C3.69974 14.0021 3.89719 13.9802 4.09573 13.9365ZM17.4202 8.67475C17.6171 8.72397 17.814 8.75132 18.0109 8.75132C19.5287 8.75132 21.0826 7.2811 21.6569 5.18242C22.3061 2.80972 21.4586 0.51961 19.7699 0.0754802C19.5752 0.0273479 19.3783 0 19.1814 0C17.6636 0 16.1097 1.46311 15.5354 3.5689C14.8823 5.93996 15.7301 8.23171 17.4202 8.67475ZM25.9746 7.07216C25.7763 7.0243 25.5786 7.00324 25.3806 7.00324C23.9656 7.00324 22.5566 8.1524 22.0578 9.81351C21.4906 11.7076 22.3176 13.5531 23.9104 13.9359C24.1086 13.9838 24.3063 14.0048 24.5044 14.0048C25.9193 14.0048 27.3283 12.8556 27.8277 11.1945C28.3921 9.29828 27.517 7.45503 25.9746 7.07216ZM9.99248 8.75132C10.1908 8.75132 10.3867 8.72394 10.5848 8.67606C12.2733 8.23171 13.1211 5.93996 12.4702 3.5689C11.8959 1.47022 10.3425 0 8.82199 0C8.62509 0 8.42818 0.0273479 8.23128 0.0754802C6.54282 0.519883 5.69504 2.76104 6.34428 5.18242C6.91858 7.28 8.47194 8.75132 9.99248 8.75132ZM14.0017 10.5016C9.66048 10.5016 3.54932 17.2128 3.54932 21.4517C3.50119 23.3606 4.96375 24.5037 7.42725 24.5037C10.0964 24.5037 11.8631 23.1308 14.0017 23.1308C16.1622 23.1308 17.9343 24.5037 20.5761 24.5037C22.9882 24.5037 24.5 23.3622 24.5 21.4544C24.454 17.2182 18.3445 10.5016 14.0017 10.5016ZM21.8615 21.6103C21.8177 21.665 21.4458 21.8783 20.5761 21.8783C19.6053 21.8783 18.7575 21.598 17.7664 21.2701C16.6796 20.9146 15.4489 20.5043 13.9995 20.5043C12.5637 20.5043 11.3402 20.9146 10.2599 21.2701C9.2705 21.5994 8.41177 21.8783 7.42725 21.8783C6.55923 21.8783 6.19003 21.6664 6.14901 21.6253C6.14217 21.6117 6.1285 21.557 6.1285 21.4544C6.12549 18.4926 11.2067 13.127 14.0017 13.127C16.7966 13.127 21.8286 18.4943 21.8286 21.4517C21.8286 21.5556 21.8615 21.6103 21.8615 21.6103Z" fill="white"/>
</svg>
