<svg width="32" height="32" viewBox="0 0 32 32" fill="none" xmlns="http://www.w3.org/2000/svg">
<path d="M6.09573 17.9365C7.68847 17.5536 8.51602 15.7076 7.94828 13.8141C7.44945 12.1497 6.04049 10.9518 4.62551 10.9518C4.42724 10.9518 4.22951 10.9729 4.03152 11.0207C2.43877 11.4036 1.61123 13.2496 2.17897 15.1432C2.67801 16.8048 4.08676 17.9534 5.50228 17.9534C5.69974 18.0021 5.89719 17.9802 6.09573 17.9365ZM19.4202 12.6747C19.6171 12.724 19.814 12.7513 20.0109 12.7513C21.5287 12.7513 23.0826 11.2811 23.6569 9.18242C24.3061 6.80972 23.4586 4.51961 21.7699 4.07548C21.5752 4.02735 21.3783 4 21.1814 4C19.6636 4 18.1097 5.46311 17.5354 7.5689C16.8823 9.93996 17.7301 12.2317 19.4202 12.6747ZM27.9746 11.0722C27.7763 11.0243 27.5786 11.0032 27.3806 11.0032C25.9656 11.0032 24.5566 12.1524 24.0578 13.8135C23.4906 15.7076 24.3176 17.5531 25.9104 17.9359C26.1086 17.9838 26.3063 18.0048 26.5044 18.0048C27.9193 18.0048 29.3283 16.8556 29.8277 15.1945C30.3921 13.2983 29.517 11.455 27.9746 11.0722ZM11.9925 12.7513C12.1908 12.7513 12.3867 12.7239 12.5848 12.6761C14.2733 12.2317 15.1211 9.93996 14.4702 7.5689C13.8959 5.47022 12.3425 4 10.822 4C10.6251 4 10.4282 4.02735 10.2313 4.07548C8.54282 4.51988 7.69504 6.76104 8.34428 9.18242C8.91858 11.28 10.4719 12.7513 11.9925 12.7513ZM16.0017 14.5016C11.6605 14.5016 5.54932 21.2128 5.54932 25.4517C5.50119 27.3606 6.96375 28.5037 9.42725 28.5037C12.0964 28.5037 13.8631 27.1308 16.0017 27.1308C18.1622 27.1308 19.9343 28.5037 22.5761 28.5037C24.9882 28.5037 26.5 27.3622 26.5 25.4544C26.454 21.2182 20.3445 14.5016 16.0017 14.5016ZM23.8615 25.6103C23.8177 25.665 23.4458 25.8783 22.5761 25.8783C21.6053 25.8783 20.7575 25.598 19.7664 25.2701C18.6796 24.9146 17.4489 24.5043 15.9995 24.5043C14.5637 24.5043 13.3402 24.9146 12.2599 25.2701C11.2705 25.5994 10.4118 25.8783 9.42725 25.8783C8.55923 25.8783 8.19003 25.6664 8.14901 25.6253C8.14217 25.6117 8.1285 25.557 8.1285 25.4544C8.12549 22.4926 13.2067 17.127 16.0017 17.127C18.7966 17.127 23.8286 22.4943 23.8286 25.4517C23.8286 25.5556 23.8615 25.6103 23.8615 25.6103Z" fill="white"/>
</svg>
