<svg width="32" height="32" viewBox="0 0 32 32" fill="none" xmlns="http://www.w3.org/2000/svg">
<path d="M15.9999 7.86634C17.5466 7.86634 18.7999 9.11967 18.7999 10.6663C18.7999 12.213 17.5466 13.4663 15.9999 13.4663C14.4533 13.4663 13.1999 12.213 13.1999 10.6663C13.1999 9.11967 14.4533 7.86634 15.9999 7.86634ZM15.9999 19.8663C19.9599 19.8663 24.1333 21.813 24.1333 22.6663V24.133H7.86659V22.6663C7.86659 21.813 12.0399 19.8663 15.9999 19.8663ZM15.9999 5.33301C13.0533 5.33301 10.6666 7.71967 10.6666 10.6663C10.6666 13.613 13.0533 15.9997 15.9999 15.9997C18.9466 15.9997 21.3333 13.613 21.3333 10.6663C21.3333 7.71967 18.9466 5.33301 15.9999 5.33301ZM15.9999 17.333C12.4399 17.333 5.33325 19.1197 5.33325 22.6663V26.6663H26.6666V22.6663C26.6666 19.1197 19.5599 17.333 15.9999 17.333Z" fill="#0F47AF"/>
</svg>
