<svg width="28" height="28" viewBox="0 0 28 28" fill="none" xmlns="http://www.w3.org/2000/svg">
<path d="M26.2666 17.5169L20.8963 15.2145C19.7254 14.7069 18.3456 15.0445 17.5494 16.0321L16.0487 17.8641C13.5998 16.4559 11.5485 14.4051 10.1424 12.0071L11.9772 10.5042C12.9567 9.70469 13.2946 8.33312 12.7986 7.16553L10.4837 1.72463C9.92805 0.455866 8.55101 -0.236484 7.20951 0.0735971L2.21924 1.22533C0.913289 1.52392 0 2.67073 0 4.01386C0 17.2429 10.7571 28 23.9861 28C25.3293 28 26.4761 27.0873 26.726 25.7835L27.8777 20.7883C28.2409 19.4419 27.5408 18.0637 26.2666 17.5169ZM25.3697 20.1966L24.2164 25.1956C24.1907 25.2558 24.101 25.375 23.9856 25.375C12.2059 25.375 2.62453 15.7937 2.62453 4.01392C2.62453 3.8994 2.69546 3.80971 2.80741 3.78407L7.8026 2.63124C7.81969 2.62697 7.83764 2.62526 7.85473 2.62526C7.94955 2.62526 8.03842 2.68252 8.07605 2.76794L10.3806 8.14541C10.4216 8.24199 10.3943 8.35475 10.3122 8.42224L7.64537 10.5606C7.17369 10.9468 7.03013 11.6073 7.29843 12.1542C9.10368 15.8308 12.1252 18.8534 15.8024 20.6581C16.3001 20.9264 17.0105 20.7829 17.3971 20.3112L19.5852 17.6386C19.6458 17.5617 19.7595 17.5326 19.8543 17.5771L25.228 19.8789C25.3315 19.9724 25.3916 20.0872 25.3697 20.1966Z" fill="white"/>
</svg>
