<svg width="32" height="32" viewBox="0 0 32 32" fill="none" xmlns="http://www.w3.org/2000/svg">
<path d="M28.2666 19.5169L22.8963 17.2145C21.7254 16.7069 20.3456 17.0445 19.5494 18.0321L18.0487 19.8641C15.5998 18.4559 13.5485 16.4051 12.1424 14.0071L13.9772 12.5042C14.9567 11.7047 15.2946 10.3331 14.7986 9.16553L12.4837 3.72463C11.928 2.45587 10.551 1.76352 9.20951 2.0736L4.21924 3.22533C2.91329 3.52392 2 4.67073 2 6.01386C2 19.2429 12.7571 30 25.9861 30C27.3293 30 28.4761 29.0873 28.726 27.7835L29.8777 22.7883C30.2409 21.4419 29.5408 20.0637 28.2666 19.5169ZM27.3697 22.1966L26.2164 27.1956C26.1907 27.2558 26.101 27.375 25.9856 27.375C14.2059 27.375 4.62453 17.7937 4.62453 6.01392C4.62453 5.8994 4.69546 5.80971 4.80741 5.78407L9.8026 4.63124C9.81969 4.62697 9.83764 4.62526 9.85473 4.62526C9.94955 4.62526 10.0384 4.68252 10.076 4.76794L12.3806 10.1454C12.4216 10.242 12.3943 10.3548 12.3122 10.4222L9.64537 12.5606C9.17369 12.9468 9.03013 13.6073 9.29843 14.1542C11.1037 17.8308 14.1252 20.8534 17.8024 22.6581C18.3001 22.9264 19.0105 22.7829 19.3971 22.3112L21.5852 19.6386C21.6458 19.5617 21.7595 19.5326 21.8543 19.5771L27.228 21.8789C27.3315 21.9724 27.3916 22.0872 27.3697 22.1966Z" fill="white"/>
</svg>
