<svg width="20" height="20" viewBox="0 0 20 20" xmlns="http://www.w3.org/2000/svg" fill="#0F47AF">
<path d="M9.53127 6.3384C9.53127 5.86965 9.90956 5.49136 10.3783 5.49136C10.8471 5.49136 11.2253 5.86965 11.2253 6.3384C11.2253 6.80715 10.8471 7.18544 10.3783 7.18544C9.90956 7.18544 9.53127 6.80715 9.53127 6.3384ZM6.70643 6.3384C6.70643 5.86965 7.08472 5.49136 7.55347 5.49136C8.02222 5.49136 8.40051 5.86965 8.40051 6.3384C8.40051 6.80715 8.02222 7.18544 7.55347 7.18544C7.08472 7.18544 6.70643 6.80715 6.70643 6.3384ZM3.88159 6.3384C3.88159 5.86965 4.25988 5.49136 4.72863 5.49136C5.19738 5.49136 5.57567 5.86965 5.57567 6.3384C5.57567 6.80715 5.19738 7.18544 4.72863 7.18544C4.26399 7.18544 3.88159 6.80715 3.88159 6.3384Z"/>
<path d="M6.1431 13.16H6.39804V14.2825C6.39804 14.6443 6.68998 14.9363 7.05182 14.9363H15.0699L16.7681 16.6345V14.9363H17.8372C18.199 14.9363 18.491 14.6443 18.491 14.2825V7.74468C18.491 7.38283 18.199 7.09089 17.8372 7.09089H16.5378V5.58185H17.8372C19.0296 5.58185 20 6.55224 20 7.74468V14.2825C20 15.3228 19.2599 16.1986 18.2771 16.4001V18.3203C18.2771 18.7685 17.9112 19.1304 17.4671 19.1304C17.2492 19.1304 17.0477 19.044 16.8956 18.8919L14.4449 16.4412H7.05593C5.90462 16.4412 4.96301 15.5366 4.89722 14.4017L6.1431 13.16Z"/>
<path d="M1.9778 14.2003C1.81332 14.0481 1.72286 13.8302 1.72286 13.6082V11.6879C0.740132 11.4823 0 10.6106 0 9.57032V3.03249C0 1.84005 0.970395 0.869659 2.16283 0.869659H12.9482C14.1406 0.869659 15.111 1.84005 15.111 3.03249V9.57032C15.111 10.7628 14.1406 11.7332 12.9482 11.7332H5.5551L3.10855 14.1797C2.95641 14.3318 2.75082 14.4182 2.53289 14.4182C2.32319 14.4223 2.12582 14.3442 1.9778 14.2003ZM2.16283 2.37871C1.80099 2.37871 1.50905 2.67065 1.50905 3.03249V9.57032C1.50905 9.93216 1.80099 10.2241 2.16283 10.2241H3.23191V11.9223L4.9301 10.2241H12.9482C13.31 10.2241 13.602 9.93216 13.602 9.57032V3.03249C13.602 2.67065 13.31 2.37871 12.9482 2.37871H2.16283V2.37871Z"/>
</svg>
