<svg width="21" height="22" viewBox="0 0 21 22" fill="none" xmlns="http://www.w3.org/2000/svg">
<path d="M19.2386 0.781845C19.7392 1.28245 20.0204 1.96142 20.0204 2.66939L20.0217 20.6651C20.0218 20.8886 19.9657 21.1085 19.8586 21.3047C19.7516 21.5008 19.597 21.667 19.409 21.7879C19.221 21.9088 19.0057 21.9805 18.7828 21.9966C18.5599 22.0126 18.3365 21.9724 18.1332 21.8796L10.5654 18.4401L10.1118 13.65L10.3373 16.0458L10.5629 18.4415C10.2105 18.2814 9.81011 18.2814 9.45776 18.4415L10.1118 13.65L10.1116 13.6486L13.3403 14.9619C13.3824 14.9791 13.4281 14.9852 13.4732 14.9798C13.5184 14.9743 13.5613 14.9574 13.5981 14.9306C13.6349 14.9039 13.6642 14.8682 13.6833 14.827C13.7024 14.7857 13.7107 14.7403 13.7073 14.695L13.4551 11.2208C13.4499 11.1516 13.472 11.0831 13.5164 11.0299L15.7641 8.36453C15.7933 8.32974 15.8132 8.28806 15.8218 8.24345C15.8304 8.19884 15.8275 8.15277 15.8133 8.1096C15.7991 8.06643 15.7742 8.0276 15.7408 7.99676C15.7074 7.96593 15.6667 7.94413 15.6226 7.93342L12.2378 7.0979C12.1713 7.08081 12.1139 7.03874 12.0776 6.98045L10.2371 4.0201C10.2131 3.98176 10.1797 3.95016 10.1402 3.92825C10.1006 3.90634 10.0561 3.89485 10.0109 3.89485C9.96564 3.89485 9.92115 3.90634 9.88158 3.92825C9.84201 3.95016 9.80865 3.98176 9.78464 4.0201L7.94277 6.98045C7.90616 7.03902 7.84827 7.08112 7.78127 7.0979L4.39782 7.93342C4.35366 7.94413 4.31297 7.96593 4.2796 7.99676C4.24623 8.0276 4.22128 8.06643 4.20711 8.1096C4.19294 8.15277 4.19003 8.19884 4.19864 8.24345C4.20726 8.28806 4.22712 8.32974 4.25634 8.36453L6.50396 11.0299C6.54845 11.0831 6.57047 11.1516 6.56536 11.2208L6.31444 14.6963C6.31118 14.7415 6.31946 14.7867 6.3385 14.8278C6.35755 14.8689 6.38673 14.9045 6.4233 14.9311C6.45988 14.9578 6.50264 14.9748 6.54757 14.9804C6.5925 14.986 6.63812 14.9801 6.68014 14.9633L9.9101 13.6499C9.97467 13.6234 10.0472 13.6235 10.1118 13.65L9.45776 18.4415L1.88726 21.8796C1.68398 21.9721 1.46075 22.0121 1.23802 21.9959C1.01529 21.9797 0.800177 21.9079 0.612387 21.7871C0.424599 21.6662 0.270135 21.5002 0.163145 21.3041C0.0561575 21.1081 6.23703e-05 20.8884 0 20.6651V2.66939C0 1.96142 0.281238 1.28245 0.781845 0.781845C1.28245 0.281238 1.96142 0 2.66939 0H17.351C18.059 0 18.738 0.281238 19.2386 0.781845Z" fill="#0F47AF"/>
</svg>
