<svg width="28" height="27" viewBox="0 0 28 27" fill="none" xmlns="http://www.w3.org/2000/svg">
<path d="M9.625 17.5H12.25V20.125C12.25 20.6063 12.6438 21 13.125 21H14.875C15.3582 21 15.75 20.6082 15.75 20.125V17.5H18.375C18.8582 17.5 19.25 17.1082 19.25 16.625V14.875C19.25 14.3938 18.8563 14 18.375 14H15.75V11.375C15.75 10.8938 15.3562 10.5 14.875 10.5H13.125C12.6438 10.5 12.25 10.8938 12.25 11.375V14H9.625C9.14375 14 8.75 14.3938 8.75 14.875V16.625C8.75 17.1063 9.14375 17.5 9.625 17.5ZM24.5 5.25H21V3.5C21 1.5668 19.4332 0 17.5 0H10.5C8.56953 0 7 1.5668 7 3.5V5.25H3.5C1.5668 5.25 0 6.81953 0 8.75V22.75C0 24.6832 1.5668 26.25 3.5 26.25H24.5C26.4332 26.25 28 24.6832 28 22.75V8.75C28 6.81953 26.4305 5.25 24.5 5.25ZM9.625 3.5C9.625 3.01667 10.0168 2.625 10.5 2.625H17.5C17.9832 2.625 18.375 3.01667 18.375 3.5V5.25H9.625V3.5ZM4.375 23.625H3.5C3.0187 23.625 2.625 23.2312 2.625 22.75V8.75C2.625 8.26869 3.0187 7.875 3.5 7.875H4.375V23.625ZM21 23.625H7V7.875H21V23.625ZM25.375 22.75C25.375 23.2312 24.9813 23.625 24.5 23.625H23.625V7.875H24.5C24.9813 7.875 25.375 8.26869 25.375 8.75V22.75Z" fill="white"/>
</svg>
