<svg width="32" height="32" viewBox="0 0 32 32" fill="none" xmlns="http://www.w3.org/2000/svg">
<path d="M11.625 20.5H14.25V23.125C14.25 23.6063 14.6438 24 15.125 24H16.875C17.3582 24 17.75 23.6082 17.75 23.125V20.5H20.375C20.8582 20.5 21.25 20.1082 21.25 19.625V17.875C21.25 17.3938 20.8563 17 20.375 17H17.75V14.375C17.75 13.8938 17.3562 13.5 16.875 13.5H15.125C14.6438 13.5 14.25 13.8938 14.25 14.375V17H11.625C11.1438 17 10.75 17.3938 10.75 17.875V19.625C10.75 20.1063 11.1438 20.5 11.625 20.5ZM26.5 8.25H23V6.5C23 4.5668 21.4332 3 19.5 3H12.5C10.5695 3 9 4.5668 9 6.5V8.25H5.5C3.5668 8.25 2 9.81953 2 11.75V25.75C2 27.6832 3.5668 29.25 5.5 29.25H26.5C28.4332 29.25 30 27.6832 30 25.75V11.75C30 9.81953 28.4305 8.25 26.5 8.25ZM11.625 6.5C11.625 6.01667 12.0168 5.625 12.5 5.625H19.5C19.9832 5.625 20.375 6.01667 20.375 6.5V8.25H11.625V6.5ZM6.375 26.625H5.5C5.0187 26.625 4.625 26.2312 4.625 25.75V11.75C4.625 11.2687 5.0187 10.875 5.5 10.875H6.375V26.625ZM23 26.625H9V10.875H23V26.625ZM27.375 25.75C27.375 26.2312 26.9813 26.625 26.5 26.625H25.625V10.875H26.5C26.9813 10.875 27.375 11.2687 27.375 11.75V25.75Z" fill="white"/>
</svg>
