<svg width="21" height="20" viewBox="0 0 21 20" fill="none" xmlns="http://www.w3.org/2000/svg">
<path d="M18.6962 5.71485C18.7089 5.8925 18.7089 6.0702 18.7089 6.24785C18.7089 11.6666 14.5845 17.9103 7.04639 17.9103C4.72404 17.9103 2.56669 17.2377 0.751953 16.0702C1.08192 16.1083 1.39914 16.121 1.7418 16.121C3.65802 16.121 5.42201 15.4738 6.83065 14.3697C5.02861 14.3316 3.51845 13.1514 2.99813 11.5271C3.25196 11.5651 3.50575 11.5905 3.77228 11.5905C4.14029 11.5905 4.50833 11.5397 4.85095 11.4509C2.97278 11.0702 1.5641 9.42045 1.5641 7.42805V7.37731C2.10977 7.68188 2.74434 7.87224 3.41689 7.89759C2.31282 7.16153 1.5895 5.9052 1.5895 4.48386C1.5895 3.72245 1.7925 3.02448 2.14786 2.41534C4.16564 4.90265 7.19866 6.527 10.5996 6.70469C10.5362 6.40012 10.4981 6.08289 10.4981 5.76563C10.4981 3.50671 12.3256 1.66663 14.5971 1.66663C15.7773 1.66663 16.8433 2.16155 17.5921 2.96105C18.5184 2.78339 19.4068 2.44073 20.1936 1.9712C19.889 2.923 19.2418 3.72249 18.3916 4.23007C19.2164 4.14128 20.0159 3.91281 20.752 3.59558C20.1937 4.40773 19.4957 5.13105 18.6962 5.71485Z" fill="#6B6B6B"/>
</svg>
