<svg width="24" height="24" viewBox="0 0 24 24" fill="none" xmlns="http://www.w3.org/2000/svg">
<path d="M20.8844 7.48592C20.8984 7.68279 20.8984 7.87969 20.8984 8.07656C20.8984 14.0812 16.3282 21 7.97501 21C5.40156 21 3.01095 20.2547 1 18.961C1.36564 19.0031 1.71717 19.0172 2.09687 19.0172C4.22028 19.0172 6.17499 18.3 7.73594 17.0766C5.73906 17.0344 4.06561 15.7266 3.48904 13.9266C3.77032 13.9687 4.05155 13.9969 4.34689 13.9969C4.75469 13.9969 5.16253 13.9406 5.54219 13.8422C3.46095 13.4203 1.89996 11.5922 1.89996 9.38437V9.32814C2.50463 9.66564 3.20781 9.87657 3.95307 9.90467C2.72963 9.08902 1.9281 7.69685 1.9281 6.12184C1.9281 5.27811 2.15306 4.50467 2.54683 3.82967C4.78278 6.58591 8.14374 8.38588 11.9124 8.58279C11.8422 8.24529 11.7999 7.89376 11.7999 7.54219C11.7999 5.03904 13.825 3 16.3421 3C17.6499 3 18.8312 3.54844 19.6609 4.43437C20.6874 4.23751 21.6718 3.8578 22.5437 3.3375C22.2062 4.39221 21.489 5.27815 20.5468 5.84061C21.4609 5.74222 22.3468 5.48904 23.1624 5.13752C22.5438 6.03748 21.7703 6.83901 20.8844 7.48592Z" fill="#262626"/>
</svg>
