<svg width="32" height="32" viewBox="0 0 32 32" fill="none" xmlns="http://www.w3.org/2000/svg">
<path d="M6.90864 7.60049V10.0089C9.44359 11.0184 12.5873 11.6254 15.9434 11.6254C19.2996 11.6254 22.4995 11.0195 25.037 10.0094V7.60049L26.4095 6.38099C26.6947 6.12752 26.855 5.78327 26.855 5.42507C26.855 4.80438 26.3799 4.26353 25.7025 4.11315L16.434 2.05311C16.1155 1.9823 15.7821 1.9823 15.464 2.05311L6.19547 4.11315C5.56617 4.26408 5.09118 4.80493 5.09118 5.42507C5.09118 5.78354 5.25143 6.12779 5.53673 6.38099L6.90864 7.60049ZM13.9435 5.34085L15.8184 4.65728C15.8684 4.63978 15.9497 4.62556 15.9997 4.62556C16.0514 4.62556 16.1323 4.63955 16.1799 4.65685L18.0549 5.34043C18.2286 5.40343 18.343 5.55311 18.343 5.71886C18.3434 7.85752 16.5059 9.00046 15.9434 9.00046C15.506 9.00046 13.656 7.91767 13.656 5.67007C13.656 5.55304 13.7685 5.40374 13.9435 5.34085ZM15.9997 16.8753C13.4229 16.8753 11.3185 15.1521 11.0529 12.9576C10.0061 12.7793 8.99985 12.5441 8.02799 12.2543C8.02487 12.3418 7.99987 12.4184 7.99987 12.5004C7.99987 16.3662 11.5817 19.5002 15.9434 19.5002C20.3052 19.5002 23.887 16.3662 23.887 12.5004C23.887 12.417 23.8646 12.3396 23.8614 12.2569C22.9995 12.5441 21.9933 12.7793 20.9496 12.9597C20.6808 15.1527 18.5746 16.8753 15.9997 16.8753ZM21.9996 21.2502H19.9996L15.9997 24.7501L11.9998 21.2502H9.99982C5.5818 21.2502 2 24.3843 2 28.25C2 29.2163 2.89561 30 3.99996 30H27.9994C29.1038 30 29.9994 29.2163 29.9994 28.25C29.9994 24.3837 26.4182 21.2502 21.9996 21.2502ZM5.10056 27.3751C5.56492 25.379 7.5855 23.8751 9.99982 23.8751H10.7573L14.7572 27.3751H5.10056ZM24.2245 27.3751L24.9107 26.7916C25.0885 26.6406 24.9901 26.377 24.7452 26.3461L23.3808 26.172L22.7705 25.0914C22.6613 24.8988 22.3445 24.8963 22.2342 25.0914L21.6183 26.172L20.2527 26.3459C20.0079 26.3768 19.9095 26.6405 20.0872 26.7913L20.7746 27.3751H17.2409L21.2408 23.8751H21.9996C24.4139 23.8751 26.4345 25.3806 26.8988 27.3751H24.2245Z" fill="white"/>
</svg>
