<svg width="28" height="28" viewBox="0 0 28 28" fill="none" xmlns="http://www.w3.org/2000/svg">
<path d="M4.90864 5.60049V8.00888C7.44359 9.01839 10.5873 9.6254 13.9434 9.6254C17.2996 9.6254 20.4995 9.01948 23.037 8.00942V5.60049L24.4095 4.38099C24.6947 4.12752 24.855 3.78327 24.855 3.42507C24.855 2.80438 24.3799 2.26353 23.7025 2.11315L14.434 0.0531141C14.1155 -0.0177047 13.7821 -0.0177047 13.464 0.0531141L4.19547 2.11315C3.56617 2.26408 3.09118 2.80493 3.09118 3.42507C3.09118 3.78354 3.25143 4.12779 3.53673 4.38099L4.90864 5.60049ZM11.9435 3.34085L13.8184 2.65728C13.8684 2.63978 13.9497 2.62556 13.9997 2.62556C14.0514 2.62556 14.1323 2.63955 14.1799 2.65685L16.0549 3.34043C16.2286 3.40343 16.343 3.55311 16.343 3.71886C16.3434 5.85752 14.5059 7.00046 13.9434 7.00046C13.506 7.00046 11.656 5.91767 11.656 3.67007C11.656 3.55304 11.7685 3.40374 11.9435 3.34085ZM13.9997 14.8753C11.4229 14.8753 9.31854 13.1521 9.05293 10.9576C8.00607 10.7793 6.99985 10.5441 6.02799 10.2543C6.02487 10.3418 5.99987 10.4184 5.99987 10.5004C5.99987 14.3662 9.58166 17.5002 13.9434 17.5002C18.3052 17.5002 21.887 14.3662 21.887 10.5004C21.887 10.417 21.8646 10.3396 21.8614 10.2569C20.9995 10.5441 19.9933 10.7793 18.9496 10.9597C18.6808 13.1527 16.5746 14.8753 13.9997 14.8753ZM19.9996 19.2502H17.9996L13.9997 22.7501L9.99978 19.2502H7.99982C3.5818 19.2502 0 22.3843 0 26.25C0 27.2163 0.895605 28 1.99996 28H25.9994C27.1038 28 27.9994 27.2163 27.9994 26.25C27.9994 22.3837 24.4182 19.2502 19.9996 19.2502ZM3.10056 25.3751C3.56492 23.379 5.5855 21.8751 7.99982 21.8751H8.75731L12.7572 25.3751H3.10056ZM22.2245 25.3751L22.9107 24.7916C23.0885 24.6406 22.9901 24.377 22.7452 24.3461L21.3808 24.172L20.7705 23.0914C20.6613 22.8988 20.3445 22.8963 20.2342 23.0914L19.6183 24.172L18.2527 24.3459C18.0079 24.3768 17.9095 24.6405 18.0872 24.7913L18.7746 25.3751H15.2409L19.2408 21.8751H19.9996C22.4139 21.8751 24.4345 23.3806 24.8988 25.3751H22.2245Z" fill="white"/>
</svg>
