<svg width="24" height="24" viewBox="0 0 24 24" fill="none" xmlns="http://www.w3.org/2000/svg">
<path d="M7.46508 24C7.46508 22.6144 7.46508 21.2297 7.46508 19.845C7.46508 19.397 7.58167 19.0135 7.93916 18.7215C7.99505 18.6762 8.07406 18.6049 8.07117 18.5481C8.05286 18.0306 8.18391 17.5228 7.7397 17.0458C6.59593 15.8192 5.65644 14.4442 5.18236 12.8061C5.08945 12.5135 5.03534 12.2099 5.02144 11.9032C5.0012 10.7874 4.98868 9.67157 5.01469 8.55671C5.04264 7.40041 6.02838 6.6228 7.15866 6.81552C7.24634 6.83094 7.33596 6.83286 7.46797 6.84539V5.03386C7.46797 4.43162 7.4882 3.82842 7.46797 3.22618C7.41594 1.92728 8.50767 0.987787 9.79694 1.29902C9.84608 1.31155 9.8933 1.31541 9.98484 1.32986C10.2913 0.528161 10.8521 0.00878922 11.7511 0.000117005C12.6501 -0.00855521 13.2398 0.465525 13.5135 1.19785C14.0695 1.2759 14.5782 1.2942 15.0552 1.43007C15.5803 1.58424 15.8261 2.06603 16.0188 2.51795C16.4138 2.51795 16.7896 2.45725 17.1433 2.52951C18.0317 2.71356 18.5482 3.41601 18.552 4.38151C18.5578 6.38191 18.5048 8.38422 18.5703 10.3817C18.6156 11.7548 18.4248 13.0451 17.8554 14.2958C17.5374 14.9925 17.3273 15.7412 17.0267 16.4446C16.7606 17.0285 16.6529 17.6723 16.7145 18.311C16.7335 18.4781 16.8035 18.6352 16.9149 18.761C17.0508 18.897 17.1573 19.0594 17.2277 19.2383C17.2982 19.4172 17.3311 19.6086 17.3244 19.8007C17.3244 21.1989 17.3244 22.5951 17.3244 23.9942H16.0939V19.7121H8.69557V24H7.46508ZM7.46508 11.0485V9.01633C7.46508 8.88818 7.47086 8.76002 7.46508 8.6309C7.43906 8.25607 7.20298 8.00939 6.86958 7.99976C6.52077 7.98916 6.24808 8.24451 6.2423 8.63572C6.22977 9.55883 6.25193 10.4829 6.23169 11.406C6.22904 12.074 6.38073 12.7335 6.67494 13.3332C7.27333 14.6302 8.15307 15.7257 9.10991 16.7693C9.22435 16.9117 9.2917 17.0861 9.30262 17.2684C9.33153 17.6539 9.3113 18.0509 9.3113 18.4315H15.4666C15.4666 18.2436 15.4782 18.0778 15.4666 17.915C15.4204 17.3667 15.5466 16.8551 15.748 16.3482C16.2549 15.0628 16.727 13.7629 17.2088 12.4669C17.266 12.3257 17.2986 12.1758 17.3052 12.0237C17.3122 9.48367 17.3122 6.94432 17.3052 4.4056C17.3052 3.95176 17.0546 3.68099 16.6779 3.69063C16.3011 3.70026 16.0795 3.96814 16.0776 4.43355C16.0727 5.47229 16.0776 6.51103 16.0776 7.54977V7.9564H14.8461V3.813C14.8461 3.56922 14.8557 3.32543 14.8461 3.08261C14.8249 2.70681 14.584 2.46303 14.2477 2.45532C13.9114 2.44761 13.6474 2.70007 13.6214 3.09417C13.6146 3.19728 13.6214 3.29941 13.6214 3.40252V7.96603H12.3899V7.53338C12.3899 5.72571 12.3899 3.91739 12.3899 2.10843C12.3981 1.96777 12.3887 1.82665 12.362 1.68831C12.3366 1.55385 12.2633 1.43313 12.1558 1.34847C12.0483 1.2638 11.9138 1.22091 11.7771 1.22772C11.6403 1.21988 11.5053 1.26195 11.3972 1.34614C11.2891 1.43032 11.2152 1.55088 11.1893 1.68542C11.1625 1.82375 11.1532 1.96488 11.1614 2.10554C11.1614 3.92671 11.1614 5.74755 11.1614 7.56807V7.96218H9.92703V3.40541C9.92703 3.31579 9.92703 3.22618 9.92703 3.13657C9.90872 2.71067 9.66782 2.44857 9.30262 2.45532C8.93743 2.46206 8.71291 2.72416 8.6975 3.15584C8.6975 3.25798 8.6975 3.36108 8.6975 3.46322V11.0466L7.46508 11.0485Z" fill="#0F47AF"/>
<path d="M11.1333 22.1394H9.95874V20.9436H11.1333V22.1394Z" fill="#0F47AF"/>
</svg>
