<svg width="19" height="32" viewBox="0 0 19 32" fill="none" xmlns="http://www.w3.org/2000/svg">
    <path d="M3.95352 32C3.95352 30.1525 3.95352 28.3063 3.95352 26.4601C3.95352 25.8626 4.10898 25.3513 4.58563 24.962C4.66015 24.9016 4.7655 24.8066 4.76164 24.7308C4.73723 24.0408 4.91196 23.3638 4.31968 22.7278C2.79465 21.0923 1.542 19.2589 0.909896 17.0748C0.786011 16.6846 0.71387 16.2799 0.695333 15.871C0.668353 14.3832 0.65165 12.8954 0.686338 11.4089C0.723597 9.86721 2.03792 8.8304 3.54496 9.08736C3.66187 9.10791 3.78136 9.11048 3.95737 9.12718V6.71181C3.95737 5.90883 3.98435 5.10456 3.95737 4.30158C3.888 2.5697 5.34364 1.31705 7.06267 1.73203C7.12819 1.74873 7.19115 1.75387 7.3132 1.77315C7.72176 0.704214 8.4695 0.011719 9.66819 0.000156006C10.8669 -0.011407 11.6532 0.6207 12.018 1.59713C12.7594 1.70119 13.4377 1.72561 14.0737 1.90676C14.7739 2.11232 15.1015 2.75471 15.3584 3.35727C15.8852 3.35727 16.3863 3.27633 16.8578 3.37269C18.0423 3.61808 18.731 4.55468 18.7361 5.84202C18.7438 8.50921 18.6732 11.179 18.7605 13.8423C18.8209 15.6731 18.5665 17.3934 17.8072 19.0611C17.3833 19.9899 17.1032 20.9882 16.7023 21.9261C16.3475 22.7047 16.204 23.563 16.2861 24.4147C16.3114 24.6374 16.4047 24.8469 16.5533 25.0147C16.7345 25.196 16.8765 25.4126 16.9704 25.6511C17.0643 25.8896 17.1082 26.1448 17.0993 26.401C17.0993 28.2652 17.0993 30.1268 17.0993 31.9923H15.4587V26.2828H5.59417V32H3.95352ZM3.95352 14.7314V12.0218C3.95352 11.8509 3.96122 11.68 3.95352 11.5079C3.91883 11.0081 3.60406 10.6792 3.15953 10.6663C2.69444 10.6522 2.33085 10.9927 2.32315 11.5143C2.30644 12.7451 2.33599 13.9772 2.30901 15.208C2.30546 16.0986 2.50773 16.978 2.90001 17.7776C3.69785 19.5069 4.87084 20.9677 6.14662 22.3591C6.29922 22.5489 6.38901 22.7815 6.40358 23.0246C6.44212 23.5385 6.41514 24.0678 6.41514 24.5753H14.6223C14.6223 24.3248 14.6377 24.1038 14.6223 23.8867C14.5606 23.1556 14.7289 22.4734 14.9974 21.7976C15.6732 20.0837 16.3028 18.3506 16.9451 16.6226C17.0214 16.4343 17.0648 16.2344 17.0736 16.0316C17.083 12.6449 17.083 9.25909 17.0736 5.87414C17.0736 5.26901 16.7396 4.90799 16.2372 4.92084C15.7349 4.93369 15.4394 5.29085 15.4368 5.9114C15.4304 7.29638 15.4368 8.68137 15.4368 10.0664V10.6085H13.7949V5.084C13.7949 4.75896 13.8077 4.43391 13.7949 4.11015C13.7666 3.60909 13.4454 3.28404 12.997 3.27376C12.5486 3.26348 12.1966 3.60009 12.1619 4.12556C12.1529 4.26303 12.1619 4.39922 12.1619 4.53669V10.6214H10.52V10.0445C10.52 7.63428 10.52 5.22319 10.52 2.81124C10.5309 2.6237 10.5184 2.43553 10.4827 2.25108C10.4488 2.0718 10.3512 1.91084 10.2078 1.79796C10.0645 1.68507 9.88511 1.62789 9.70288 1.63696C9.52049 1.6265 9.34051 1.68261 9.19637 1.79485C9.05223 1.90709 8.95372 2.06784 8.91917 2.24723C8.88347 2.43167 8.87096 2.61984 8.88191 2.80739C8.88191 5.23561 8.88191 7.6634 8.88191 10.0908V10.6162H7.23612V4.54054C7.23612 4.42106 7.23612 4.30158 7.23612 4.18209C7.21171 3.61422 6.89051 3.26477 6.40358 3.27376C5.91665 3.28275 5.6173 3.63221 5.59675 4.20779C5.59675 4.34397 5.59675 4.48144 5.59675 4.61763V14.7288L3.95352 14.7314Z" fill="#0F47AF"/>
    <path d="M8.8447 29.5192H7.27856V27.9248H8.8447V29.5192Z" fill="#0F47AF"/>
</svg>
