<svg width="40" height="40" viewBox="0 0 40 40" fill="none" xmlns="http://www.w3.org/2000/svg">
<path d="M12.4418 40C12.4418 37.6906 12.4418 35.3828 12.4418 33.0751C12.4418 32.3283 12.6362 31.6891 13.232 31.2025C13.3251 31.127 13.4568 31.0082 13.452 30.9134C13.4215 30.051 13.6399 29.2047 12.8995 28.4097C10.9933 26.3653 9.42744 24.0736 8.63731 21.3435C8.48245 20.8558 8.39228 20.3499 8.3691 19.8387C8.33538 17.979 8.3145 16.1193 8.35786 14.2612C8.40444 12.334 10.0473 11.038 11.9311 11.3592C12.0773 11.3849 12.2266 11.3881 12.4467 11.409V8.38977C12.4467 7.38604 12.4804 6.3807 12.4467 5.37697C12.3599 3.21213 14.1795 1.64631 16.3283 2.16504C16.4102 2.18592 16.4889 2.19234 16.6414 2.21643C17.1521 0.880267 18.0868 0.0146487 19.5852 0.000195008C21.0835 -0.0142587 22.0664 0.775876 22.5225 1.99641C23.4491 2.12649 24.2971 2.15701 25.092 2.38345C25.9673 2.6404 26.3768 3.44339 26.698 4.19659C27.3564 4.19659 27.9828 4.09541 28.5722 4.21586C30.0529 4.5226 30.9137 5.69335 30.9201 7.30252C30.9297 10.6365 30.8414 13.9737 30.9506 17.3029C31.0261 19.5914 30.7081 21.7418 29.759 23.8263C29.229 24.9874 28.8789 26.2353 28.3778 27.4076C27.9344 28.3809 27.7549 29.4538 27.8575 30.5184C27.8891 30.7968 28.0058 31.0586 28.1916 31.2684C28.418 31.495 28.5955 31.7657 28.7129 32.0638C28.8303 32.3619 28.8852 32.681 28.8741 33.0012C28.8741 35.3315 28.8741 37.6585 28.8741 39.9904H26.8233V32.8534H14.4927V40H12.4418ZM12.4418 18.4142V15.0272C12.4418 14.8136 12.4515 14.6 12.4418 14.3848C12.3985 13.7601 12.005 13.349 11.4493 13.3329C10.868 13.3153 10.4135 13.7408 10.4039 14.3929C10.383 15.9314 10.4199 17.4715 10.3862 19.01C10.3818 20.1233 10.6346 21.2225 11.1249 22.222C12.1223 24.3836 13.5885 26.2096 15.1832 27.9488C15.374 28.1861 15.4862 28.4768 15.5044 28.7807C15.5526 29.4231 15.5189 30.0848 15.5189 30.7191H25.7778C25.7778 30.406 25.7971 30.1297 25.7778 29.8583C25.7007 28.9445 25.9111 28.0918 26.2467 27.247C27.0915 25.1047 27.8784 22.9382 28.6814 20.7782C28.7767 20.5429 28.831 20.2931 28.842 20.0394C28.8537 15.8061 28.8537 11.5739 28.842 7.34267C28.842 6.58626 28.4244 6.13499 27.7965 6.15105C27.1685 6.16711 26.7992 6.61357 26.796 7.38925C26.7879 9.12048 26.796 10.8517 26.796 12.5829V13.2607H24.7435V6.355C24.7435 5.94869 24.7596 5.54239 24.7435 5.13768C24.7082 4.51136 24.3067 4.10505 23.7462 4.0922C23.1857 4.07935 22.7457 4.50011 22.7024 5.15695C22.6911 5.32879 22.7024 5.49902 22.7024 5.67086V13.2767H20.6499V12.5556C20.6499 9.54285 20.6499 6.52898 20.6499 3.51405C20.6636 3.27962 20.6479 3.04441 20.6034 2.81385C20.561 2.58975 20.4389 2.38855 20.2597 2.24744C20.0805 2.10634 19.8563 2.03486 19.6285 2.0462C19.4005 2.03313 19.1756 2.10326 18.9954 2.24356C18.8152 2.38386 18.6921 2.5848 18.6489 2.80903C18.6043 3.03958 18.5886 3.2748 18.6023 3.50923C18.6023 6.54451 18.6023 9.57925 18.6023 12.6135V13.2703H16.5451V5.67568C16.5451 5.52632 16.5451 5.37697 16.5451 5.22762C16.5146 4.51778 16.1131 4.08096 15.5044 4.0922C14.8958 4.10344 14.5216 4.54026 14.4959 5.25973C14.4959 5.42997 14.4959 5.60181 14.4959 5.77204V18.411L12.4418 18.4142Z" fill="#0F47AF"/>
<path d="M18.5557 36.8988H16.598V34.9058H18.5557V36.8988Z" fill="#0F47AF"/>
</svg>
