<svg width="21" height="20" viewBox="0 0 21 20" fill="none" xmlns="http://www.w3.org/2000/svg">
<path d="M10.752 0.3125C5.22776 0.3125 0.751953 4.64844 0.751953 10C0.751953 15.3516 5.22776 19.6875 10.752 19.6875C16.2761 19.6875 20.752 15.3516 20.752 10C20.752 4.64844 16.2761 0.3125 10.752 0.3125ZM17.9818 6.5625H15.2721C15.002 5.13672 14.5665 3.875 14.014 2.86328C15.7439 3.60547 17.1471 4.92188 17.9818 6.5625ZM10.752 2.1875C11.502 2.1875 12.7116 3.79688 13.3003 6.5625H8.20357C8.79228 3.79688 10.002 2.1875 10.752 2.1875ZM2.68744 10C2.68744 9.46484 2.74389 8.94141 2.84873 8.4375H5.98179C5.94147 8.94922 5.91324 9.46484 5.91324 10C5.91324 10.5352 5.94147 11.0508 5.98179 11.5625H2.84873C2.74389 11.0586 2.68744 10.5352 2.68744 10ZM3.52211 13.4375H6.23179C6.50195 14.8633 6.93744 16.125 7.48986 17.1367C5.76002 16.3945 4.35679 15.0781 3.52211 13.4375ZM6.23179 6.5625H3.52211C4.35679 4.92188 5.76002 3.60547 7.48986 2.86328C6.93744 3.875 6.50195 5.13672 6.23179 6.5625ZM10.752 17.8125C10.002 17.8125 8.79228 16.2031 8.20357 13.4375H13.3044C12.7116 16.2031 11.502 17.8125 10.752 17.8125ZM13.5786 11.5625H7.92534C7.88098 11.0625 7.84873 10.5469 7.84873 10C7.84873 9.45312 7.88098 8.9375 7.92534 8.4375H13.5826C13.627 8.9375 13.6592 9.45312 13.6592 10C13.6592 10.5469 13.6229 11.0625 13.5786 11.5625ZM14.014 17.1367C14.5665 16.125 14.9979 14.8633 15.2721 13.4375H17.9818C17.1471 15.0781 15.7439 16.3945 14.014 17.1367ZM15.5221 11.5625C15.5624 11.0508 15.5907 10.5352 15.5907 10C15.5907 9.46484 15.5624 8.94922 15.5221 8.4375H18.6552C18.76 8.94141 18.8165 9.46484 18.8165 10C18.8165 10.5352 18.76 11.0586 18.6552 11.5625H15.5221Z" fill="#6B6B6B"/>
</svg>
