<svg width="24" height="24" viewBox="0 0 24 24" fill="none" xmlns="http://www.w3.org/2000/svg">
<path d="M12.3548 1C6.08221 1 1 5.92339 1 12C1 18.0766 6.08221 23 12.3548 23C18.6275 23 23.7097 18.0766 23.7097 12C23.7097 5.92339 18.6275 1 12.3548 1ZM20.5642 8.09677H17.4874C17.1806 6.47782 16.6862 5.04516 16.0589 3.89637C18.0231 4.73911 19.6164 6.23387 20.5642 8.09677ZM12.3548 3.12903C13.2065 3.12903 14.58 4.95645 15.2485 8.09677H9.46119C10.1297 4.95645 11.5032 3.12903 12.3548 3.12903ZM3.19771 12C3.19771 11.3923 3.26181 10.798 3.38085 10.2258H6.9384C6.89261 10.8069 6.86056 11.3923 6.86056 12C6.86056 12.6077 6.89261 13.1931 6.9384 13.7742H3.38085C3.26181 13.202 3.19771 12.6077 3.19771 12ZM4.14547 15.9032H7.22227C7.52903 17.5222 8.02352 18.9548 8.65078 20.1036C6.68658 19.2609 5.09324 17.7661 4.14547 15.9032ZM7.22227 8.09677H4.14547C5.09324 6.23387 6.68658 4.73911 8.65078 3.89637C8.02352 5.04516 7.52903 6.47782 7.22227 8.09677ZM12.3548 20.871C11.5032 20.871 10.1297 19.0435 9.46119 15.9032H15.2531C14.58 19.0435 13.2065 20.871 12.3548 20.871ZM15.5644 13.7742H9.14526C9.0949 13.2065 9.05827 12.621 9.05827 12C9.05827 11.379 9.0949 10.7935 9.14526 10.2258H15.569C15.6194 10.7935 15.656 11.379 15.656 12C15.656 12.621 15.6148 13.2065 15.5644 13.7742ZM16.0589 20.1036C16.6862 18.9548 17.1761 17.5222 17.4874 15.9032H20.5642C19.6164 17.7661 18.0231 19.2609 16.0589 20.1036ZM17.7713 13.7742C17.8171 13.1931 17.8491 12.6077 17.8491 12C17.8491 11.3923 17.8171 10.8069 17.7713 10.2258H21.3288C21.4479 10.798 21.512 11.3923 21.512 12C21.512 12.6077 21.4479 13.202 21.3288 13.7742H17.7713Z" fill="#262626"/>
</svg>
