<?xml version="1.0" encoding="UTF-8"?>
<svg width="141px" height="55px" viewBox="0 0 141 55" version="1.1" xmlns="http://www.w3.org/2000/svg" xmlns:xlink="http://www.w3.org/1999/xlink">
    <title>UNWomen_WomenCount_logo_lockup_NoTag_FullColour_CMYK</title>
    <defs>
        <rect id="path-1" x="0" y="0" width="140.8" height="55"></rect>
    </defs>
    <g id="Navigation-&amp;-Footer" stroke="none" stroke-width="1" fill="none" fill-rule="evenodd">
        <g id="Navigation-/-Extra-Large-(Desktop)-/-News-and-Stories" transform="translate(-50.000000, -62.000000)">
            <g id="UNWomen_WomenCount_logo_lockup_NoTag_FullColour_CMYK" transform="translate(50.000000, 62.000000)">
                <mask id="mask-2" fill="white">
                    <use xlink:href="#path-1"></use>
                </mask>
                <g id="Mask"></g>
                <g mask="url(#mask-2)">
                    <path d="M72.6206567,26.2307692 C67.9318978,26.2307692 65.0644719,23.6058652 65.0644719,18.4574095 L65.0644719,8.46153846 L68.9051613,8.46153846 L68.9051613,18.357867 C68.9051613,21.2065907 70.3256326,22.6816287 72.6694102,22.6816287 C75.0131877,22.6816287 76.4348628,21.2572669 76.4348628,18.4827475 L76.4348628,8.46153846 L80.2743484,8.46153846 L80.2743484,18.3325289 C80.2743484,23.6306 77.3088137,26.2307692 72.6206567,26.2307692" id="Fill-29" fill="#0091C6"></path>
                    <polyline id="Fill-30" fill="#0091C6" points="95.4827493 26.2307692 86.7316085 14.9348868 86.7316085 26.2307692 82.8093278 26.2307692 82.8093278 8.46153846 86.4736539 8.46153846 94.9406708 19.4020118 94.9406708 8.46153846 98.8641975 8.46153846 98.8641975 26.2307692 95.4827493 26.2307692"></polyline>
                    <polyline id="Fill-31" fill="#0091C6" points="20.9550002 46.5384615 17.5426062 46.5384615 13.5198903 35.0256261 9.49655973 46.5384615 6.08478036 46.5384615 0 28.8208061 4.20095695 28.8208061 7.89300499 40.731682 11.8905213 28.7692308 15.2512869 28.7692308 19.2481885 40.731682 22.9402366 28.8208061 27.0397805 28.8208061 20.9550002 46.5384615"></polyline>
                    <path d="M40.7615907,37.6526611 C40.7615907,34.7071213 38.5630897,32.2533937 35.464681,32.2533937 C32.3656691,32.2533937 30.21723,34.6579401 30.21723,37.6034799 L30.21723,37.6526611 C30.21723,40.5976083 32.4163342,43.052521 35.5147429,43.052521 C38.6131516,43.052521 40.7615907,40.6467895 40.7615907,37.7012497 L40.7615907,37.6526611 Z M35.464681,46.5384615 C30.0676475,46.5384615 26.1947874,42.5861883 26.1947874,37.7012497 L26.1947874,37.6526611 C26.1947874,32.7677225 30.1177094,28.7692308 35.5147429,28.7692308 C40.9117764,28.7692308 44.7846365,32.7191338 44.7846365,37.6034799 L44.7846365,37.6526611 C44.7846365,42.5370071 40.8611113,46.5384615 35.464681,46.5384615 L35.464681,46.5384615 Z" id="Fill-32" fill="#0091C6"></path>
                    <polyline id="Fill-33" fill="#0091C6" points="60.3410424 46.5384615 60.3410424 34.9354168 55.3470508 42.5265488 55.2460817 42.5265488 50.3022686 35.0120268 50.3022686 46.5384615 46.4746228 46.5384615 46.4746228 28.7692308 50.6828914 28.7692308 55.3470508 36.2806884 60.011822 28.7692308 64.2194787 28.7692308 64.2194787 46.5384615 60.3410424 46.5384615"></polyline>
                    <polyline id="Fill-34" fill="#0091C6" points="66.7544582 46.5384615 66.7544582 28.7692308 80.1470044 28.7692308 80.1470044 32.2448734 70.6353885 32.2448734 70.6353885 35.8492209 79.0033575 35.8492209 79.0033575 39.3273151 70.6353885 39.3273151 70.6353885 43.0603674 80.2743484 43.0603674 80.2743484 46.5384615 66.7544582 46.5384615"></polyline>
                    <polyline id="Fill-35" fill="#0091C6" points="95.4838642 46.5384615 86.7323838 35.2400181 86.7323838 46.5384615 82.8093278 46.5384615 82.8093278 28.7692308 86.4744192 28.7692308 94.9411416 39.7079136 94.9411416 28.7692308 98.8641975 28.7692308 98.8641975 46.5384615 95.4838642 46.5384615"></polyline>
                    <path d="M55.9629469,24.6815416 C54.7651612,24.1402305 53.3797779,23.5352356 51.9795842,24.0489914 C51.2723908,23.8211998 50.347362,23.8211998 49.6414027,24.0489914 C48.4084424,24.6056111 46.7280866,25.4463579 45.4260114,24.5149843 C45.670999,24.8070719 45.9363508,24.9460738 46.216513,25.1481469 C47.0576165,25.6888457 48.2683613,25.6343472 49.1366172,25.1971344 C49.9345239,24.8634075 50.544216,23.8689625 51.5587239,24.1818698 C50.6972561,24.6117345 49.9067545,25.1267149 49.192773,25.8627511 L49.6265924,26.2307692 C50.2554145,25.4047186 51.1033061,24.7164452 52.0141416,24.3141359 C52.8965907,24.7372648 53.7012855,25.4671776 54.3665164,26.1977027 L54.8003357,25.8284599 C54.1017816,25.1548827 53.2884475,24.6117345 52.4485781,24.1818698 C52.6651792,24.1255342 52.9317653,24.1402305 53.1557716,24.1610501 C54.06599,24.557236 54.7651612,25.3483831 55.7950965,25.4671776 C56.8873586,25.641083 57.860521,25.2026454 58.5325399,24.4114984 L58.0154124,24.6815416 C57.4044861,24.9534219 56.5868323,24.8830024 55.9629469,24.6815416 Z M45.8814292,21.4312253 C46.4207722,22.0558151 46.4411364,22.8824781 47.1902925,23.3956215 C47.4778598,23.6460697 47.8629285,23.6950572 48.1844361,23.8273232 C47.8271368,23.8616144 47.4976069,23.7164892 47.1409247,23.6950572 C45.9363508,23.5499319 44.5577556,23.7024053 43.6759236,22.7300047 C44.0745684,23.4244016 44.7811448,24.0300087 45.5241299,24.2651484 C46.9237064,24.7923757 48.1924584,24.0165372 49.5278568,23.896518 C47.9746231,23.8273232 47.1335195,22.1464419 45.8814292,21.4312253 Z M58.0289885,21.346722 C57.2242937,21.8684382 56.5300593,22.7575601 55.7950965,23.3270391 C55.3890465,23.6332105 54.9058593,23.7232249 54.4294603,23.8616144 C55.4803769,23.939382 56.3554208,24.432318 57.4550881,24.3631233 C58.6306583,24.3141359 59.7081101,23.6332105 60.2622635,22.598351 C59.4495464,23.5566677 58.1480883,23.5003321 56.9496854,23.6117785 C56.5522748,23.6613783 56.1585668,23.7789481 55.7599219,23.7789481 C55.7741152,23.7654766 55.7876913,23.7373088 55.8086726,23.7440446 C57.1187701,23.6332105 57.4890284,22.2229847 58.0289885,21.346722 Z M52.0777027,20.5127109 L52.1468176,20.6315055 L52.1332414,21.5138916 C52.3936565,21.4171414 52.7491045,21.4232649 52.9885382,21.3816256 C52.8472229,21.2432361 52.6386441,21.2560953 52.581254,21.0491233 C52.4831356,20.9095092 52.6238337,20.7643839 52.6151944,20.6455894 C52.4485781,20.5684341 52.1968024,20.6670214 52.0777027,20.5127109 Z M47.8141778,20.2640997 L47.0360181,21.0625949 C48.3664798,22.2431921 49.9555052,22.8824781 51.7413847,22.9926998 L51.692634,22.9106459 C51.705593,22.5622227 51.6648646,22.1935923 51.7278085,21.8610901 L51.7136153,21.8825221 C50.2214741,21.8408828 48.8632431,21.2922235 47.8141778,20.2640997 Z M56.0826638,20.1942926 C55.9290066,20.4024892 55.7185764,20.5966019 55.493953,20.7282557 C54.7651612,20.9793163 54.6960463,21.7845472 53.9814477,22.0496917 C53.7012855,22.1599134 53.5414573,21.7992434 53.2884475,21.7435202 C52.9095498,21.8053669 52.5183101,21.9094652 52.1332414,21.8470062 L52.1332414,23.0141318 L52.1826092,22.980453 C53.9888528,22.9032977 55.620458,22.1935923 56.8873586,21.0148321 C56.5997913,20.7423395 56.2924769,20.4637235 56.0826638,20.1942926 Z M49.2063492,19.5752139 C49.2063492,19.6940084 49.3680286,19.6995195 49.3044676,19.8464818 C49.0662681,19.9928318 48.779935,19.8881212 48.5485235,20.0626389 C48.3374762,20.1740853 48.1634548,19.9303728 48.0431209,19.9444567 C49.0662681,20.8188824 50.2640538,21.4018329 51.6426491,21.4649042 L51.7278085,21.5138916 C51.6710356,21.1807771 51.692634,20.7919393 51.7136153,20.4441285 C50.7756275,20.4998517 49.9283529,20.111014 49.2063492,19.5752139 Z M49.0878665,19.4435602 L49.1711746,19.5476585 L49.0878665,19.4435602 Z M44.3831171,19.2145439 L44.585525,19.7282996 C44.7811448,20.8813414 44.8737094,22.1531777 45.930797,22.8824781 L45.9159866,22.8971743 C45.5734977,22.750212 45.3149339,22.4654725 45.0051511,22.2780956 C44.0122416,21.6394219 42.6398173,21.3546825 42.079493,20.1312213 C42.2325332,21.0264667 42.8502475,21.8267989 43.5907642,22.3828063 C44.4806184,23.1604818 45.7197497,23.0986351 46.8058409,23.4103177 C46.4059619,23.1053709 46.1819556,22.7575601 45.9999119,22.3276954 C45.601267,21.2352756 45.2501387,20.0963177 44.3831171,19.2145439 Z M55.0385353,19.1796404 L55.0385353,19.1931119 C54.5140026,19.5617424 55.2903109,19.5752139 55.3057384,19.8942446 C55.227367,20.0473303 54.947822,20.2010284 55.1230776,20.3816696 C55.1786163,20.4441285 55.0953082,20.4925036 55.0737098,20.5488392 L55.7950965,19.9444567 C55.7037661,20.0069157 55.5914544,19.9652764 55.5427037,19.880773 C55.550726,19.5690905 55.1724454,19.4300886 55.0385353,19.1796404 Z M59.5266835,19.0969741 L58.9385899,19.8605657 C58.1480883,20.945025 58.2375674,22.4256703 57.1397514,23.3490834 C57.7062467,23.1672175 58.330132,23.091287 58.9176086,22.9663691 C60.2406651,22.6326422 61.6353048,21.3399862 61.8235195,19.9928318 C61.58532,20.5549626 61.0885567,20.9725805 60.5843882,21.2989593 C59.7173666,21.7024933 58.8343004,22.1599134 58.0987205,22.7979748 L58.0154124,22.7979748 L58.0641631,22.7300047 C59.3316808,21.8953813 58.9885747,20.2836947 59.5266835,19.0969741 Z M49.877751,18.2139756 C49.6549789,18.4846312 49.38901,18.7424275 49.1236581,18.9634833 L49.1711746,18.9634833 C49.7882719,19.49316 50.5645802,19.8605657 51.292755,19.9787479 C51.026786,19.9444567 50.9224966,19.6872727 50.8027797,19.49316 C50.7336649,19.3315014 50.9786525,19.2978226 50.9360728,19.1318776 C51.026786,18.9849153 51.1668671,18.9016367 51.3421227,18.8814294 C51.2588146,18.8949009 51.172421,18.9077601 51.0903471,18.9285798 C50.6485054,18.7840668 50.2011099,18.5875048 49.877751,18.2139756 Z M53.4556808,18.0964057 C53.3797779,18.1368204 53.3162168,18.1368204 53.2754884,18.2280595 C53.184158,18.3462417 53.0712292,18.221936 52.9885382,18.1784597 C53.0150734,18.2139756 53.0786344,18.2972542 53.0014972,18.3462417 C52.9095498,18.4429918 52.8262416,18.3033776 52.7355283,18.2770469 C52.6861605,18.580769 52.5744659,18.1925436 52.4134036,18.262963 C52.3436716,18.0890576 52.2233376,18.2972542 52.1122601,18.2770469 C52.0283349,18.3462417 52.0215468,18.5477025 51.8598673,18.5268828 C51.8253099,18.6242453 51.692634,18.5875048 51.6772065,18.6591489 C51.7549608,18.748551 51.8598673,18.7062993 51.9437926,18.6922154 C52.0777027,18.5752579 52.244936,18.6511884 52.3992103,18.6303688 C52.3856342,18.8814294 52.6793725,18.6922154 52.7707029,18.8465258 C52.8756094,18.8397901 52.8756094,18.7344671 52.9169549,18.6591489 C53.1347902,18.6242453 53.3594136,18.4913669 53.4778963,18.3241973 C53.5056657,18.262963 53.5476283,18.1300846 53.4556808,18.0964057 Z M53.0576531,17.9292361 C53.1409612,17.8171774 53.323622,17.8386094 53.3594136,17.7136914 C53.203288,17.686136 53.0366718,17.7963577 53.0576531,17.9292361 Z M50.8873221,17.179116 L50.2146861,17.9292361 C50.5991377,18.221936 51.0477674,18.4491153 51.5463819,18.5268828 C51.5383597,18.3946167 51.5383597,18.262963 51.6074746,18.1582524 C51.6772065,18.1166131 51.7827302,18.1784597 51.8469083,18.1104896 C51.838886,18.046806 51.7981576,18.046806 51.762366,17.9910828 C51.7204034,17.8943326 51.762366,17.8049305 51.775325,17.7418592 C51.8037115,17.6934841 51.7204034,17.58265 51.8117337,17.5465218 C51.5945155,17.6512324 51.3982786,17.5061071 51.2088297,17.4424235 C51.1033061,17.3597572 50.9144743,17.3389375 50.8873221,17.179116 Z M55.3890465,17.1919752 C55.1860215,17.0401142 55.227367,17.3303647 55.0527285,17.3113821 C54.9904017,17.2966859 54.9762084,17.2195307 54.9688033,17.1564593 C54.9552271,17.3175055 54.8299564,17.434463 54.7373918,17.5599933 C54.415267,17.4699789 54.4998094,17.9225003 54.1776846,17.8245255 C54.2202643,17.9500558 54.3603454,17.8049305 54.4294603,17.8459575 C54.4862332,17.8171774 54.4708058,17.7614542 54.4998094,17.7277753 C54.5349839,17.5961216 54.6960463,17.5465218 54.8219341,17.5961216 C54.8916661,17.7069556 54.9126474,17.8459575 54.9058593,17.9776112 C54.8299564,18.0327221 54.8299564,18.1239612 54.8367445,18.2139756 C54.7373918,18.3731847 54.7799715,18.7142598 54.4862332,18.6793562 C54.1776846,18.5672974 53.8413666,18.4846312 53.5056657,18.4766707 L53.5056657,18.5477025 C53.7309062,18.6303688 53.9814477,18.6303688 54.1647256,18.796926 C54.3603454,18.7767187 54.605333,18.8257062 54.7522021,18.7142598 C54.7738005,18.5752579 54.8299564,18.4491153 54.9200526,18.3462417 C55.0453233,18.3584885 55.018171,18.5268828 55.0737098,18.6113861 C55.4445852,18.1441685 55.76671,17.7002199 55.893832,17.1301286 C55.7117884,17.1172694 55.5791124,17.2195307 55.3890465,17.1919752 Z M43.7110982,17.1301286 C43.7937892,17.5881611 43.6481542,17.9910828 43.5778052,18.4080883 C43.3383714,19.2065835 43.4580883,20.1459175 43.9283164,20.7974504 C43.7740421,20.7221322 43.6759236,20.5414911 43.5778052,20.3816696 C42.9964996,19.2770029 41.533362,18.6511884 41.406857,17.3248536 C41.400069,17.8049305 41.400069,18.3119504 41.546321,18.7424275 C41.9536052,20.2291962 43.6055745,20.9934001 44.718818,21.7435202 C43.9283164,20.3890177 44.3473254,18.5477025 43.7110982,17.1301286 Z M53.526647,17.1105336 C53.3736069,17.3248536 53.6735161,17.3113821 53.6951145,17.4914109 C53.7309062,17.4914109 53.7704004,17.5061071 53.793233,17.477327 C53.7704004,17.4007842 53.7796569,17.3175055 53.7093078,17.26117 C53.5895909,17.26117 53.5895909,17.1105336 53.526647,17.1105336 Z M60.1980854,16.9911267 C59.5334716,18.4166611 60.0166588,20.3051267 59.205793,21.6602416 L59.3378518,21.5487952 C60.9133011,20.6945768 62.8096409,19.2555709 62.4949213,17.1564593 C62.4683861,17.4424235 62.3758215,17.7002199 62.2437627,17.9439323 C61.6272826,18.8949009 60.5769831,19.6725764 60.0580043,20.6590609 C60.0456623,20.6945768 59.9969116,20.7153965 59.9753132,20.6811052 L60.0802198,20.5488392 C60.8219707,19.4851995 60.157974,18.1784597 60.1980854,16.9911267 Z M50.5374279,16.859473 C50.5158295,16.9568355 50.4393095,17.0315414 50.3831536,17.1105336 C50.4812721,17.0676696 50.5374279,16.921932 50.6485054,16.9286678 L50.5374279,16.859473 Z M49.3606235,16.5747336 L49.4235674,16.6788318 C49.5074926,17.0254179 49.7185399,17.3175055 49.8931784,17.6316374 L50.2146861,17.2966859 C50.207898,17.2562712 50.2288793,17.2066715 50.2011099,17.179116 C50.1369318,17.095225 50.1801286,16.941527 50.0968205,16.8943766 C50.0690511,16.9709194 50.1591473,17.0125587 50.1165676,17.0744054 C50.0122782,17.0315414 49.9005836,16.984391 49.8444277,16.859473 C49.865409,16.6990392 49.7469264,16.816609 49.6605327,16.7419032 C49.6549789,16.5686101 49.4377606,16.6788318 49.3606235,16.5747336 Z M46.3146315,16.1301726 L46.3504231,16.1785477 C46.3843634,16.6788318 46.5262958,17.1656445 46.5664071,17.6438843 C46.6299682,17.602245 46.5880055,17.4914109 46.6713137,17.4914109 C46.7009343,17.2562712 46.7348747,16.984391 46.889149,16.7749697 C47.1125382,16.7682339 47.1211776,16.4694106 47.3581429,16.4914549 C47.4136817,16.5324819 47.4914359,16.5882051 47.5118001,16.6573998 C47.3927004,16.5190103 47.3865294,16.2973422 47.4426852,16.1301726 C47.092174,16.1785477 46.6713137,16.1785477 46.3146315,16.1301726 Z M44.8373006,16.1430318 C44.9150549,17.9157646 45.5734977,19.4643798 46.7348747,20.7778554 C46.9946726,20.5065875 47.2810058,20.2010284 47.561785,19.9787479 C47.4204697,19.8881212 47.3309906,19.7282996 47.1902925,19.6113421 C47.0156539,19.5752139 46.89532,19.409269 46.8539745,19.2623067 C46.8613796,19.2837387 46.8329931,19.2978226 46.8181828,19.3100694 C46.6577375,19.387837 46.6089868,19.1931119 46.5034632,19.1318776 C46.4059619,19.0822779 46.4824819,18.8606097 46.3146315,18.9438884 C46.216513,18.7840668 46.0357035,18.796926 45.9653544,18.6113861 L45.8943882,18.7283436 C45.7685004,18.7216079 45.6790213,18.5672974 45.607438,18.4913669 C45.3494914,18.5672974 45.4531637,18.2139756 45.3062946,18.0964057 C45.2501387,17.8735129 45.3204878,17.6653163 45.4389705,17.4914109 C45.5167247,17.4222162 45.6629768,17.477327 45.6913632,17.5257021 C45.8258904,17.5746896 45.7401139,17.4222162 45.8116972,17.393436 C45.9999119,17.2342269 46.0906252,17.4571197 46.1961488,17.5746896 C46.0418745,17.1301286 45.943756,16.6090248 45.9653544,16.1301726 C45.607438,16.1785477 45.201388,16.1644638 44.8373006,16.1430318 Z M47.7796203,16.1081282 C47.8555233,16.3598012 47.9394485,16.6298444 47.8758875,16.9084604 C47.8758875,16.7829301 48.1492616,16.6573998 47.9320433,16.5465658 C48.0159686,16.4198108 47.9530247,16.1565033 48.1134699,16.1430318 C47.9888163,16.1705872 47.8906978,16.1705872 47.7796203,16.1081282 Z M56.502907,16.093432 C56.5436354,16.2336585 56.4603273,16.3653123 56.4677325,16.5110499 C56.3202462,16.7553747 56.6559471,16.816609 56.5639997,17.0456253 C56.502907,17.095225 56.4387289,17.0878769 56.3622089,17.0603215 C56.1875703,17.7418592 55.8432301,18.3658366 55.3532549,18.9077601 L55.3057384,18.9077601 C55.4297749,18.9849153 55.5217224,19.1582084 55.6618035,19.1931119 L55.6618035,19.0969741 C55.69019,19.0749297 55.7037661,19.027167 55.7463458,19.0473743 C56.0191028,19.1318776 56.0400841,19.5054068 56.0622996,19.6799246 C56.7750469,18.9365402 57.2168885,18.0541541 57.4396607,17.095225 C57.5186491,16.7749697 57.4754523,16.3861319 57.6081282,16.1081282 C57.2446579,16.1301726 56.845396,16.1497676 56.502907,16.093432 Z M57.9450633,16.073837 L57.9790036,16.1430318 C57.9160597,17.6095931 57.3069847,18.9500118 56.3622089,19.9444567 C56.6275607,20.1795964 56.9293212,20.4863802 57.175543,20.7423395 C58.1048915,19.6799246 58.74297,18.4846312 58.9669763,17.1301286 C59.0441135,16.7829301 59.0225151,16.4069516 59.1206336,16.073837 C58.7775275,16.1705872 58.3714775,16.1081282 57.9944311,16.1301726 L57.9450633,16.073837 Z M55.4377972,16.0597531 L55.6266289,16.2752979 C55.620458,16.5190103 55.9561589,16.5943285 55.975906,16.8453891 C56.0481064,16.6157605 56.0400841,16.3598012 56.1104332,16.1301726 C55.893832,16.1081282 55.620458,16.1785477 55.4377972,16.0597531 Z M55.557514,15.7125547 L55.6408222,15.7125547 L55.557514,15.7125547 Z M48.6676233,15.5741652 C48.4084424,15.6568315 48.6676233,15.8999316 48.65343,16.0597531 C48.6256607,16.1926316 48.4917506,16.0879209 48.4139963,16.1430318 C48.4497879,16.3598012 48.2683613,16.4008282 48.1134699,16.4424675 C48.0634851,16.5882051 48.2276329,16.6573998 48.1492616,16.797014 C48.3374762,16.984391 48.4849625,17.2140196 48.4497879,17.477327 C48.5843151,17.6653163 48.5485235,17.9500558 48.5843151,18.1925436 C48.6947755,18.3033776 48.7583366,18.4711596 48.7515485,18.6444527 C48.7583366,18.7344671 48.6602181,18.7620225 48.6046793,18.796926 C48.5343303,18.8814294 48.65343,18.8397901 48.65343,18.9077601 L49.5920349,17.9439323 C49.2637392,17.5685661 49.0039413,17.0676696 48.9064399,16.5465658 L48.7861059,16.4767587 C48.7657417,16.6090248 48.7725298,16.797014 48.65343,16.8453891 C48.5904861,16.7896659 48.4639812,16.7621105 48.4639812,16.6439283 C48.4985386,16.5686101 48.5627167,16.6157605 48.6188726,16.6090248 C48.6114674,16.5465658 48.6256607,16.4834945 48.6330658,16.4277712 C48.65343,16.3524531 48.520137,16.2973422 48.6188726,16.2275351 C48.7021807,16.2195747 48.7385895,16.3169372 48.8009163,16.3598012 L48.9687667,16.2752979 C48.9206331,16.1154764 49.0101122,15.8650281 48.9539564,15.691735 C48.9335922,15.5527332 48.779935,15.5815133 48.6676233,15.5741652 Z M51.6574594,14.6783075 L51.6772065,14.6923914 C51.699422,14.7964897 51.775325,14.9556988 51.6772065,15.0255059 C51.5525529,15.1926756 51.2514094,15.1565473 51.2088297,15.3776031 C50.8811511,15.477415 51.0064218,15.879112 50.9015153,16.1301726 C50.6917022,16.1785477 50.7676052,15.9280994 50.6701038,15.8435961 L50.6213532,15.9072798 C50.2992284,15.6635673 50.3621723,16.1858958 50.1665525,16.2275351 C50.3905588,16.2752979 50.5793905,16.1497676 50.8027797,16.1430318 C50.8157388,16.1705872 50.8731288,16.1858958 50.8527646,16.2275351 L50.8873221,16.2275351 C50.9360728,16.1785477 50.9428608,16.1154764 50.9360728,16.0456693 C50.956437,15.9764745 51.0415964,15.9342228 51.1033061,15.9764745 C51.0841761,16.0456693 51.1316926,16.1020048 51.1878484,16.1301726 L51.0693658,16.2973422 C51.0064218,16.3653123 51.0841761,16.5539139 50.9224966,16.5465658 C50.8873221,16.5539139 50.8577014,16.5251338 50.8731288,16.4914549 L50.8379543,16.4914549 L50.9224966,16.6439283 C51.0212322,16.6365802 50.9983996,16.4626748 51.1249045,16.4424675 C51.2378333,16.4155244 51.2514094,16.282646 51.2378333,16.1785477 C51.3840854,16.0517927 51.566129,16.1301726 51.7278085,16.1081282 C51.7685369,16.1497676 51.8672725,16.1644638 51.8469083,16.241619 C51.9092351,16.3653123 51.8037115,16.5055388 51.7278085,16.6090248 C51.762366,16.6788318 51.6772065,16.7339427 51.6772065,16.8092609 C51.5463819,16.9494874 51.3982786,16.8864161 51.223023,16.9286678 C51.4476464,17.0799165 51.6858459,17.179116 51.9795842,17.1564593 C52.2597463,17.179116 52.1264533,16.8239571 52.3288612,16.7131231 C52.4485781,16.6990392 52.5541017,16.7278193 52.6861605,16.6916911 C52.7423164,16.5882051 52.7491045,16.4626748 52.7707029,16.345105 C52.650986,16.2887694 52.6935657,16.1705872 52.6861605,16.073837 C52.6151944,15.9893337 52.6238337,15.838085 52.4831356,15.8240011 C52.4547491,15.7468459 52.5386743,15.7125547 52.5318862,15.64336 C52.7423164,15.5668171 52.4201916,15.4418991 52.5541017,15.3237169 C52.3152851,15.2820776 52.2597463,14.9073237 51.965391,15.0255059 C51.895659,14.9275311 51.7136153,14.8852794 51.7136153,14.7395418 C51.7339795,14.6366682 51.9727961,14.6783075 51.9437926,14.6923914 C51.9295993,14.670347 51.9030641,14.6562631 51.9092351,14.6287077 C51.8191389,14.6219719 51.7136153,14.6287077 51.6574594,14.6783075 Z M41.6802311,14.23987 C41.3161437,15.073881 41.336508,16.1785477 41.6104991,17.0456253 C41.8480816,17.9439323 42.7095493,18.5672974 43.1575619,19.3455853 C43.0804248,19.0210436 43.094618,18.6113861 43.1433687,18.2770469 C43.437107,17.1172694 43.8986957,15.9979065 43.8295808,14.7125987 C43.6543252,15.6366242 42.8212439,16.2887694 42.7231255,17.2409627 C42.6607987,17.6316374 42.7576829,18.0125148 42.8064336,18.3584885 C42.7175716,18.1851955 42.6317951,17.9855717 42.618836,17.7614542 C42.4781379,16.5110499 41.46363,15.5949849 41.6802311,14.23987 Z M62.1943949,14.0941323 C62.3900148,15.2196186 61.7044197,16.0677136 61.4236405,17.0456253 C61.2693662,17.4222162 61.3329272,17.9010683 61.103367,18.2280595 C61.0885567,18.0400702 61.1928461,17.8600414 61.2076564,17.6567435 C61.382295,16.4008282 60.2826277,15.6568315 60.0314691,14.5944165 C60.0166588,14.8785436 60.037023,15.1498116 60.0802198,15.4076079 C60.1437808,16.7339427 61.0182076,17.8104416 60.7664319,19.1931119 C61.0182076,18.8655085 61.2076564,18.5330062 61.5081828,18.2139756 C62.5171368,17.1717679 62.7763177,15.4272029 62.1943949,14.0941323 Z M51.6772065,13.2956372 C51.0903471,13.3789158 50.5374279,13.5944605 50.1165676,14.0457572 C50.2554145,14.073925 50.3967298,14.1284235 50.5016363,14.2251737 C50.5374279,14.2949808 50.4393095,14.3029413 50.4319043,14.3439683 C50.5226176,14.4762343 50.5294057,14.3164128 50.6213532,14.2949808 C50.7058955,14.3794841 50.7811813,14.4413308 50.9015153,14.3794841 C50.9638421,14.4829701 51.0619606,14.3849952 51.1384806,14.393568 C51.1668671,14.3090647 51.286584,14.23987 51.2378333,14.1425074 C51.2785617,14.0659646 51.3001601,13.9416589 51.4056838,13.9416589 C51.3421227,14.2680377 51.6506714,13.9416589 51.7413847,14.0941323 C51.6506714,13.857768 51.7204034,13.5320015 51.6772065,13.2956372 Z M52.1332414,13.2742052 L52.1610108,14.0249376 L52.4485781,14.1284235 C52.5318862,13.9814612 52.6861605,13.94717 52.784279,13.8234768 C52.8756094,13.7812251 52.8756094,13.8926715 52.9169549,13.9281874 C52.9737279,14.2680377 52.5948302,14.4205111 52.3856342,14.5589006 L52.4695594,14.5589006 C52.6861605,14.3372325 52.8120484,14.8369043 53.0366718,14.6085004 C53.0786344,14.3231486 53.4846844,14.3580521 53.5760148,14.073925 C53.5056657,14.1425074 53.4704912,14.0659646 53.4081643,14.0457572 C53.4279114,13.94717 53.5612044,13.8859357 53.6247655,13.8234768 C53.1705819,13.5442484 52.6725844,13.3568714 52.1332414,13.2742052 Z M48.8836073,13.1419391 C48.6460249,13.4340267 48.4139963,13.7530573 48.2479971,14.0941323 C47.9746231,14.5944165 47.8974859,15.1694065 47.7931965,15.7407225 L48.2479971,15.7266386 C48.17086,15.6366242 48.1844361,15.5110939 48.1844361,15.3929117 C48.2893427,15.1694065 48.3325395,14.7744453 48.6676233,14.7964897 C48.8286856,14.7609738 48.6602181,14.6366682 48.7861059,14.5735969 C49.0255397,14.5386933 49.0878665,14.3164128 49.2896573,14.2123145 C49.4797232,14.1902702 49.5210688,13.9281874 49.7105176,13.9067554 C49.38901,13.6850873 49.1711746,13.4058589 48.8836073,13.1419391 Z M54.9688033,13.1076479 C54.6460614,13.4830141 54.2258182,13.8779753 53.9110986,14.23987 C53.9333141,14.288245 53.9888528,14.3439683 53.996258,14.3231486 C54.0795661,14.218438 54.0160051,13.9551305 54.2474166,14.0102414 C54.478211,14.0867842 54.681853,14.0659646 54.9342458,14.0941323 C55.0737098,14.1706752 55.0953082,14.3372325 55.221196,14.4076519 C55.277969,14.4682739 55.1995976,14.5246094 55.1724454,14.5735969 C55.1995976,14.6017646 55.227367,14.6287077 55.2421774,14.6562631 C55.3125264,14.5944165 55.4106449,14.5105255 55.5427037,14.5448167 C55.6766138,14.5540019 55.7117884,14.7395418 55.8308881,14.7609738 C55.8864269,14.8307809 55.7950965,14.8999756 55.7463458,14.9275311 C55.7741152,15.0597971 55.620458,15.1014365 55.6766138,15.2275791 C55.7463458,15.239826 55.8154607,15.2055348 55.8432301,15.1565473 C56.1104332,14.9624346 55.9006201,14.7125987 55.8580404,14.4762343 C55.7531339,14.2600773 55.5285105,14.218438 55.3532549,14.0592288 C55.3618942,13.9894217 55.4026226,13.9141035 55.4587785,13.8779753 C55.4532246,13.5736408 55.1378879,13.3642196 54.9688033,13.1076479 Z M47.8141778,12.0727883 L47.8141778,12.1419831 C46.9237064,13.1480625 46.4281774,14.3647879 46.3362299,15.7266386 C46.7009343,15.734599 47.098345,15.7125547 47.4426852,15.7407225 L47.4081278,15.691735 C47.4778598,14.6158485 47.8629285,13.6348751 48.6046793,12.8584243 C48.310324,12.6208352 48.0381841,12.3501797 47.8141778,12.0727883 Z M52.1122601,11.8094809 C52.1690331,12.1334103 52.1542227,12.5161246 52.1332414,12.8584243 C52.784279,12.9061871 53.4778963,13.1694945 53.9468902,13.5944605 C54.1918778,13.3440122 54.4646348,13.009673 54.7373918,12.8584243 C53.9678715,12.2528171 53.1057867,11.8774509 52.1122601,11.8094809 Z M51.7136153,11.7941723 L51.6772065,11.8223401 C50.7114494,11.8774509 49.9067545,12.3024169 49.1575985,12.8786316 C49.4445487,13.0666209 49.674726,13.3568714 49.9493343,13.6073197 C50.4177111,13.1633711 51.0415964,12.8982266 51.692634,12.8786316 C51.6710356,12.5589886 51.6574594,12.1334103 51.7136153,11.7941723 Z M42.752129,11.543724 C42.3460791,12.0244132 42.072705,12.5994032 41.9313897,13.2105215 C41.6592498,14.4897059 42.4361753,15.477415 42.6034086,16.6439283 C42.8286491,15.179204 44.3831171,14.2539538 44.4664252,12.7249335 C44.0122416,13.5522088 42.9051692,14.0316734 42.7033784,15.0108097 C42.7033784,15.1694065 42.6540106,15.3237169 42.618836,15.477415 L42.5842786,15.4418991 L42.6398173,14.8099612 C42.8286491,13.6771268 42.1628012,12.5100012 42.752129,11.543724 Z M61.0182076,11.3912506 C61.5353351,12.1419831 61.2422139,13.1976623 61.2076564,14.073925 C61.2274036,14.4976663 61.2983697,14.920183 61.2693662,15.3445366 C61.2076564,15.179204 61.1928461,14.9967258 61.1515006,14.8240451 C60.9416875,13.8712395 59.8136338,13.4058589 59.358216,12.606139 C59.427948,12.8786316 59.4779329,13.1480625 59.5766684,13.4058589 C59.9685252,14.5319575 61.1434783,15.2900381 61.3057749,16.5110499 C61.4106814,15.3445366 62.2363576,14.413163 61.928426,13.1419391 C61.7685978,12.5032654 61.5007776,11.8774509 61.0182076,11.3912506 Z M46.8181828,11.1285555 L46.7848596,11.0226202 C45.5852225,12.3158885 44.9150549,13.94717 44.8224903,15.7266386 L45.9653544,15.7407225 C45.9233918,15.3776031 46.0208932,15.0304047 46.06409,14.6783075 C46.3066092,13.6281394 46.7632612,12.6355315 47.5753611,11.8566313 L46.8181828,11.1285555 Z M57.0694023,11.0091487 L56.3338224,11.7941723 L56.2153397,11.8094809 C56.3134582,11.8094809 56.2850717,11.9203149 56.3480156,11.9601172 C56.6559471,12.1756619 56.7954111,12.4830581 57.0558262,12.711462 C57.1527104,12.947214 57.4044861,13.1009121 57.4044861,13.3923873 C57.7698077,14.0941323 57.9376581,14.920183 57.9790036,15.7266386 C58.3437081,15.6843869 58.755312,15.670303 59.1070574,15.6782635 L59.0718829,15.64336 C59.0015338,13.8375606 58.2591658,12.2944565 57.0694023,11.0091487 Z M48.0998938,11.8437721 C48.380673,12.0378848 48.65343,12.3422192 48.8836073,12.5932798 C49.6265924,11.8774509 50.6213532,11.4396257 51.692634,11.4261542 C51.6710356,11.0783434 51.6710356,10.7029772 51.692634,10.3545541 C50.3331687,10.4604894 49.1150188,10.9466897 48.0998938,11.8437721 Z M55.3057384,10.3214875 C55.2489654,10.3349591 55.2699467,10.4255858 55.2903109,10.4604894 C55.4735888,10.4745733 55.4735888,10.7795201 55.69019,10.6546021 L55.6408222,10.4402821 C55.5859005,10.3000555 55.3964517,10.3710873 55.3057384,10.3214875 Z M52.0980669,10.3214875 C52.1542227,10.668686 52.1332414,11.0856915 52.1122601,11.4261542 C53.0014972,11.4396257 53.8413666,11.7121183 54.5349839,12.2246494 C54.4708058,12.1909705 54.3881148,12.0519687 54.4010738,11.9601172 L54.4294603,11.9601172 C54.4442706,11.8358116 54.2542047,11.7807007 54.3171486,11.6557828 C54.4862332,11.668642 54.6108869,11.8988829 54.7022173,12.0244132 C55.1860215,12.0176775 54.9058593,12.5853194 55.2699467,12.7586124 C55.3532549,12.8020888 55.2421774,12.9753818 55.3760875,12.9619103 C55.4877821,13.052537 55.6266289,13.1480625 55.6062647,13.2956372 C55.6476102,13.5442484 55.8500181,13.2172573 55.9629469,13.3789158 C56.0622996,13.4554587 55.893832,13.5032214 55.9141963,13.5944605 C55.975906,13.6214036 56.033296,13.5320015 56.0826638,13.6073197 C56.103028,13.6912107 56.0400841,13.7261142 55.9968873,13.7744893 C55.9561589,13.9196146 56.1301803,13.8375606 56.1801652,13.9067554 C56.2579194,14.073925 56.3202462,14.3231486 56.1943584,14.5105255 C56.3689969,14.6979025 56.166589,14.8926275 56.1301803,15.073881 C56.0055266,15.1926756 55.9839282,15.4700669 55.7463458,15.4076079 C55.69019,15.5037458 55.7802862,15.6158045 55.7241303,15.691735 L56.1456077,15.7125547 C55.9074082,15.3776031 56.2153397,15.0597971 56.3134582,14.7609738 C56.3622089,14.7395418 56.4257699,14.6366682 56.4677325,14.7395418 C56.4461341,14.8785436 56.433175,15.0304047 56.4177476,15.1436881 C56.5232712,15.3022849 56.4813086,15.5251778 56.5164832,15.7125547 L57.5945521,15.691735 C57.5186491,14.9838666 57.3699287,14.3029413 57.0694023,13.6912107 C56.9922651,13.7187661 56.9009348,13.7744893 56.8182437,13.7261142 C56.6979098,13.565068 56.5997913,13.3715677 56.433175,13.2399139 C56.2924769,13.2399139 56.1943584,13.1278552 56.0826638,13.0586604 C55.8382933,13.0666209 55.9290066,12.711462 55.69019,12.7586124 C55.5624508,12.6973781 55.4735888,12.6355315 55.4377972,12.4897939 C55.4297749,12.3226242 55.4161988,12.1144276 55.2545193,11.9888973 C55.1656573,11.9405222 55.0817321,12.0017565 55.018171,12.0580921 C54.884878,12.1419831 54.8299564,11.9962455 54.8367445,11.8909225 C54.688024,11.7807007 54.8422983,11.6557828 54.7651612,11.5235167 C54.5559652,11.3563471 54.6540837,11.0440522 54.3665164,10.9050504 C53.9043105,10.6833822 53.4143353,10.543768 52.9033788,10.4402821 C52.6386441,10.3980304 52.3498425,10.3906823 52.0980669,10.3214875 Z M43.1575619,11.14019 C42.5904496,11.9680777 43.0514212,13.1143836 42.8903588,14.0941323 C43.094618,13.6912107 43.4864748,13.3091087 43.8295808,13.0237569 C44.6213166,12.5161246 45.3291272,11.7121183 45.3556623,10.8083002 C44.9360362,11.8774509 43.5481845,12.0176775 43.2063126,13.156023 L43.1711381,13.156023 C43.6820946,12.2111778 43.3963786,10.8774949 44.3683067,10.1751376 C43.8579673,10.3214875 43.4235309,10.6968538 43.1575619,11.14019 Z M59.4082009,10.0434838 C60.1505689,10.5296841 60.1018182,11.4261542 60.3665529,12.156067 C60.436902,12.4616261 60.6257337,12.7390174 60.646098,13.0445766 C60.2474531,11.8988829 58.9027982,11.7727403 58.412823,10.690118 L58.5677144,11.3220559 C58.9453779,12.5516405 60.4220917,12.8504638 60.9830331,13.9637033 C60.8083945,13.156023 61.115709,12.3158885 60.8713384,11.5235167 C60.6676964,10.8425914 60.1018182,10.2449447 59.4082009,10.0434838 Z M52.9737279,9.40481017 L52.4695594,9.62586597 C52.4134036,9.65525843 52.2381479,9.56401933 52.2665344,9.71036929 C52.3640358,9.77282827 52.4627713,9.84202302 52.581254,9.85549457 C52.8965907,9.71710507 53.2754884,9.94612132 53.5414573,9.65525843 C53.4637031,9.44644949 53.184158,9.43910138 52.9737279,9.40481017 Z M46.3985567,9.17518157 C45.7339429,9.43910138 45.0125563,9.65525843 44.5151759,10.2725001 C44.1307243,10.7727843 44.0122416,11.370431 43.8153876,11.9405222 L44.4034813,11.4396257 C45.3001236,10.8217717 45.530918,9.81385525 46.3985567,9.17518157 Z M57.3699287,9.07108327 L57.9092717,9.60688334 C58.4554027,10.4402821 59.2193691,11.265108 59.9753132,11.7941723 C59.8136338,11.459833 59.7784592,11.0709953 59.6099917,10.736656 C59.2749079,9.80711948 58.2313964,9.35582274 57.3699287,9.07108327 Z M47.0360181,10.7727843 L47.8629285,11.5578079 C48.8990347,10.5590766 50.2288793,9.98776064 51.692634,9.93816086 C51.6370952,9.59218711 51.6574594,9.19477655 51.6772065,8.84145467 C49.9005836,8.93942954 48.3535208,9.60688334 47.0360181,10.7727843 Z M52.1122601,8.80655113 C52.1400295,9.08394248 52.1400295,9.47522961 52.1122601,9.79426028 C52.1190482,9.7446605 52.1690331,9.7446605 52.1968024,9.72445318 C52.2943038,9.75935673 52.2943038,9.87570189 52.2665344,9.96020521 L52.244936,9.96020521 C52.7491045,9.92530166 53.2335258,10.0502196 53.6951145,10.1898338 C54.1776846,10.2522928 54.5979278,10.8291198 55.0737098,10.5229484 C55.2076199,10.668686 55.4377972,10.5296841 55.5069121,10.758088 C55.69019,10.7942163 55.7876913,10.9754698 55.9141963,11.0918149 C55.9006201,11.2595969 56.0536602,11.3361398 56.1104332,11.459833 L56.1104332,11.4396257 C56.2714956,11.1548863 56.5232712,10.9050504 56.8034334,10.758088 C55.8012675,9.81385525 54.5769465,9.202737 53.2390797,8.95902452 C52.8756094,8.88309399 52.4695594,8.90330131 52.1122601,8.80655113 Z M58.546116,12.3912066 C59.9685252,14.7187221 59.6735527,18.262963 57.9580223,20.3608499 C56.0622996,22.8481869 52.9317653,23.9246858 49.8444277,23.0772031 C47.0360181,22.3479027 44.7472044,19.6872727 44.4874065,16.8092609 C44.1375124,13.7610178 45.5654754,10.9809809 48.1634548,9.46053338 C50.1665525,8.23768454 53.2526558,8.0986827 55.3409129,9.25907255 C56.6078136,9.86957846 57.8815023,11.1205951 58.546116,12.3912066 L58.546116,12.3912066 Z" id="Fill-36" fill="#0091C6"></path>
                    <path d="M122.524005,13.5384615 C124.932504,13.4455668 127.214837,13.1498897 129.283951,12.6995769 L129.283951,8.46153846 L122.524005,8.46153846 L122.524005,13.5384615" id="Fill-37" fill="#0091C6"></path>
                    <path d="M135.477857,13.5505913 C134.367132,14.1516407 133.132406,14.6698734 131.81893,15.1153276 L131.81893,20.3076923 C133.895809,18.677079 135.624778,16.5809346 136.888889,14.1654436 L136.888889,12.6923077 C136.439898,12.992205 135.972688,13.2814366 135.477857,13.5505913" id="Fill-38" fill="#0091C6"></path>
                    <path d="M129.283951,21.9047032 C129.283951,21.8987801 129.281428,21.8922646 129.281428,21.8869338 L129.281428,16.0769231 C127.172098,16.5104971 124.899445,16.7794078 122.524005,16.8729935 L122.524005,23.6923077 C124.931605,23.4820361 127.213087,22.8648447 129.283951,21.9047032" id="Fill-39" fill="#0091C6"></path>
                    <path d="M131.81893,8.46153846 L131.81893,11.8461538 C133.909913,11.1411643 135.648873,10.2520233 136.888889,9.27136122 L136.888889,8.46153846 L131.81893,8.46153846" id="Fill-40" fill="#0091C6"></path>
                    <path d="M119.144033,8.46153846 L112.384088,8.46153846 L112.384088,12.6414666 C114.442513,13.1251181 116.729853,13.4392364 119.144033,13.5384615 L119.144033,8.46153846" id="Fill-41" fill="#68AFD5"></path>
                    <path d="M109.849108,11.8461538 L109.849108,8.46153846 L104.77915,8.46153846 L104.77915,9.29317706 C105.542108,9.87891019 106.481613,10.438459 107.571464,10.9445005 C108.272037,11.2695283 109.035619,11.5706487 109.849108,11.8461538" id="Fill-42" fill="#68AFD5"></path>
                    <path d="M119.144033,16.9249693 C116.764885,16.8227809 114.487813,16.5397073 112.384088,16.0769231 L112.384088,21.7883147 C114.444929,22.8195953 116.728645,23.4773597 119.144033,23.6923077 L119.144033,16.9249693" id="Fill-43" fill="#68AFD5"></path>
                    <path d="M109.849108,19.4615385 L109.849108,14.8358783 C107.952631,14.2626912 106.24892,13.5409 104.77915,12.6923077 L104.77915,14.0716288 C106.058648,16.1721674 107.786065,18.0059071 109.849108,19.4615385" id="Fill-44" fill="#68AFD5"></path>
                    <path d="M112.40039,41.0075855 L112.40039,37.8186449 L119.144033,37.8186449 L119.144033,34.6339791 L112.39979,34.6339791 L112.39979,31.4456492 L119.144033,31.4456492 L119.144033,26.042404 C113.411157,25.5862304 108.319532,22.8027775 104.77915,18.6153846 L104.77915,46.5384615 L119.144033,46.5384615 L119.144033,41.0075855 L112.40039,41.0075855" id="Fill-45" fill="#68AFD5"></path>
                    <path d="M122.524005,26.0520981 L122.524005,31.4526268 L128.981641,31.4526268 L128.981641,34.6393537 L122.524005,34.6393537 L122.524005,37.8224185 L128.98224,37.8224185 L128.98224,41.0097558 L122.524005,41.0097558 L122.524005,46.5384615 L136.888889,46.5384615 L136.888889,18.6153846 C133.349654,22.8055552 128.259532,25.5924916 122.524005,26.0520981" id="Fill-46" fill="#0091C6"></path>
                </g>
            </g>
        </g>
    </g>
</svg>