<?xml version="1.0" encoding="utf-8"?>
<!-- Generator: Adobe Illustrator 26.0.3, SVG Export Plug-In . SVG Version: 6.00 Build 0)  -->
<!DOCTYPE svg PUBLIC "-//W3C//DTD SVG 1.1//EN" "http://www.w3.org/Graphics/SVG/1.1/DTD/svg11.dtd" [
	<!ENTITY ns_extend "http://ns.adobe.com/Extensibility/1.0/">
	<!ENTITY ns_ai "http://ns.adobe.com/AdobeIllustrator/10.0/">
	<!ENTITY ns_graphs "http://ns.adobe.com/Graphs/1.0/">
	<!ENTITY ns_vars "http://ns.adobe.com/Variables/1.0/">
	<!ENTITY ns_imrep "http://ns.adobe.com/ImageReplacement/1.0/">
	<!ENTITY ns_sfw "http://ns.adobe.com/SaveForWeb/1.0/">
	<!ENTITY ns_custom "http://ns.adobe.com/GenericCustomNamespace/1.0/">
	<!ENTITY ns_adobe_xpath "http://ns.adobe.com/XPath/1.0/">
]>
<svg version="1.1" id="Layer_1" xmlns:x="&ns_extend;" xmlns:i="&ns_ai;" xmlns:graph="&ns_graphs;"
	 xmlns="http://www.w3.org/2000/svg" xmlns:xlink="http://www.w3.org/1999/xlink" x="0px" y="0px" viewBox="0 0 2676.4 851.8"
	 style="enable-background:new 0 0 2676.4 851.8;" xml:space="preserve">
<style type="text/css">
	.st0{fill:#001B5E;}
	.st1{fill:#FCC90C;}
	.st2{fill:#FFFFFF;}
	.st3{fill:#6A79B8;}
</style>
<metadata>
	<sfw  xmlns="&ns_sfw;">
		<slices></slices>
		<sliceSourceBounds  bottomLeftOrigin="true" height="2191.9" width="16383" x="-6942" y="-1045.2"></sliceSourceBounds>
	</sfw>
</metadata>
<polygon class="st1" points="697.5,545.9 614.9,546.9 660.6,508.4 617.7,466.9 677.1,472.1 676.2,412.4 738.6,431.2 663.6,142.4 
	632.9,329.9 486.4,169.5 562.7,382.2 376.9,311.8 511,453.4 250.8,542.4 558.5,542.4 450.8,715.3 "/>
<g>
	<path class="st0" d="M1091.1,467c1.4-3.8,5.1-6.4,9.1-6.4c1.1,0,2.3,0.2,3.4,0.6l16.7,5.9c0.3,0.1,0.5,0.1,0.8,0.1
		c0.5,0,1-0.1,1.4-0.4l28.9-20.2c1.6-1.1,3.6-1.7,5.6-1.7c1.5,0,2.9,0.3,4.2,1l46.4,22.4c1.4,0.7,2.6,1.7,3.6,2.9l35.9,48.1
		c3.2,4.3,2.3,10.4-2,13.6c-1.7,1.3-3.7,1.9-5.8,1.9c-3.1,0-6-1.5-7.8-3.9l-28.8-38.7c-0.5-0.6-1.2-1-1.9-1c-0.1,0-0.2,0-0.3,0
		c-0.9,0.1-1.6,0.7-1.9,1.5l-9.2,25.2c-0.3,0.8-0.1,1.8,0.5,2.4l21.3,23.8c2,2.3,3.1,5.2,3.1,8.3l-1.1,59.1h-24.4l1.2-53.9
		c0-0.6-0.2-1.2-0.6-1.6l-18-20.1c-0.5-0.5-1.1-0.8-1.8-0.8c-0.3,0-0.6,0.1-0.8,0.2c-0.9,0.3-1.5,1.2-1.6,2.2l-0.3,17.9
		c0,2.7-1,5.3-2.7,7.4l-39.3,48.7h-31.3l48.6-60c0.3-0.4,0.5-0.9,0.5-1.5l0.4-25.3c0-0.3,0-0.6-0.1-0.8l0.1-1.6l6-45.5
		c0.1-0.9-0.3-1.9-1.1-2.4c-0.4-0.2-0.8-0.3-1.2-0.3c-0.5,0-1,0.1-1.4,0.4l-16.6,11.6c-1.6,1.1-3.6,1.7-5.6,1.7
		c-1.1,0-2.3-0.2-3.3-0.6l-22.6-8.1C1091.9,477.7,1089.3,472.1,1091.1,467z"/>
	<path class="st0" d="M1198.8,451.3c14.2,0,25.7-11.5,25.7-25.7c0-14.2-11.5-25.7-25.7-25.7c-14.2,0-25.7,11.5-25.7,25.7
		C1173.2,439.8,1184.7,451.3,1198.8,451.3z"/>
	<path class="st0" d="M990,341.5c1.9,0,3.7-0.4,5.4-1c-1.2,3.3-1.9,6.8-1.9,10.4c0,16.9,13.7,30.7,30.7,30.7
		c16.9,0,30.7-13.7,30.7-30.7c0-16.9-13.7-30.7-30.7-30.7c-7,0-13.4,2.3-18.5,6.3c0-0.3,0.1-0.5,0.1-0.8c0-8.7-7.1-15.8-15.8-15.8
		s-15.8,7.1-15.8,15.8C974.1,334.4,981.2,341.5,990,341.5z"/>
	<path class="st0" d="M753.1,534.1c1.2,0.5,2.5,0.8,3.8,0.8c3.9,0,7.4-2.3,9-5.9l15.8-37.6c0.2-0.5,0.5-0.9,1-1.1l7.7-4.5
		c0.4-0.2,0.8-0.3,1.2-0.3c0.5,0,0.9,0.1,1.3,0.4c0.8,0.5,1.2,1.4,1,2.4l-5.3,34.5l-0.2,1.5c0.1,0.3,0.2,0.6,0.2,0.9l-0.4,25.3
		c0,0.5-0.2,1.1-0.5,1.5l-48,60h31l39-48.7c1.7-2.1,2.6-4.7,2.7-7.4l0.3-17.9c0-1,0.6-1.9,1.6-2.2c0.3-0.1,0.6-0.2,0.8-0.2
		c0.7,0,1.3,0.3,1.8,0.8l16.6,18.5c0.5,0.6,0.7,1.4,0.5,2.2l-14.5,54.9H845l14.4-56.3c1-3.9,0-8.1-2.7-11.1l-21.3-23.8
		c-0.6-0.7-0.8-1.6-0.5-2.4l10.7-29.2c0.2-0.6,0.7-1.1,1.3-1.4c0.3-0.1,0.6-0.2,0.9-0.2c0.3,0,0.7,0.1,1,0.2l21.4,10
		c1.3,0.6,2.7,0.9,4.1,0.9c2,0,3.9-0.6,5.5-1.7l28.1-19.4c2.1-1.5,3.6-3.7,4-6.2c0.5-2.6-0.1-5.1-1.5-7.3c-1.8-2.6-4.8-4.2-8-4.2
		c-2,0-3.9,0.6-5.5,1.7l-22.4,15.4c-0.4,0.3-0.9,0.4-1.4,0.4c-0.3,0-0.7-0.1-1-0.2l-54.1-25.4c-1.3-0.6-2.7-0.9-4.1-0.9
		c-1.7,0-3.4,0.5-4.9,1.3l-39.7,23.4c-1.8,1.1-3.2,2.7-4,4.6l-17.4,41.3c-1,2.4-1,5,0,7.4C748.8,531.3,750.7,533.1,753.1,534.1z"/>
	<path class="st0" d="M919.7,461.4c1.4,0.7,3,1.1,4.5,1.1c3.6,0,6.9-2,8.6-5.2l19.6-37.1c0.2-0.4,0.6-0.8,1-1l19.3-10.5
		c0.4-0.2,0.8-0.3,1.1-0.3c0.3,0,0.7,0.1,1,0.2c0.7,0.3,1.2,0.9,1.3,1.7l6.1,27.2c0.1,0.6,0,1.3-0.3,1.8l-70.7,107.3h39.9
		c0.9,0,1.7,0.5,2.1,1.3c0.4,0.8,0.3,1.8-0.2,2.5l-44.3,61.4h29.9l46.4-64.3c0.5-0.6,1.2-1,1.9-1h24.3c0.9,0,1.7,0.5,2.1,1.3
		l32.3,63.9h27.6l-31.6-61.8c-0.4-0.7-0.3-1.6,0.1-2.3c0.4-0.7,1.2-1.1,2-1.1h26.1l-42.4-89.9c-0.2-0.4-0.3-0.9-0.2-1.4l1.2-8.7
		c0.1-0.4,0.2-0.8,0.5-1.2l5.6-6.9c1.3-1.6,2-3.6,1.9-5.7l-0.1-3.8c0-1,0.6-2,1.6-2.3c0.3-0.1,0.5-0.1,0.8-0.1c0.7,0,1.5,0.3,1.9,1
		l28,37c1.7,2.3,4.3,4,7.2,4.2c2.4,0.2,4.8-0.5,6.7-1.9c4.4-3.3,4.8-9.7,1.5-14.1l-37.9-50.1c-1.1-1.5-2.7-2.7-4.5-3.3L990,380.7
		c-1.1-0.4-2.1-0.6-3.3-0.6c-1.6,0-3.2,0.4-4.7,1.2l-41.2,22.5c-1.7,0.9-3.1,2.3-3.9,4l-21.3,40.4c-1.2,2.3-1.5,4.9-0.7,7.4
		C915.7,458.1,917.4,460.1,919.7,461.4z"/>
	<path class="st0" d="M852.3,454.9c14.2,0,25.7-11.5,25.7-25.7c0-14.2-11.5-25.7-25.7-25.7c-14.2,0-25.7,11.5-25.7,25.7
		C826.6,443.4,838.1,454.9,852.3,454.9z"/>
</g>
<path class="st3" d="M1459.1,599.8c10.5-9.2,16.6-21.9,18.3-37.8c0.3-2.6,0.4-5.2,0.4-7.7c0-9.3-1.8-18-5.4-25.6
	c-4.6-9.8-11.3-19.2-20.1-27.9l-34.2-33.4c-4.8-5-8.2-9.8-10-14.4c-1.4-3.4-2.1-7.4-2.1-11.9c0-1.6,0.1-3.2,0.3-4.9
	c1.7-16.1,11.4-24.8,29-25.8c0.9-0.1,1.8-0.1,2.7-0.1c4.6,0,8.6,0.9,11.9,2.7c3.9,2.1,6.7,5.3,8.5,9.7c1.7,4.2,2.9,8.7,3.4,13.4
	c0.4,3.1,0.5,6.6,0.5,10.4c0,1.5,0,3-0.1,4.5l23.8-6.3V443c0-18.1-3.7-31.7-11-40.4c-7.5-8.8-19.8-13.3-36.5-13.4h-0.9
	c-15.7,0.2-28.7,4.7-38.7,13.4c-10,8.7-15.8,21-17.5,36.6c-0.3,3.1-0.5,6.2-0.5,9.1c0,6.6,0.9,12.6,2.7,17.7
	c2.6,7.3,7.3,14.4,13.8,21l33.9,33.5c3.1,3.2,5.6,5.8,7.3,7.7c1.7,1.9,3.7,4.4,5.8,7.4c2.1,3,3.7,5.9,4.7,8.5c1,2.6,1.7,5.7,2.3,9.3
	c0.3,2,0.4,4,0.4,6c0,1.6-0.1,3.4-0.3,5.2c-0.9,9-3.9,15.9-8.8,20.6c-4.9,4.7-11.7,7.1-20.2,7.1c-6,0-11.1-1.4-15.1-4.1
	c-4-2.7-7-6.7-8.9-11.6c-1.9-4.8-3.1-10-3.6-15.2c-0.4-3.5-0.6-7.4-0.7-11.8c0-1.5,0-3.1,0.1-4.7l-25.2,6.6
	c-0.1,1.6-0.1,3.2-0.1,4.7c0,16.9,3.8,30.6,11.3,40.7c8.2,11.1,21.6,16.7,39.7,16.7C1435.4,613.7,1448.6,609,1459.1,599.8z
	 M2281,563.7l0.6-5.2h-25.4l-1,8.8c-0.9,9.1-2.9,16-5.9,20.5c-3.2,4.7-8.2,7.1-14.9,7.1c-1.8,0-3.5-0.1-5-0.4
	c-1.6-0.3-3-0.9-4.1-1.7c-1-0.8-2-1.5-2.8-2.3c-1-0.8-1.7-2.1-2.3-3.8c-0.5-1.5-0.9-2.7-1.3-3.7c-0.4-1.1-0.6-2.7-0.7-5
	c0-2.1-0.1-3.7-0.1-4.9c0-1.2,0-3.2,0.2-5.8c0.2-2.6,0.3-4.6,0.5-5.9c0.1-1.3,0.3-3.5,0.6-6.6l2.2-20.4c0.1-1.1,1.1-2,2.2-2h60.6
	l1.4-12c1.1-8.7,1.6-16.8,1.6-24c0-1.7,0-3.3-0.1-4.9c-0.4-8.4-1.6-15.6-3.8-21.3c-2.2-5.6-6.1-9.9-11.6-12.9
	c-5.6-3-13.1-4.5-22.4-4.5c-8.7,0-16.1,1.3-22.3,3.7c-6.1,2.5-11.2,6.4-15.1,11.6c-4,5.3-7.2,11.8-9.4,19.2
	c-2.2,7.5-4,16.8-5.1,27.6l-3.9,36.7c-0.7,6.5-1.1,12.7-1.1,18.3c-0.1,3.2,0,6.2,0.3,9c0.7,7.7,2.5,14.2,5.2,19.4
	c2.7,5,6.9,8.9,12.5,11.4c5.6,2.6,13,3.9,21.9,3.9C2261.3,613.5,2277.6,596.8,2281,563.7z M2258.5,475.5c2.5,2.6,3.8,6.4,4,11.3
	c0,1,0,2.2,0.1,3.5c0,3.9-0.3,8.5-0.8,13.5l-1.2,13.3c-0.1,1.2-1.1,2-2.2,2h-32.6c-0.6,0-1.2-0.3-1.7-0.7c-0.4-0.5-0.6-1.1-0.6-1.7
	l0.7-7.6c1.5-14.3,3.8-24.2,6.8-29.4c3.1-5.4,8.5-8.2,16-8.2C2252.1,471.5,2256,472.8,2258.5,475.5z M2001.6,613.5
	c8,0,15-2.4,20.7-7.1c4.6-3.8,8.4-8.4,11.2-13.6c0.4-0.7,1.2-1.2,2-1.2c0.2,0,0.3,0,0.5,0.1c1,0.2,1.7,1.1,1.7,2.1
	c0.2,5.1,0.5,11,1.2,17.4h23.7c-0.1-2.5-0.1-5-0.1-7.4c0-10,0.5-19.7,1.5-28.9l7.6-73c0.4-4,0.7-7.7,0.7-11.1
	c0-11.1-2.2-19.9-6.5-26.1c-5.5-7.9-15.6-12-30.1-12l-0.5,0c-14.3,0-25.8,3.5-34.2,10.5c-8.4,7-13.9,18.3-16.3,33.8
	c-0.1,0.6-0.2,1.6-0.4,3c-0.1,0.6-0.1,1.1-0.2,1.5l25.7,1l0.8-6.7c1.6-15.9,8.5-23.9,20.7-23.9l0.4,0c6.8,0,11.2,2.4,13,7.3
	c1,2.8,1.5,6.7,1.5,11.6c0,3.3-0.2,7.2-0.7,11.6l-1.1,10.7c-0.1,0.8-0.6,1.5-1.4,1.8l-0.3,0.1c-7.6,3-12.7,5.1-15.3,6.1
	c-2.5,1.1-6.9,3.1-13.1,6c-6.2,2.9-10.3,5.2-12.6,7c-2.3,1.8-5.6,4.4-9.7,7.8c-4.1,3.3-7,6.6-8.6,9.7c-1.7,3.2-3.5,7.1-5.2,11.7
	c-1.7,4.5-2.9,9.4-3.4,14.7c-0.2,1.5-0.3,2.9-0.3,4.3c0,7.6,2.2,14.5,6.6,20.5C1986.1,609.9,1993,613.5,2001.6,613.5L2001.6,613.5z
	 M2041.3,531.2c0.7,0.5,1.1,1.3,1,2.1l-4.6,42.9c0,0.4-0.2,0.7-0.4,1.1c-2.2,3.1-5.3,6.2-9.3,9.2c-4.2,3.1-8.4,4.7-12.6,4.7
	c-5,0-8.7-2-11-5.9c-1.8-2.9-2.7-6.8-2.7-11.6c0-1.4,0.1-2.9,0.3-4.4c0.4-3.8,1.4-7.4,3.1-10.8c1.6-3.3,3.4-6.1,5.3-8.3
	c1.9-2.2,4.7-4.6,8.4-7.2c3.6-2.6,6.7-4.5,9-5.8c2.3-1.3,5.9-3.2,10.6-5.7l0.7-0.4c0.3-0.2,0.7-0.3,1.1-0.3
	C2040.5,530.8,2040.9,530.9,2041.3,531.2z M1772.9,563.7l0.6-5.2h-25.4l-1,8.8c-0.9,9.1-2.9,16-5.9,20.5c-3.2,4.7-8.2,7.1-14.9,7.1
	c-1.8,0-3.5-0.1-5-0.4c-1.6-0.3-3-0.9-4.1-1.7c-1-0.8-2-1.5-2.8-2.3c-1-0.8-1.7-2.1-2.3-3.8c-0.5-1.5-0.9-2.7-1.3-3.7
	c-0.4-1.1-0.6-2.7-0.7-5c0-2.1-0.1-3.7-0.1-4.9c0-1.2,0-3.2,0.2-5.8c0.2-2.6,0.3-4.6,0.5-5.9c0.1-1.3,0.3-3.5,0.6-6.6l2.2-20.4
	c0.1-1.1,1.1-2,2.2-2h60.6l1.4-12c1.1-8.7,1.6-16.8,1.6-24c0-1.7,0-3.3-0.1-4.9c-0.4-8.4-1.6-15.6-3.8-21.3
	c-2.2-5.6-6.1-9.9-11.6-12.9c-5.6-3-13.1-4.5-22.4-4.5c-8.7,0-16.1,1.3-22.3,3.7c-6.1,2.5-11.2,6.4-15.1,11.6
	c-4,5.3-7.2,11.8-9.4,19.2c-2.2,7.5-4,16.8-5.1,27.6l-3.9,36.7c-0.7,6.5-1.1,12.6-1.1,18.3c-0.1,3.2,0,6.2,0.3,9
	c0.7,7.7,2.5,14.2,5.2,19.4c2.7,5,6.9,8.9,12.5,11.4c5.6,2.6,13,3.9,21.9,3.9C1753.2,613.5,1769.5,596.8,1772.9,563.7z
	 M1750.4,475.5c2.5,2.6,3.8,6.4,4,11.3c0,1,0,2.2,0.1,3.5c0,4-0.3,8.5-0.8,13.5l-1.2,13.3c-0.1,1.2-1.1,2-2.2,2h-32.6
	c-0.6,0-1.2-0.3-1.7-0.7c-0.4-0.5-0.6-1.1-0.6-1.7l0.7-7.6c1.5-14.3,3.8-24.2,6.8-29.4c3.1-5.4,8.5-8.2,16-8.2
	C1744,471.5,1747.9,472.8,1750.4,475.5z M1520.4,613.5c8,0,15-2.4,20.7-7.1c4.6-3.8,8.4-8.4,11.2-13.6c0.4-0.7,1.2-1.2,2-1.2
	c0.2,0,0.3,0,0.5,0.1c1,0.2,1.7,1.1,1.7,2.1c0.2,5.1,0.5,11,1.2,17.4h23.7c-0.1-2.5-0.1-5-0.1-7.4c0-10,0.5-19.7,1.5-28.9l7.6-73
	c0.4-4,0.7-7.7,0.7-11.1c0-11.1-2.2-19.9-6.5-26.1c-5.5-7.9-15.6-12-30.1-12l-0.5,0c-14.3,0-25.8,3.5-34.2,10.5
	c-8.4,7-13.9,18.3-16.3,33.8c-0.1,0.6-0.2,1.6-0.4,3c-0.1,0.6-0.1,1.1-0.2,1.5l25.7,1l0.8-6.7c1.6-15.9,8.5-23.9,20.7-23.9l0.4,0
	c6.8,0,11.2,2.4,13,7.3c1,2.8,1.5,6.7,1.5,11.6c0,3.3-0.2,7.2-0.7,11.6l-1.1,10.7c-0.1,0.8-0.6,1.5-1.4,1.8l-0.3,0.1
	c-7.6,3-12.7,5.1-15.3,6.1c-2.5,1.1-6.9,3.1-13.1,6c-6.2,2.9-10.3,5.2-12.6,7c-2.3,1.8-5.6,4.4-9.7,7.8c-4.1,3.3-7,6.6-8.6,9.7
	c-1.7,3.2-3.5,7.1-5.2,11.7c-1.7,4.5-2.9,9.4-3.4,14.7c-0.2,1.5-0.3,2.9-0.3,4.3c0,7.6,2.2,14.5,6.6,20.5
	C1504.9,609.9,1511.9,613.5,1520.4,613.5L1520.4,613.5z M1560.1,531.2c0.7,0.5,1.1,1.3,1,2.1l-4.6,42.9c0,0.4-0.2,0.7-0.4,1.1
	c-2.2,3.1-5.3,6.2-9.3,9.2c-4.2,3.1-8.4,4.7-12.6,4.7c-5,0-8.7-2-11-5.9c-1.8-2.9-2.7-6.8-2.7-11.6c0-1.4,0.1-2.9,0.3-4.4
	c0.4-3.8,1.4-7.4,3.1-10.8c1.6-3.3,3.4-6.1,5.3-8.3c1.9-2.2,4.7-4.6,8.4-7.2c3.6-2.6,6.7-4.5,9-5.8c2.3-1.3,5.9-3.2,10.6-5.7
	l0.7-0.4c0.3-0.2,0.7-0.3,1.1-0.3C1559.3,530.8,1559.7,530.9,1560.1,531.2z M2390.8,611.3l13.3-127.2c0.3-2.2,0.5-4.4,0.5-6.5
	c-0.1-1.8-0.2-3.5-0.4-5.1c-0.5-3.8-1.4-7.2-2.6-10.2c-1.2-2.8-3.2-5.1-6-6.9c-2.8-1.8-6.4-2.7-10.6-2.7c-12,0-24.8,5.4-37.9,15.9
	c-0.4,0.3-0.9,0.5-1.4,0.5c-0.4,0-0.7-0.1-1.1-0.3c-0.8-0.4-1.3-1.3-1.2-2.2l1.2-11.7h-26l-16.4,156.3h26l13.4-126.6
	c0.1-0.6,0.4-1.2,0.9-1.5c8.7-6.8,16.4-10.2,22.7-10.2c5.4,0,9,1.7,10.6,5c1.1,2.3,1.7,5.5,1.6,9.3c0,1.6-0.1,3.4-0.3,5.3
	l-12.5,118.7H2390.8z M2141.6,611.3l46.2-156.3h-25.2L2131,575.6c-0.3,1-1.2,1.7-2.2,1.7c-0.1,0-0.2,0-0.2,0c-1.1-0.1-2-1-2-2.1
	l-6.4-120.1H2094l14.8,156.3H2141.6z M1943,611.3l23.1-219.7h-27.7l-9.8,94.1c-0.1,1.1-1.1,2-2.2,2h-56.1c-0.6,0-1.2-0.3-1.7-0.7
	c-0.4-0.5-0.6-1.1-0.6-1.7l9.8-93.6H1850l-23.1,219.7h27.7l10.8-102.4c0.1-1.1,1.1-2,2.2-2h56.1c0.6,0,1.2,0.3,1.7,0.7
	c0.4,0.5,0.6,1.1,0.6,1.7l-10.7,101.9H1943z M1642.3,611.3l14.2-135.3c0.1-1.1,1.1-2,2.2-2h22.3l1.9-18.9h-21.9
	c-0.6,0-1.3-0.3-1.7-0.8c-0.4-0.5-0.6-1.1-0.6-1.8l1.5-12.5c0.7-7.2,2.2-12.6,4.4-16.1c2.3-3.7,6.4-5.5,12.1-5.5
	c1.3,0,3.3,0.2,5.9,0.6c1.6,0.3,2.9,0.4,3.8,0.6l2-18.9c-7.5-1-13.3-1.5-17.2-1.5c-5.7,0-10.6,0.7-14.8,2.1c-4.1,1.4-7.5,3.3-10,5.7
	c-2.6,2.3-4.7,5.6-6.5,9.5c-1.8,4.1-3.1,8.3-4,12.6c-0.9,4.3-1.6,9.6-2.3,15.8l-1,8.1c-0.1,1.1-1.1,2-2.2,2h-17.1l-1.9,18.9h16.7
	c0.6,0,1.2,0.3,1.7,0.7c0.4,0.5,0.6,1.1,0.6,1.7l-14.2,134.9H1642.3z"/>
</svg>
